%TF.GenerationSoftware,KiCad,Pcbnew,(6.0.2)*%
%TF.CreationDate,2022-04-19T13:44:57+01:00*%
%TF.ProjectId,1u-mult-panel,31752d6d-756c-4742-9d70-616e656c2e6b,rev?*%
%TF.SameCoordinates,Original*%
%TF.FileFunction,Legend,Bot*%
%TF.FilePolarity,Positive*%
%FSLAX46Y46*%
G04 Gerber Fmt 4.6, Leading zero omitted, Abs format (unit mm)*
G04 Created by KiCad (PCBNEW (6.0.2)) date 2022-04-19 13:44:57*
%MOMM*%
%LPD*%
G01*
G04 APERTURE LIST*
%ADD10C,0.010000*%
G04 APERTURE END LIST*
D10*
%TO.C,G\u002A\u002A\u002A*%
X-10620390Y-17330811D02*
X-10506556Y-17351237D01*
X-10506556Y-17351237D02*
X-10409742Y-17390304D01*
X-10409742Y-17390304D02*
X-10317944Y-17452123D01*
X-10317944Y-17452123D02*
X-10268535Y-17494328D01*
X-10268535Y-17494328D02*
X-10181167Y-17573259D01*
X-10181167Y-17573259D02*
X-10181167Y-17335500D01*
X-10181167Y-17335500D02*
X-9969500Y-17335500D01*
X-9969500Y-17335500D02*
X-9969500Y-19409833D01*
X-9969500Y-19409833D02*
X-10181167Y-19409833D01*
X-10181167Y-19409833D02*
X-10181167Y-18601902D01*
X-10181167Y-18601902D02*
X-10278595Y-18687662D01*
X-10278595Y-18687662D02*
X-10402479Y-18776928D01*
X-10402479Y-18776928D02*
X-10535902Y-18831761D01*
X-10535902Y-18831761D02*
X-10687679Y-18855013D01*
X-10687679Y-18855013D02*
X-10795000Y-18854815D01*
X-10795000Y-18854815D02*
X-10943427Y-18839388D01*
X-10943427Y-18839388D02*
X-11057234Y-18808722D01*
X-11057234Y-18808722D02*
X-11074765Y-18801365D01*
X-11074765Y-18801365D02*
X-11201535Y-18724698D01*
X-11201535Y-18724698D02*
X-11317434Y-18617420D01*
X-11317434Y-18617420D02*
X-11410833Y-18491245D01*
X-11410833Y-18491245D02*
X-11442829Y-18430543D01*
X-11442829Y-18430543D02*
X-11471650Y-18363079D01*
X-11471650Y-18363079D02*
X-11489642Y-18303922D01*
X-11489642Y-18303922D02*
X-11499275Y-18239069D01*
X-11499275Y-18239069D02*
X-11503023Y-18154514D01*
X-11503023Y-18154514D02*
X-11503475Y-18086917D01*
X-11503475Y-18086917D02*
X-11281162Y-18086917D01*
X-11281162Y-18086917D02*
X-11263225Y-18244571D01*
X-11263225Y-18244571D02*
X-11211867Y-18382315D01*
X-11211867Y-18382315D02*
X-11131644Y-18496621D01*
X-11131644Y-18496621D02*
X-11027107Y-18583960D01*
X-11027107Y-18583960D02*
X-10902810Y-18640805D01*
X-10902810Y-18640805D02*
X-10763306Y-18663625D01*
X-10763306Y-18663625D02*
X-10613149Y-18648895D01*
X-10613149Y-18648895D02*
X-10570376Y-18637727D01*
X-10570376Y-18637727D02*
X-10447028Y-18580681D01*
X-10447028Y-18580681D02*
X-10337981Y-18491432D01*
X-10337981Y-18491432D02*
X-10254967Y-18380031D01*
X-10254967Y-18380031D02*
X-10243192Y-18357370D01*
X-10243192Y-18357370D02*
X-10205989Y-18242235D01*
X-10205989Y-18242235D02*
X-10191310Y-18107915D01*
X-10191310Y-18107915D02*
X-10199158Y-17971069D01*
X-10199158Y-17971069D02*
X-10229530Y-17848356D01*
X-10229530Y-17848356D02*
X-10243192Y-17816463D01*
X-10243192Y-17816463D02*
X-10323241Y-17695721D01*
X-10323241Y-17695721D02*
X-10427765Y-17604358D01*
X-10427765Y-17604358D02*
X-10549735Y-17543478D01*
X-10549735Y-17543478D02*
X-10682120Y-17514186D01*
X-10682120Y-17514186D02*
X-10817890Y-17517585D01*
X-10817890Y-17517585D02*
X-10950013Y-17554781D01*
X-10950013Y-17554781D02*
X-11071461Y-17626878D01*
X-11071461Y-17626878D02*
X-11127178Y-17677603D01*
X-11127178Y-17677603D02*
X-11213410Y-17793701D01*
X-11213410Y-17793701D02*
X-11264020Y-17926809D01*
X-11264020Y-17926809D02*
X-11281145Y-18082604D01*
X-11281145Y-18082604D02*
X-11281162Y-18086917D01*
X-11281162Y-18086917D02*
X-11503475Y-18086917D01*
X-11503475Y-18086917D02*
X-11502088Y-17983110D01*
X-11502088Y-17983110D02*
X-11496308Y-17907667D01*
X-11496308Y-17907667D02*
X-11483703Y-17846661D01*
X-11483703Y-17846661D02*
X-11461846Y-17786169D01*
X-11461846Y-17786169D02*
X-11443940Y-17745764D01*
X-11443940Y-17745764D02*
X-11352507Y-17596714D01*
X-11352507Y-17596714D02*
X-11227787Y-17472084D01*
X-11227787Y-17472084D02*
X-11091334Y-17384520D01*
X-11091334Y-17384520D02*
X-11032332Y-17356489D01*
X-11032332Y-17356489D02*
X-10979590Y-17338885D01*
X-10979590Y-17338885D02*
X-10920078Y-17329342D01*
X-10920078Y-17329342D02*
X-10840766Y-17325492D01*
X-10840766Y-17325492D02*
X-10763250Y-17324917D01*
X-10763250Y-17324917D02*
X-10620390Y-17330811D01*
X-10620390Y-17330811D02*
X-10620390Y-17330811D01*
G36*
X-11496308Y-17907667D02*
G01*
X-11483703Y-17846661D01*
X-11461846Y-17786169D01*
X-11443940Y-17745764D01*
X-11352507Y-17596714D01*
X-11227787Y-17472084D01*
X-11091334Y-17384520D01*
X-11032332Y-17356489D01*
X-10979590Y-17338885D01*
X-10920078Y-17329342D01*
X-10840766Y-17325492D01*
X-10763250Y-17324917D01*
X-10620390Y-17330811D01*
X-10506556Y-17351237D01*
X-10409742Y-17390304D01*
X-10317944Y-17452123D01*
X-10268535Y-17494328D01*
X-10181167Y-17573259D01*
X-10181167Y-17335500D01*
X-9969500Y-17335500D01*
X-9969500Y-19409833D01*
X-10181167Y-19409833D01*
X-10181167Y-18601902D01*
X-10278595Y-18687662D01*
X-10402479Y-18776928D01*
X-10535902Y-18831761D01*
X-10687679Y-18855013D01*
X-10795000Y-18854815D01*
X-10943427Y-18839388D01*
X-11057234Y-18808722D01*
X-11074765Y-18801365D01*
X-11201535Y-18724698D01*
X-11317434Y-18617420D01*
X-11410833Y-18491245D01*
X-11442829Y-18430543D01*
X-11471650Y-18363079D01*
X-11489642Y-18303922D01*
X-11499275Y-18239069D01*
X-11503023Y-18154514D01*
X-11503475Y-18086917D01*
X-11281162Y-18086917D01*
X-11263225Y-18244571D01*
X-11211867Y-18382315D01*
X-11131644Y-18496621D01*
X-11027107Y-18583960D01*
X-10902810Y-18640805D01*
X-10763306Y-18663625D01*
X-10613149Y-18648895D01*
X-10570376Y-18637727D01*
X-10447028Y-18580681D01*
X-10337981Y-18491432D01*
X-10254967Y-18380031D01*
X-10243192Y-18357370D01*
X-10205989Y-18242235D01*
X-10191310Y-18107915D01*
X-10199158Y-17971069D01*
X-10229530Y-17848356D01*
X-10243192Y-17816463D01*
X-10323241Y-17695721D01*
X-10427765Y-17604358D01*
X-10549735Y-17543478D01*
X-10682120Y-17514186D01*
X-10817890Y-17517585D01*
X-10950013Y-17554781D01*
X-11071461Y-17626878D01*
X-11127178Y-17677603D01*
X-11213410Y-17793701D01*
X-11264020Y-17926809D01*
X-11281145Y-18082604D01*
X-11281162Y-18086917D01*
X-11503475Y-18086917D01*
X-11502088Y-17983110D01*
X-11496308Y-17907667D01*
G37*
X-11496308Y-17907667D02*
X-11483703Y-17846661D01*
X-11461846Y-17786169D01*
X-11443940Y-17745764D01*
X-11352507Y-17596714D01*
X-11227787Y-17472084D01*
X-11091334Y-17384520D01*
X-11032332Y-17356489D01*
X-10979590Y-17338885D01*
X-10920078Y-17329342D01*
X-10840766Y-17325492D01*
X-10763250Y-17324917D01*
X-10620390Y-17330811D01*
X-10506556Y-17351237D01*
X-10409742Y-17390304D01*
X-10317944Y-17452123D01*
X-10268535Y-17494328D01*
X-10181167Y-17573259D01*
X-10181167Y-17335500D01*
X-9969500Y-17335500D01*
X-9969500Y-19409833D01*
X-10181167Y-19409833D01*
X-10181167Y-18601902D01*
X-10278595Y-18687662D01*
X-10402479Y-18776928D01*
X-10535902Y-18831761D01*
X-10687679Y-18855013D01*
X-10795000Y-18854815D01*
X-10943427Y-18839388D01*
X-11057234Y-18808722D01*
X-11074765Y-18801365D01*
X-11201535Y-18724698D01*
X-11317434Y-18617420D01*
X-11410833Y-18491245D01*
X-11442829Y-18430543D01*
X-11471650Y-18363079D01*
X-11489642Y-18303922D01*
X-11499275Y-18239069D01*
X-11503023Y-18154514D01*
X-11503475Y-18086917D01*
X-11281162Y-18086917D01*
X-11263225Y-18244571D01*
X-11211867Y-18382315D01*
X-11131644Y-18496621D01*
X-11027107Y-18583960D01*
X-10902810Y-18640805D01*
X-10763306Y-18663625D01*
X-10613149Y-18648895D01*
X-10570376Y-18637727D01*
X-10447028Y-18580681D01*
X-10337981Y-18491432D01*
X-10254967Y-18380031D01*
X-10243192Y-18357370D01*
X-10205989Y-18242235D01*
X-10191310Y-18107915D01*
X-10199158Y-17971069D01*
X-10229530Y-17848356D01*
X-10243192Y-17816463D01*
X-10323241Y-17695721D01*
X-10427765Y-17604358D01*
X-10549735Y-17543478D01*
X-10682120Y-17514186D01*
X-10817890Y-17517585D01*
X-10950013Y-17554781D01*
X-11071461Y-17626878D01*
X-11127178Y-17677603D01*
X-11213410Y-17793701D01*
X-11264020Y-17926809D01*
X-11281145Y-18082604D01*
X-11281162Y-18086917D01*
X-11503475Y-18086917D01*
X-11502088Y-17983110D01*
X-11496308Y-17907667D01*
X-13179370Y-17326198D02*
X-13105643Y-17331618D01*
X-13105643Y-17331618D02*
X-13047595Y-17343540D01*
X-13047595Y-17343540D02*
X-12991917Y-17364326D01*
X-12991917Y-17364326D02*
X-12950536Y-17383787D01*
X-12950536Y-17383787D02*
X-12798718Y-17479448D01*
X-12798718Y-17479448D02*
X-12680782Y-17600398D01*
X-12680782Y-17600398D02*
X-12597135Y-17746013D01*
X-12597135Y-17746013D02*
X-12548185Y-17915670D01*
X-12548185Y-17915670D02*
X-12536207Y-18018889D01*
X-12536207Y-18018889D02*
X-12541266Y-18213751D01*
X-12541266Y-18213751D02*
X-12581938Y-18386119D01*
X-12581938Y-18386119D02*
X-12657926Y-18535464D01*
X-12657926Y-18535464D02*
X-12768929Y-18661257D01*
X-12768929Y-18661257D02*
X-12914649Y-18762970D01*
X-12914649Y-18762970D02*
X-12974201Y-18792970D01*
X-12974201Y-18792970D02*
X-13044439Y-18821281D01*
X-13044439Y-18821281D02*
X-13115304Y-18838983D01*
X-13115304Y-18838983D02*
X-13201623Y-18848875D01*
X-13201623Y-18848875D02*
X-13292667Y-18853072D01*
X-13292667Y-18853072D02*
X-13427587Y-18852243D01*
X-13427587Y-18852243D02*
X-13534015Y-18841528D01*
X-13534015Y-18841528D02*
X-13582946Y-18829962D01*
X-13582946Y-18829962D02*
X-13674894Y-18792939D01*
X-13674894Y-18792939D02*
X-13768252Y-18743789D01*
X-13768252Y-18743789D02*
X-13847976Y-18691156D01*
X-13847976Y-18691156D02*
X-13891524Y-18652688D01*
X-13891524Y-18652688D02*
X-13913849Y-18623904D01*
X-13913849Y-18623904D02*
X-13914091Y-18599360D01*
X-13914091Y-18599360D02*
X-13889756Y-18563909D01*
X-13889756Y-18563909D02*
X-13873741Y-18544661D01*
X-13873741Y-18544661D02*
X-13824783Y-18495315D01*
X-13824783Y-18495315D02*
X-13784867Y-18482372D01*
X-13784867Y-18482372D02*
X-13743118Y-18504879D01*
X-13743118Y-18504879D02*
X-13716501Y-18530884D01*
X-13716501Y-18530884D02*
X-13630685Y-18593838D01*
X-13630685Y-18593838D02*
X-13514314Y-18636403D01*
X-13514314Y-18636403D02*
X-13375210Y-18656061D01*
X-13375210Y-18656061D02*
X-13324417Y-18657082D01*
X-13324417Y-18657082D02*
X-13161401Y-18638021D01*
X-13161401Y-18638021D02*
X-13021413Y-18585305D01*
X-13021413Y-18585305D02*
X-12907089Y-18500934D01*
X-12907089Y-18500934D02*
X-12821065Y-18386911D01*
X-12821065Y-18386911D02*
X-12765976Y-18245238D01*
X-12765976Y-18245238D02*
X-12762381Y-18230119D01*
X-12762381Y-18230119D02*
X-12746792Y-18161000D01*
X-12746792Y-18161000D02*
X-14017901Y-18161000D01*
X-14017901Y-18161000D02*
X-14007978Y-18006384D01*
X-14007978Y-18006384D02*
X-14005546Y-17991667D01*
X-14005546Y-17991667D02*
X-13805256Y-17991667D01*
X-13805256Y-17991667D02*
X-12746792Y-17991667D01*
X-12746792Y-17991667D02*
X-12763364Y-17918187D01*
X-12763364Y-17918187D02*
X-12814039Y-17782914D01*
X-12814039Y-17782914D02*
X-12896537Y-17669680D01*
X-12896537Y-17669680D02*
X-13004514Y-17583086D01*
X-13004514Y-17583086D02*
X-13131628Y-17527734D01*
X-13131628Y-17527734D02*
X-13271533Y-17508226D01*
X-13271533Y-17508226D02*
X-13324762Y-17510962D01*
X-13324762Y-17510962D02*
X-13471361Y-17545237D01*
X-13471361Y-17545237D02*
X-13594784Y-17614376D01*
X-13594784Y-17614376D02*
X-13693106Y-17716629D01*
X-13693106Y-17716629D02*
X-13764405Y-17850249D01*
X-13764405Y-17850249D02*
X-13790941Y-17934630D01*
X-13790941Y-17934630D02*
X-13805256Y-17991667D01*
X-13805256Y-17991667D02*
X-14005546Y-17991667D01*
X-14005546Y-17991667D02*
X-13978144Y-17825856D01*
X-13978144Y-17825856D02*
X-13913369Y-17669209D01*
X-13913369Y-17669209D02*
X-13813695Y-17536510D01*
X-13813695Y-17536510D02*
X-13679162Y-17427823D01*
X-13679162Y-17427823D02*
X-13626788Y-17397055D01*
X-13626788Y-17397055D02*
X-13562779Y-17363770D01*
X-13562779Y-17363770D02*
X-13510595Y-17342685D01*
X-13510595Y-17342685D02*
X-13456999Y-17331029D01*
X-13456999Y-17331029D02*
X-13388752Y-17326031D01*
X-13388752Y-17326031D02*
X-13292618Y-17324920D01*
X-13292618Y-17324920D02*
X-13282084Y-17324917D01*
X-13282084Y-17324917D02*
X-13179370Y-17326198D01*
X-13179370Y-17326198D02*
X-13179370Y-17326198D01*
G36*
X-13913369Y-17669209D02*
G01*
X-13813695Y-17536510D01*
X-13679162Y-17427823D01*
X-13626788Y-17397055D01*
X-13562779Y-17363770D01*
X-13510595Y-17342685D01*
X-13456999Y-17331029D01*
X-13388752Y-17326031D01*
X-13292618Y-17324920D01*
X-13282084Y-17324917D01*
X-13179370Y-17326198D01*
X-13105643Y-17331618D01*
X-13047595Y-17343540D01*
X-12991917Y-17364326D01*
X-12950536Y-17383787D01*
X-12798718Y-17479448D01*
X-12680782Y-17600398D01*
X-12597135Y-17746013D01*
X-12548185Y-17915670D01*
X-12536207Y-18018889D01*
X-12541266Y-18213751D01*
X-12581938Y-18386119D01*
X-12657926Y-18535464D01*
X-12768929Y-18661257D01*
X-12914649Y-18762970D01*
X-12974201Y-18792970D01*
X-13044439Y-18821281D01*
X-13115304Y-18838983D01*
X-13201623Y-18848875D01*
X-13292667Y-18853072D01*
X-13427587Y-18852243D01*
X-13534015Y-18841528D01*
X-13582946Y-18829962D01*
X-13674894Y-18792939D01*
X-13768252Y-18743789D01*
X-13847976Y-18691156D01*
X-13891524Y-18652688D01*
X-13913849Y-18623904D01*
X-13914091Y-18599360D01*
X-13889756Y-18563909D01*
X-13873741Y-18544661D01*
X-13824783Y-18495315D01*
X-13784867Y-18482372D01*
X-13743118Y-18504879D01*
X-13716501Y-18530884D01*
X-13630685Y-18593838D01*
X-13514314Y-18636403D01*
X-13375210Y-18656061D01*
X-13324417Y-18657082D01*
X-13161401Y-18638021D01*
X-13021413Y-18585305D01*
X-12907089Y-18500934D01*
X-12821065Y-18386911D01*
X-12765976Y-18245238D01*
X-12762381Y-18230119D01*
X-12746792Y-18161000D01*
X-14017901Y-18161000D01*
X-14007978Y-18006384D01*
X-14005546Y-17991667D01*
X-13805256Y-17991667D01*
X-12746792Y-17991667D01*
X-12763364Y-17918187D01*
X-12814039Y-17782914D01*
X-12896537Y-17669680D01*
X-13004514Y-17583086D01*
X-13131628Y-17527734D01*
X-13271533Y-17508226D01*
X-13324762Y-17510962D01*
X-13471361Y-17545237D01*
X-13594784Y-17614376D01*
X-13693106Y-17716629D01*
X-13764405Y-17850249D01*
X-13790941Y-17934630D01*
X-13805256Y-17991667D01*
X-14005546Y-17991667D01*
X-13978144Y-17825856D01*
X-13913369Y-17669209D01*
G37*
X-13913369Y-17669209D02*
X-13813695Y-17536510D01*
X-13679162Y-17427823D01*
X-13626788Y-17397055D01*
X-13562779Y-17363770D01*
X-13510595Y-17342685D01*
X-13456999Y-17331029D01*
X-13388752Y-17326031D01*
X-13292618Y-17324920D01*
X-13282084Y-17324917D01*
X-13179370Y-17326198D01*
X-13105643Y-17331618D01*
X-13047595Y-17343540D01*
X-12991917Y-17364326D01*
X-12950536Y-17383787D01*
X-12798718Y-17479448D01*
X-12680782Y-17600398D01*
X-12597135Y-17746013D01*
X-12548185Y-17915670D01*
X-12536207Y-18018889D01*
X-12541266Y-18213751D01*
X-12581938Y-18386119D01*
X-12657926Y-18535464D01*
X-12768929Y-18661257D01*
X-12914649Y-18762970D01*
X-12974201Y-18792970D01*
X-13044439Y-18821281D01*
X-13115304Y-18838983D01*
X-13201623Y-18848875D01*
X-13292667Y-18853072D01*
X-13427587Y-18852243D01*
X-13534015Y-18841528D01*
X-13582946Y-18829962D01*
X-13674894Y-18792939D01*
X-13768252Y-18743789D01*
X-13847976Y-18691156D01*
X-13891524Y-18652688D01*
X-13913849Y-18623904D01*
X-13914091Y-18599360D01*
X-13889756Y-18563909D01*
X-13873741Y-18544661D01*
X-13824783Y-18495315D01*
X-13784867Y-18482372D01*
X-13743118Y-18504879D01*
X-13716501Y-18530884D01*
X-13630685Y-18593838D01*
X-13514314Y-18636403D01*
X-13375210Y-18656061D01*
X-13324417Y-18657082D01*
X-13161401Y-18638021D01*
X-13021413Y-18585305D01*
X-12907089Y-18500934D01*
X-12821065Y-18386911D01*
X-12765976Y-18245238D01*
X-12762381Y-18230119D01*
X-12746792Y-18161000D01*
X-14017901Y-18161000D01*
X-14007978Y-18006384D01*
X-14005546Y-17991667D01*
X-13805256Y-17991667D01*
X-12746792Y-17991667D01*
X-12763364Y-17918187D01*
X-12814039Y-17782914D01*
X-12896537Y-17669680D01*
X-13004514Y-17583086D01*
X-13131628Y-17527734D01*
X-13271533Y-17508226D01*
X-13324762Y-17510962D01*
X-13471361Y-17545237D01*
X-13594784Y-17614376D01*
X-13693106Y-17716629D01*
X-13764405Y-17850249D01*
X-13790941Y-17934630D01*
X-13805256Y-17991667D01*
X-14005546Y-17991667D01*
X-13978144Y-17825856D01*
X-13913369Y-17669209D01*
X-11916834Y-18859500D02*
X-12128500Y-18859500D01*
X-12128500Y-18859500D02*
X-12128500Y-16700500D01*
X-12128500Y-16700500D02*
X-11916834Y-16700500D01*
X-11916834Y-16700500D02*
X-11916834Y-18859500D01*
X-11916834Y-18859500D02*
X-11916834Y-18859500D01*
G36*
X-11916834Y-18859500D02*
G01*
X-12128500Y-18859500D01*
X-12128500Y-16700500D01*
X-11916834Y-16700500D01*
X-11916834Y-18859500D01*
G37*
X-11916834Y-18859500D02*
X-12128500Y-18859500D01*
X-12128500Y-16700500D01*
X-11916834Y-16700500D01*
X-11916834Y-18859500D01*
X-9186334Y-18859500D02*
X-9419167Y-18859500D01*
X-9419167Y-18859500D02*
X-9419167Y-17335500D01*
X-9419167Y-17335500D02*
X-9186334Y-17335500D01*
X-9186334Y-17335500D02*
X-9186334Y-18859500D01*
X-9186334Y-18859500D02*
X-9186334Y-18859500D01*
G36*
X-9186334Y-18859500D02*
G01*
X-9419167Y-18859500D01*
X-9419167Y-17335500D01*
X-9186334Y-17335500D01*
X-9186334Y-18859500D01*
G37*
X-9186334Y-18859500D02*
X-9419167Y-18859500D01*
X-9419167Y-17335500D01*
X-9186334Y-17335500D01*
X-9186334Y-18859500D01*
X-8064500Y-17335500D02*
X-7789334Y-17335500D01*
X-7789334Y-17335500D02*
X-7789334Y-17504833D01*
X-7789334Y-17504833D02*
X-8061899Y-17504833D01*
X-8061899Y-17504833D02*
X-8068491Y-18051482D01*
X-8068491Y-18051482D02*
X-8075084Y-18598131D01*
X-8075084Y-18598131D02*
X-8134692Y-18688144D01*
X-8134692Y-18688144D02*
X-8212228Y-18774360D01*
X-8212228Y-18774360D02*
X-8312110Y-18829462D01*
X-8312110Y-18829462D02*
X-8438771Y-18855465D01*
X-8438771Y-18855465D02*
X-8509000Y-18858206D01*
X-8509000Y-18858206D02*
X-8594421Y-18853037D01*
X-8594421Y-18853037D02*
X-8674046Y-18840027D01*
X-8674046Y-18840027D02*
X-8719210Y-18826331D01*
X-8719210Y-18826331D02*
X-8788903Y-18793291D01*
X-8788903Y-18793291D02*
X-8824296Y-18765058D01*
X-8824296Y-18765058D02*
X-8831050Y-18732469D01*
X-8831050Y-18732469D02*
X-8814825Y-18686357D01*
X-8814825Y-18686357D02*
X-8810866Y-18677930D01*
X-8810866Y-18677930D02*
X-8780154Y-18625517D01*
X-8780154Y-18625517D02*
X-8747705Y-18609328D01*
X-8747705Y-18609328D02*
X-8700203Y-18625276D01*
X-8700203Y-18625276D02*
X-8678334Y-18637250D01*
X-8678334Y-18637250D02*
X-8599754Y-18662683D01*
X-8599754Y-18662683D02*
X-8506716Y-18665476D01*
X-8506716Y-18665476D02*
X-8420608Y-18645504D01*
X-8420608Y-18645504D02*
X-8406237Y-18638837D01*
X-8406237Y-18638837D02*
X-8373814Y-18619352D01*
X-8373814Y-18619352D02*
X-8348516Y-18595000D01*
X-8348516Y-18595000D02*
X-8329469Y-18560659D01*
X-8329469Y-18560659D02*
X-8315798Y-18511207D01*
X-8315798Y-18511207D02*
X-8306628Y-18441522D01*
X-8306628Y-18441522D02*
X-8301084Y-18346480D01*
X-8301084Y-18346480D02*
X-8298291Y-18220961D01*
X-8298291Y-18220961D02*
X-8297374Y-18059841D01*
X-8297374Y-18059841D02*
X-8297334Y-18001254D01*
X-8297334Y-18001254D02*
X-8297334Y-17504833D01*
X-8297334Y-17504833D02*
X-8741834Y-17504833D01*
X-8741834Y-17504833D02*
X-8741834Y-17335500D01*
X-8741834Y-17335500D02*
X-8297334Y-17335500D01*
X-8297334Y-17335500D02*
X-8297334Y-16996833D01*
X-8297334Y-16996833D02*
X-8064500Y-16996833D01*
X-8064500Y-16996833D02*
X-8064500Y-17335500D01*
X-8064500Y-17335500D02*
X-8064500Y-17335500D01*
G36*
X-8064500Y-17335500D02*
G01*
X-7789334Y-17335500D01*
X-7789334Y-17504833D01*
X-8061899Y-17504833D01*
X-8068491Y-18051482D01*
X-8075084Y-18598131D01*
X-8134692Y-18688144D01*
X-8212228Y-18774360D01*
X-8312110Y-18829462D01*
X-8438771Y-18855465D01*
X-8509000Y-18858206D01*
X-8594421Y-18853037D01*
X-8674046Y-18840027D01*
X-8719210Y-18826331D01*
X-8788903Y-18793291D01*
X-8824296Y-18765058D01*
X-8831050Y-18732469D01*
X-8814825Y-18686357D01*
X-8810866Y-18677930D01*
X-8780154Y-18625517D01*
X-8747705Y-18609328D01*
X-8700203Y-18625276D01*
X-8678334Y-18637250D01*
X-8599754Y-18662683D01*
X-8506716Y-18665476D01*
X-8420608Y-18645504D01*
X-8406237Y-18638837D01*
X-8373814Y-18619352D01*
X-8348516Y-18595000D01*
X-8329469Y-18560659D01*
X-8315798Y-18511207D01*
X-8306628Y-18441522D01*
X-8301084Y-18346480D01*
X-8298291Y-18220961D01*
X-8297374Y-18059841D01*
X-8297334Y-18001254D01*
X-8297334Y-17504833D01*
X-8741834Y-17504833D01*
X-8741834Y-17335500D01*
X-8297334Y-17335500D01*
X-8297334Y-16996833D01*
X-8064500Y-16996833D01*
X-8064500Y-17335500D01*
G37*
X-8064500Y-17335500D02*
X-7789334Y-17335500D01*
X-7789334Y-17504833D01*
X-8061899Y-17504833D01*
X-8068491Y-18051482D01*
X-8075084Y-18598131D01*
X-8134692Y-18688144D01*
X-8212228Y-18774360D01*
X-8312110Y-18829462D01*
X-8438771Y-18855465D01*
X-8509000Y-18858206D01*
X-8594421Y-18853037D01*
X-8674046Y-18840027D01*
X-8719210Y-18826331D01*
X-8788903Y-18793291D01*
X-8824296Y-18765058D01*
X-8831050Y-18732469D01*
X-8814825Y-18686357D01*
X-8810866Y-18677930D01*
X-8780154Y-18625517D01*
X-8747705Y-18609328D01*
X-8700203Y-18625276D01*
X-8678334Y-18637250D01*
X-8599754Y-18662683D01*
X-8506716Y-18665476D01*
X-8420608Y-18645504D01*
X-8406237Y-18638837D01*
X-8373814Y-18619352D01*
X-8348516Y-18595000D01*
X-8329469Y-18560659D01*
X-8315798Y-18511207D01*
X-8306628Y-18441522D01*
X-8301084Y-18346480D01*
X-8298291Y-18220961D01*
X-8297374Y-18059841D01*
X-8297334Y-18001254D01*
X-8297334Y-17504833D01*
X-8741834Y-17504833D01*
X-8741834Y-17335500D01*
X-8297334Y-17335500D01*
X-8297334Y-16996833D01*
X-8064500Y-16996833D01*
X-8064500Y-17335500D01*
X-7260167Y-18859500D02*
X-7471834Y-18859500D01*
X-7471834Y-18859500D02*
X-7471834Y-16700500D01*
X-7471834Y-16700500D02*
X-7260167Y-16700500D01*
X-7260167Y-16700500D02*
X-7260167Y-18859500D01*
X-7260167Y-18859500D02*
X-7260167Y-18859500D01*
G36*
X-7260167Y-18859500D02*
G01*
X-7471834Y-18859500D01*
X-7471834Y-16700500D01*
X-7260167Y-16700500D01*
X-7260167Y-18859500D01*
G37*
X-7260167Y-18859500D02*
X-7471834Y-18859500D01*
X-7471834Y-16700500D01*
X-7260167Y-16700500D01*
X-7260167Y-18859500D01*
X-6473116Y-17827625D02*
X-6470717Y-17986097D01*
X-6470717Y-17986097D02*
X-6468018Y-18108248D01*
X-6468018Y-18108248D02*
X-6464477Y-18200088D01*
X-6464477Y-18200088D02*
X-6459547Y-18267629D01*
X-6459547Y-18267629D02*
X-6452684Y-18316882D01*
X-6452684Y-18316882D02*
X-6443344Y-18353858D01*
X-6443344Y-18353858D02*
X-6430981Y-18384568D01*
X-6430981Y-18384568D02*
X-6420852Y-18404417D01*
X-6420852Y-18404417D02*
X-6341258Y-18517137D01*
X-6341258Y-18517137D02*
X-6240925Y-18595166D01*
X-6240925Y-18595166D02*
X-6116560Y-18640318D01*
X-6116560Y-18640318D02*
X-5966778Y-18654415D01*
X-5966778Y-18654415D02*
X-5826143Y-18638331D01*
X-5826143Y-18638331D02*
X-5713721Y-18590740D01*
X-5713721Y-18590740D02*
X-5629038Y-18511229D01*
X-5629038Y-18511229D02*
X-5571623Y-18399383D01*
X-5571623Y-18399383D02*
X-5544776Y-18284769D01*
X-5544776Y-18284769D02*
X-5538522Y-18220037D01*
X-5538522Y-18220037D02*
X-5533057Y-18122600D01*
X-5533057Y-18122600D02*
X-5528734Y-18002084D01*
X-5528734Y-18002084D02*
X-5525905Y-17868116D01*
X-5525905Y-17868116D02*
X-5524926Y-17742958D01*
X-5524926Y-17742958D02*
X-5524500Y-17335500D01*
X-5524500Y-17335500D02*
X-5310232Y-17335500D01*
X-5310232Y-17335500D02*
X-5316825Y-17880542D01*
X-5316825Y-17880542D02*
X-5319026Y-18047730D01*
X-5319026Y-18047730D02*
X-5321428Y-18178405D01*
X-5321428Y-18178405D02*
X-5324523Y-18278387D01*
X-5324523Y-18278387D02*
X-5328807Y-18353495D01*
X-5328807Y-18353495D02*
X-5334774Y-18409549D01*
X-5334774Y-18409549D02*
X-5342916Y-18452366D01*
X-5342916Y-18452366D02*
X-5353730Y-18487769D01*
X-5353730Y-18487769D02*
X-5367709Y-18521574D01*
X-5367709Y-18521574D02*
X-5372076Y-18531153D01*
X-5372076Y-18531153D02*
X-5428123Y-18633942D01*
X-5428123Y-18633942D02*
X-5493646Y-18709398D01*
X-5493646Y-18709398D02*
X-5582488Y-18772145D01*
X-5582488Y-18772145D02*
X-5619750Y-18792803D01*
X-5619750Y-18792803D02*
X-5672605Y-18818594D01*
X-5672605Y-18818594D02*
X-5721684Y-18835056D01*
X-5721684Y-18835056D02*
X-5778931Y-18844233D01*
X-5778931Y-18844233D02*
X-5856290Y-18848168D01*
X-5856290Y-18848168D02*
X-5947834Y-18848917D01*
X-5947834Y-18848917D02*
X-6053406Y-18847707D01*
X-6053406Y-18847707D02*
X-6128272Y-18842849D01*
X-6128272Y-18842849D02*
X-6184025Y-18832496D01*
X-6184025Y-18832496D02*
X-6232252Y-18814801D01*
X-6232252Y-18814801D02*
X-6265334Y-18798340D01*
X-6265334Y-18798340D02*
X-6339220Y-18751294D01*
X-6339220Y-18751294D02*
X-6409936Y-18694168D01*
X-6409936Y-18694168D02*
X-6429375Y-18675125D01*
X-6429375Y-18675125D02*
X-6498167Y-18602486D01*
X-6498167Y-18602486D02*
X-6498167Y-18859500D01*
X-6498167Y-18859500D02*
X-6709834Y-18859500D01*
X-6709834Y-18859500D02*
X-6709834Y-17335500D01*
X-6709834Y-17335500D02*
X-6479815Y-17335500D01*
X-6479815Y-17335500D02*
X-6473116Y-17827625D01*
X-6473116Y-17827625D02*
X-6473116Y-17827625D01*
G36*
X-6473116Y-17827625D02*
G01*
X-6470717Y-17986097D01*
X-6468018Y-18108248D01*
X-6464477Y-18200088D01*
X-6459547Y-18267629D01*
X-6452684Y-18316882D01*
X-6443344Y-18353858D01*
X-6430981Y-18384568D01*
X-6420852Y-18404417D01*
X-6341258Y-18517137D01*
X-6240925Y-18595166D01*
X-6116560Y-18640318D01*
X-5966778Y-18654415D01*
X-5826143Y-18638331D01*
X-5713721Y-18590740D01*
X-5629038Y-18511229D01*
X-5571623Y-18399383D01*
X-5544776Y-18284769D01*
X-5538522Y-18220037D01*
X-5533057Y-18122600D01*
X-5528734Y-18002084D01*
X-5525905Y-17868116D01*
X-5524926Y-17742958D01*
X-5524500Y-17335500D01*
X-5310232Y-17335500D01*
X-5316825Y-17880542D01*
X-5319026Y-18047730D01*
X-5321428Y-18178405D01*
X-5324523Y-18278387D01*
X-5328807Y-18353495D01*
X-5334774Y-18409549D01*
X-5342916Y-18452366D01*
X-5353730Y-18487769D01*
X-5367709Y-18521574D01*
X-5372076Y-18531153D01*
X-5428123Y-18633942D01*
X-5493646Y-18709398D01*
X-5582488Y-18772145D01*
X-5619750Y-18792803D01*
X-5672605Y-18818594D01*
X-5721684Y-18835056D01*
X-5778931Y-18844233D01*
X-5856290Y-18848168D01*
X-5947834Y-18848917D01*
X-6053406Y-18847707D01*
X-6128272Y-18842849D01*
X-6184025Y-18832496D01*
X-6232252Y-18814801D01*
X-6265334Y-18798340D01*
X-6339220Y-18751294D01*
X-6409936Y-18694168D01*
X-6429375Y-18675125D01*
X-6498167Y-18602486D01*
X-6498167Y-18859500D01*
X-6709834Y-18859500D01*
X-6709834Y-17335500D01*
X-6479815Y-17335500D01*
X-6473116Y-17827625D01*
G37*
X-6473116Y-17827625D02*
X-6470717Y-17986097D01*
X-6468018Y-18108248D01*
X-6464477Y-18200088D01*
X-6459547Y-18267629D01*
X-6452684Y-18316882D01*
X-6443344Y-18353858D01*
X-6430981Y-18384568D01*
X-6420852Y-18404417D01*
X-6341258Y-18517137D01*
X-6240925Y-18595166D01*
X-6116560Y-18640318D01*
X-5966778Y-18654415D01*
X-5826143Y-18638331D01*
X-5713721Y-18590740D01*
X-5629038Y-18511229D01*
X-5571623Y-18399383D01*
X-5544776Y-18284769D01*
X-5538522Y-18220037D01*
X-5533057Y-18122600D01*
X-5528734Y-18002084D01*
X-5525905Y-17868116D01*
X-5524926Y-17742958D01*
X-5524500Y-17335500D01*
X-5310232Y-17335500D01*
X-5316825Y-17880542D01*
X-5319026Y-18047730D01*
X-5321428Y-18178405D01*
X-5324523Y-18278387D01*
X-5328807Y-18353495D01*
X-5334774Y-18409549D01*
X-5342916Y-18452366D01*
X-5353730Y-18487769D01*
X-5367709Y-18521574D01*
X-5372076Y-18531153D01*
X-5428123Y-18633942D01*
X-5493646Y-18709398D01*
X-5582488Y-18772145D01*
X-5619750Y-18792803D01*
X-5672605Y-18818594D01*
X-5721684Y-18835056D01*
X-5778931Y-18844233D01*
X-5856290Y-18848168D01*
X-5947834Y-18848917D01*
X-6053406Y-18847707D01*
X-6128272Y-18842849D01*
X-6184025Y-18832496D01*
X-6232252Y-18814801D01*
X-6265334Y-18798340D01*
X-6339220Y-18751294D01*
X-6409936Y-18694168D01*
X-6429375Y-18675125D01*
X-6498167Y-18602486D01*
X-6498167Y-18859500D01*
X-6709834Y-18859500D01*
X-6709834Y-17335500D01*
X-6479815Y-17335500D01*
X-6473116Y-17827625D01*
X-4049529Y-17324195D02*
X-3902472Y-17361703D01*
X-3902472Y-17361703D02*
X-3769442Y-17427423D01*
X-3769442Y-17427423D02*
X-3663775Y-17515763D01*
X-3663775Y-17515763D02*
X-3580077Y-17606563D01*
X-3580077Y-17606563D02*
X-3528716Y-17528951D01*
X-3528716Y-17528951D02*
X-3478490Y-17472614D01*
X-3478490Y-17472614D02*
X-3407108Y-17415506D01*
X-3407108Y-17415506D02*
X-3363219Y-17388127D01*
X-3363219Y-17388127D02*
X-3306764Y-17358742D01*
X-3306764Y-17358742D02*
X-3257586Y-17340186D01*
X-3257586Y-17340186D02*
X-3203015Y-17330003D01*
X-3203015Y-17330003D02*
X-3130380Y-17325734D01*
X-3130380Y-17325734D02*
X-3037417Y-17324917D01*
X-3037417Y-17324917D02*
X-2897851Y-17330875D01*
X-2897851Y-17330875D02*
X-2787486Y-17351510D01*
X-2787486Y-17351510D02*
X-2694520Y-17390961D01*
X-2694520Y-17390961D02*
X-2607155Y-17453366D01*
X-2607155Y-17453366D02*
X-2566459Y-17490100D01*
X-2566459Y-17490100D02*
X-2497667Y-17555471D01*
X-2497667Y-17555471D02*
X-2497667Y-17335500D01*
X-2497667Y-17335500D02*
X-2286000Y-17335500D01*
X-2286000Y-17335500D02*
X-2286000Y-18859500D01*
X-2286000Y-18859500D02*
X-2493139Y-18859500D01*
X-2493139Y-18859500D02*
X-2501907Y-18377958D01*
X-2501907Y-18377958D02*
X-2505367Y-18215007D01*
X-2505367Y-18215007D02*
X-2509396Y-18088504D01*
X-2509396Y-18088504D02*
X-2514468Y-17992564D01*
X-2514468Y-17992564D02*
X-2521060Y-17921302D01*
X-2521060Y-17921302D02*
X-2529646Y-17868834D01*
X-2529646Y-17868834D02*
X-2540701Y-17829273D01*
X-2540701Y-17829273D02*
X-2547627Y-17811750D01*
X-2547627Y-17811750D02*
X-2622162Y-17688374D01*
X-2622162Y-17688374D02*
X-2722640Y-17598069D01*
X-2722640Y-17598069D02*
X-2846971Y-17542182D01*
X-2846971Y-17542182D02*
X-2993065Y-17522061D01*
X-2993065Y-17522061D02*
X-2996795Y-17522029D01*
X-2996795Y-17522029D02*
X-3136384Y-17537644D01*
X-3136384Y-17537644D02*
X-3249430Y-17586216D01*
X-3249430Y-17586216D02*
X-3335854Y-17667687D01*
X-3335854Y-17667687D02*
X-3395579Y-17782000D01*
X-3395579Y-17782000D02*
X-3407494Y-17819843D01*
X-3407494Y-17819843D02*
X-3413686Y-17863009D01*
X-3413686Y-17863009D02*
X-3419178Y-17941239D01*
X-3419178Y-17941239D02*
X-3423694Y-18047266D01*
X-3423694Y-18047266D02*
X-3426954Y-18173821D01*
X-3426954Y-18173821D02*
X-3428680Y-18313639D01*
X-3428680Y-18313639D02*
X-3428882Y-18377958D01*
X-3428882Y-18377958D02*
X-3429000Y-18859500D01*
X-3429000Y-18859500D02*
X-3635681Y-18859500D01*
X-3635681Y-18859500D02*
X-3645031Y-18377958D01*
X-3645031Y-18377958D02*
X-3648722Y-18214326D01*
X-3648722Y-18214326D02*
X-3652974Y-18087186D01*
X-3652974Y-18087186D02*
X-3658259Y-17990694D01*
X-3658259Y-17990694D02*
X-3665054Y-17919009D01*
X-3665054Y-17919009D02*
X-3673830Y-17866289D01*
X-3673830Y-17866289D02*
X-3685063Y-17826692D01*
X-3685063Y-17826692D02*
X-3690980Y-17811750D01*
X-3690980Y-17811750D02*
X-3764594Y-17691000D01*
X-3764594Y-17691000D02*
X-3865272Y-17600076D01*
X-3865272Y-17600076D02*
X-3987479Y-17541794D01*
X-3987479Y-17541794D02*
X-4125684Y-17518968D01*
X-4125684Y-17518968D02*
X-4247284Y-17528722D01*
X-4247284Y-17528722D02*
X-4365983Y-17569156D01*
X-4365983Y-17569156D02*
X-4458416Y-17642337D01*
X-4458416Y-17642337D02*
X-4514271Y-17723574D01*
X-4514271Y-17723574D02*
X-4528983Y-17753234D01*
X-4528983Y-17753234D02*
X-4540391Y-17784238D01*
X-4540391Y-17784238D02*
X-4549009Y-17822383D01*
X-4549009Y-17822383D02*
X-4555349Y-17873470D01*
X-4555349Y-17873470D02*
X-4559923Y-17943298D01*
X-4559923Y-17943298D02*
X-4563244Y-18037665D01*
X-4563244Y-18037665D02*
X-4565823Y-18162372D01*
X-4565823Y-18162372D02*
X-4568173Y-18323216D01*
X-4568173Y-18323216D02*
X-4568337Y-18335625D01*
X-4568337Y-18335625D02*
X-4575258Y-18859500D01*
X-4575258Y-18859500D02*
X-4783667Y-18859500D01*
X-4783667Y-18859500D02*
X-4783667Y-18320544D01*
X-4783667Y-18320544D02*
X-4782887Y-18127893D01*
X-4782887Y-18127893D02*
X-4779791Y-17972136D01*
X-4779791Y-17972136D02*
X-4773243Y-17847850D01*
X-4773243Y-17847850D02*
X-4762106Y-17749613D01*
X-4762106Y-17749613D02*
X-4745245Y-17672001D01*
X-4745245Y-17672001D02*
X-4721525Y-17609592D01*
X-4721525Y-17609592D02*
X-4689810Y-17556963D01*
X-4689810Y-17556963D02*
X-4648963Y-17508690D01*
X-4648963Y-17508690D02*
X-4604596Y-17465539D01*
X-4604596Y-17465539D02*
X-4488146Y-17385571D01*
X-4488146Y-17385571D02*
X-4351037Y-17335666D01*
X-4351037Y-17335666D02*
X-4201941Y-17315361D01*
X-4201941Y-17315361D02*
X-4049529Y-17324195D01*
X-4049529Y-17324195D02*
X-4049529Y-17324195D01*
G36*
X-4049529Y-17324195D02*
G01*
X-3902472Y-17361703D01*
X-3769442Y-17427423D01*
X-3663775Y-17515763D01*
X-3580077Y-17606563D01*
X-3528716Y-17528951D01*
X-3478490Y-17472614D01*
X-3407108Y-17415506D01*
X-3363219Y-17388127D01*
X-3306764Y-17358742D01*
X-3257586Y-17340186D01*
X-3203015Y-17330003D01*
X-3130380Y-17325734D01*
X-3037417Y-17324917D01*
X-2897851Y-17330875D01*
X-2787486Y-17351510D01*
X-2694520Y-17390961D01*
X-2607155Y-17453366D01*
X-2566459Y-17490100D01*
X-2497667Y-17555471D01*
X-2497667Y-17335500D01*
X-2286000Y-17335500D01*
X-2286000Y-18859500D01*
X-2493139Y-18859500D01*
X-2501907Y-18377958D01*
X-2505367Y-18215007D01*
X-2509396Y-18088504D01*
X-2514468Y-17992564D01*
X-2521060Y-17921302D01*
X-2529646Y-17868834D01*
X-2540701Y-17829273D01*
X-2547627Y-17811750D01*
X-2622162Y-17688374D01*
X-2722640Y-17598069D01*
X-2846971Y-17542182D01*
X-2993065Y-17522061D01*
X-2996795Y-17522029D01*
X-3136384Y-17537644D01*
X-3249430Y-17586216D01*
X-3335854Y-17667687D01*
X-3395579Y-17782000D01*
X-3407494Y-17819843D01*
X-3413686Y-17863009D01*
X-3419178Y-17941239D01*
X-3423694Y-18047266D01*
X-3426954Y-18173821D01*
X-3428680Y-18313639D01*
X-3428882Y-18377958D01*
X-3429000Y-18859500D01*
X-3635681Y-18859500D01*
X-3645031Y-18377958D01*
X-3648722Y-18214326D01*
X-3652974Y-18087186D01*
X-3658259Y-17990694D01*
X-3665054Y-17919009D01*
X-3673830Y-17866289D01*
X-3685063Y-17826692D01*
X-3690980Y-17811750D01*
X-3764594Y-17691000D01*
X-3865272Y-17600076D01*
X-3987479Y-17541794D01*
X-4125684Y-17518968D01*
X-4247284Y-17528722D01*
X-4365983Y-17569156D01*
X-4458416Y-17642337D01*
X-4514271Y-17723574D01*
X-4528983Y-17753234D01*
X-4540391Y-17784238D01*
X-4549009Y-17822383D01*
X-4555349Y-17873470D01*
X-4559923Y-17943298D01*
X-4563244Y-18037665D01*
X-4565823Y-18162372D01*
X-4568173Y-18323216D01*
X-4568337Y-18335625D01*
X-4575258Y-18859500D01*
X-4783667Y-18859500D01*
X-4783667Y-18320544D01*
X-4782887Y-18127893D01*
X-4779791Y-17972136D01*
X-4773243Y-17847850D01*
X-4762106Y-17749613D01*
X-4745245Y-17672001D01*
X-4721525Y-17609592D01*
X-4689810Y-17556963D01*
X-4648963Y-17508690D01*
X-4604596Y-17465539D01*
X-4488146Y-17385571D01*
X-4351037Y-17335666D01*
X-4201941Y-17315361D01*
X-4049529Y-17324195D01*
G37*
X-4049529Y-17324195D02*
X-3902472Y-17361703D01*
X-3769442Y-17427423D01*
X-3663775Y-17515763D01*
X-3580077Y-17606563D01*
X-3528716Y-17528951D01*
X-3478490Y-17472614D01*
X-3407108Y-17415506D01*
X-3363219Y-17388127D01*
X-3306764Y-17358742D01*
X-3257586Y-17340186D01*
X-3203015Y-17330003D01*
X-3130380Y-17325734D01*
X-3037417Y-17324917D01*
X-2897851Y-17330875D01*
X-2787486Y-17351510D01*
X-2694520Y-17390961D01*
X-2607155Y-17453366D01*
X-2566459Y-17490100D01*
X-2497667Y-17555471D01*
X-2497667Y-17335500D01*
X-2286000Y-17335500D01*
X-2286000Y-18859500D01*
X-2493139Y-18859500D01*
X-2501907Y-18377958D01*
X-2505367Y-18215007D01*
X-2509396Y-18088504D01*
X-2514468Y-17992564D01*
X-2521060Y-17921302D01*
X-2529646Y-17868834D01*
X-2540701Y-17829273D01*
X-2547627Y-17811750D01*
X-2622162Y-17688374D01*
X-2722640Y-17598069D01*
X-2846971Y-17542182D01*
X-2993065Y-17522061D01*
X-2996795Y-17522029D01*
X-3136384Y-17537644D01*
X-3249430Y-17586216D01*
X-3335854Y-17667687D01*
X-3395579Y-17782000D01*
X-3407494Y-17819843D01*
X-3413686Y-17863009D01*
X-3419178Y-17941239D01*
X-3423694Y-18047266D01*
X-3426954Y-18173821D01*
X-3428680Y-18313639D01*
X-3428882Y-18377958D01*
X-3429000Y-18859500D01*
X-3635681Y-18859500D01*
X-3645031Y-18377958D01*
X-3648722Y-18214326D01*
X-3652974Y-18087186D01*
X-3658259Y-17990694D01*
X-3665054Y-17919009D01*
X-3673830Y-17866289D01*
X-3685063Y-17826692D01*
X-3690980Y-17811750D01*
X-3764594Y-17691000D01*
X-3865272Y-17600076D01*
X-3987479Y-17541794D01*
X-4125684Y-17518968D01*
X-4247284Y-17528722D01*
X-4365983Y-17569156D01*
X-4458416Y-17642337D01*
X-4514271Y-17723574D01*
X-4528983Y-17753234D01*
X-4540391Y-17784238D01*
X-4549009Y-17822383D01*
X-4555349Y-17873470D01*
X-4559923Y-17943298D01*
X-4563244Y-18037665D01*
X-4565823Y-18162372D01*
X-4568173Y-18323216D01*
X-4568337Y-18335625D01*
X-4575258Y-18859500D01*
X-4783667Y-18859500D01*
X-4783667Y-18320544D01*
X-4782887Y-18127893D01*
X-4779791Y-17972136D01*
X-4773243Y-17847850D01*
X-4762106Y-17749613D01*
X-4745245Y-17672001D01*
X-4721525Y-17609592D01*
X-4689810Y-17556963D01*
X-4648963Y-17508690D01*
X-4604596Y-17465539D01*
X-4488146Y-17385571D01*
X-4351037Y-17335666D01*
X-4201941Y-17315361D01*
X-4049529Y-17324195D01*
X-762000Y-17576925D02*
X-682625Y-17499590D01*
X-682625Y-17499590D02*
X-583897Y-17418524D01*
X-583897Y-17418524D02*
X-477844Y-17364853D01*
X-477844Y-17364853D02*
X-354096Y-17334895D01*
X-354096Y-17334895D02*
X-202281Y-17324972D01*
X-202281Y-17324972D02*
X-190500Y-17324932D01*
X-190500Y-17324932D02*
X-88883Y-17326496D01*
X-88883Y-17326496D02*
X-14569Y-17333044D01*
X-14569Y-17333044D02*
X47410Y-17347331D01*
X47410Y-17347331D02*
X112027Y-17372114D01*
X112027Y-17372114D02*
X143943Y-17386495D01*
X143943Y-17386495D02*
X292351Y-17476120D01*
X292351Y-17476120D02*
X408171Y-17592556D01*
X408171Y-17592556D02*
X490990Y-17735098D01*
X490990Y-17735098D02*
X540395Y-17903047D01*
X540395Y-17903047D02*
X556006Y-18086917D01*
X556006Y-18086917D02*
X544553Y-18257742D01*
X544553Y-18257742D02*
X507951Y-18401901D01*
X507951Y-18401901D02*
X442839Y-18529022D01*
X442839Y-18529022D02*
X368270Y-18624583D01*
X368270Y-18624583D02*
X248928Y-18732146D01*
X248928Y-18732146D02*
X113211Y-18804878D01*
X113211Y-18804878D02*
X-45020Y-18845555D01*
X-45020Y-18845555D02*
X-141011Y-18855118D01*
X-141011Y-18855118D02*
X-306574Y-18852576D01*
X-306574Y-18852576D02*
X-446035Y-18823211D01*
X-446035Y-18823211D02*
X-568067Y-18764344D01*
X-568067Y-18764344D02*
X-657603Y-18695439D01*
X-657603Y-18695439D02*
X-762000Y-18601577D01*
X-762000Y-18601577D02*
X-762000Y-18859500D01*
X-762000Y-18859500D02*
X-973667Y-18859500D01*
X-973667Y-18859500D02*
X-973667Y-18053979D01*
X-973667Y-18053979D02*
X-759951Y-18053979D01*
X-759951Y-18053979D02*
X-752188Y-18191366D01*
X-752188Y-18191366D02*
X-715098Y-18322670D01*
X-715098Y-18322670D02*
X-650043Y-18441110D01*
X-650043Y-18441110D02*
X-558384Y-18539901D01*
X-558384Y-18539901D02*
X-441482Y-18612261D01*
X-441482Y-18612261D02*
X-402167Y-18627638D01*
X-402167Y-18627638D02*
X-293711Y-18658229D01*
X-293711Y-18658229D02*
X-200326Y-18665991D01*
X-200326Y-18665991D02*
X-101726Y-18651378D01*
X-101726Y-18651378D02*
X-43576Y-18635658D01*
X-43576Y-18635658D02*
X80922Y-18577567D01*
X80922Y-18577567D02*
X186294Y-18486638D01*
X186294Y-18486638D02*
X267641Y-18369903D01*
X267641Y-18369903D02*
X320064Y-18234394D01*
X320064Y-18234394D02*
X338666Y-18087142D01*
X338666Y-18087142D02*
X338666Y-18086917D01*
X338666Y-18086917D02*
X320119Y-17939653D01*
X320119Y-17939653D02*
X267742Y-17804121D01*
X267742Y-17804121D02*
X186435Y-17687352D01*
X186435Y-17687352D02*
X81096Y-17596379D01*
X81096Y-17596379D02*
X-43377Y-17538234D01*
X-43377Y-17538234D02*
X-43576Y-17538175D01*
X-43576Y-17538175D02*
X-117888Y-17519106D01*
X-117888Y-17519106D02*
X-184326Y-17507039D01*
X-184326Y-17507039D02*
X-211667Y-17504833D01*
X-211667Y-17504833D02*
X-340839Y-17524216D01*
X-340839Y-17524216D02*
X-468708Y-17578540D01*
X-468708Y-17578540D02*
X-582252Y-17662067D01*
X-582252Y-17662067D02*
X-593675Y-17673159D01*
X-593675Y-17673159D02*
X-682056Y-17788092D01*
X-682056Y-17788092D02*
X-737027Y-17917293D01*
X-737027Y-17917293D02*
X-759951Y-18053979D01*
X-759951Y-18053979D02*
X-973667Y-18053979D01*
X-973667Y-18053979D02*
X-973667Y-16700500D01*
X-973667Y-16700500D02*
X-762000Y-16700500D01*
X-762000Y-16700500D02*
X-762000Y-17576925D01*
X-762000Y-17576925D02*
X-762000Y-17576925D01*
G36*
X-762000Y-16700500D02*
G01*
X-762000Y-17576925D01*
X-682625Y-17499590D01*
X-583897Y-17418524D01*
X-477844Y-17364853D01*
X-354096Y-17334895D01*
X-202281Y-17324972D01*
X-190500Y-17324932D01*
X-88883Y-17326496D01*
X-14569Y-17333044D01*
X47410Y-17347331D01*
X112027Y-17372114D01*
X143943Y-17386495D01*
X292351Y-17476120D01*
X408171Y-17592556D01*
X490990Y-17735098D01*
X540395Y-17903047D01*
X556006Y-18086917D01*
X544553Y-18257742D01*
X507951Y-18401901D01*
X442839Y-18529022D01*
X368270Y-18624583D01*
X248928Y-18732146D01*
X113211Y-18804878D01*
X-45020Y-18845555D01*
X-141011Y-18855118D01*
X-306574Y-18852576D01*
X-446035Y-18823211D01*
X-568067Y-18764344D01*
X-657603Y-18695439D01*
X-762000Y-18601577D01*
X-762000Y-18859500D01*
X-973667Y-18859500D01*
X-973667Y-18053979D01*
X-759951Y-18053979D01*
X-752188Y-18191366D01*
X-715098Y-18322670D01*
X-650043Y-18441110D01*
X-558384Y-18539901D01*
X-441482Y-18612261D01*
X-402167Y-18627638D01*
X-293711Y-18658229D01*
X-200326Y-18665991D01*
X-101726Y-18651378D01*
X-43576Y-18635658D01*
X80922Y-18577567D01*
X186294Y-18486638D01*
X267641Y-18369903D01*
X320064Y-18234394D01*
X338666Y-18087142D01*
X338666Y-18086917D01*
X320119Y-17939653D01*
X267742Y-17804121D01*
X186435Y-17687352D01*
X81096Y-17596379D01*
X-43377Y-17538234D01*
X-43576Y-17538175D01*
X-117888Y-17519106D01*
X-184326Y-17507039D01*
X-211667Y-17504833D01*
X-340839Y-17524216D01*
X-468708Y-17578540D01*
X-582252Y-17662067D01*
X-593675Y-17673159D01*
X-682056Y-17788092D01*
X-737027Y-17917293D01*
X-759951Y-18053979D01*
X-973667Y-18053979D01*
X-973667Y-16700500D01*
X-762000Y-16700500D01*
G37*
X-762000Y-16700500D02*
X-762000Y-17576925D01*
X-682625Y-17499590D01*
X-583897Y-17418524D01*
X-477844Y-17364853D01*
X-354096Y-17334895D01*
X-202281Y-17324972D01*
X-190500Y-17324932D01*
X-88883Y-17326496D01*
X-14569Y-17333044D01*
X47410Y-17347331D01*
X112027Y-17372114D01*
X143943Y-17386495D01*
X292351Y-17476120D01*
X408171Y-17592556D01*
X490990Y-17735098D01*
X540395Y-17903047D01*
X556006Y-18086917D01*
X544553Y-18257742D01*
X507951Y-18401901D01*
X442839Y-18529022D01*
X368270Y-18624583D01*
X248928Y-18732146D01*
X113211Y-18804878D01*
X-45020Y-18845555D01*
X-141011Y-18855118D01*
X-306574Y-18852576D01*
X-446035Y-18823211D01*
X-568067Y-18764344D01*
X-657603Y-18695439D01*
X-762000Y-18601577D01*
X-762000Y-18859500D01*
X-973667Y-18859500D01*
X-973667Y-18053979D01*
X-759951Y-18053979D01*
X-752188Y-18191366D01*
X-715098Y-18322670D01*
X-650043Y-18441110D01*
X-558384Y-18539901D01*
X-441482Y-18612261D01*
X-402167Y-18627638D01*
X-293711Y-18658229D01*
X-200326Y-18665991D01*
X-101726Y-18651378D01*
X-43576Y-18635658D01*
X80922Y-18577567D01*
X186294Y-18486638D01*
X267641Y-18369903D01*
X320064Y-18234394D01*
X338666Y-18087142D01*
X338666Y-18086917D01*
X320119Y-17939653D01*
X267742Y-17804121D01*
X186435Y-17687352D01*
X81096Y-17596379D01*
X-43377Y-17538234D01*
X-43576Y-17538175D01*
X-117888Y-17519106D01*
X-184326Y-17507039D01*
X-211667Y-17504833D01*
X-340839Y-17524216D01*
X-468708Y-17578540D01*
X-582252Y-17662067D01*
X-593675Y-17673159D01*
X-682056Y-17788092D01*
X-737027Y-17917293D01*
X-759951Y-18053979D01*
X-973667Y-18053979D01*
X-973667Y-16700500D01*
X-762000Y-16700500D01*
X1644414Y-17326185D02*
X1715835Y-17331993D01*
X1715835Y-17331993D02*
X1774550Y-17345349D01*
X1774550Y-17345349D02*
X1835360Y-17369256D01*
X1835360Y-17369256D02*
X1888557Y-17394597D01*
X1888557Y-17394597D02*
X2031942Y-17485070D01*
X2031942Y-17485070D02*
X2145659Y-17602743D01*
X2145659Y-17602743D02*
X2226359Y-17734785D01*
X2226359Y-17734785D02*
X2248145Y-17784210D01*
X2248145Y-17784210D02*
X2262374Y-17834350D01*
X2262374Y-17834350D02*
X2270593Y-17896024D01*
X2270593Y-17896024D02*
X2274347Y-17980052D01*
X2274347Y-17980052D02*
X2275182Y-18076333D01*
X2275182Y-18076333D02*
X2274344Y-18186162D01*
X2274344Y-18186162D02*
X2270417Y-18265112D01*
X2270417Y-18265112D02*
X2261653Y-18324619D01*
X2261653Y-18324619D02*
X2246307Y-18376117D01*
X2246307Y-18376117D02*
X2222632Y-18431039D01*
X2222632Y-18431039D02*
X2220210Y-18436167D01*
X2220210Y-18436167D02*
X2134292Y-18571927D01*
X2134292Y-18571927D02*
X2017181Y-18690554D01*
X2017181Y-18690554D02*
X1879495Y-18781539D01*
X1879495Y-18781539D02*
X1862932Y-18789702D01*
X1862932Y-18789702D02*
X1797253Y-18817450D01*
X1797253Y-18817450D02*
X1732147Y-18835296D01*
X1732147Y-18835296D02*
X1653835Y-18845864D01*
X1653835Y-18845864D02*
X1548536Y-18851782D01*
X1548536Y-18851782D02*
X1534583Y-18852266D01*
X1534583Y-18852266D02*
X1386790Y-18852132D01*
X1386790Y-18852132D02*
X1276689Y-18840790D01*
X1276689Y-18840790D02*
X1234528Y-18830350D01*
X1234528Y-18830350D02*
X1102924Y-18772680D01*
X1102924Y-18772680D02*
X990690Y-18695234D01*
X990690Y-18695234D02*
X955451Y-18661558D01*
X955451Y-18661558D02*
X906207Y-18609141D01*
X906207Y-18609141D02*
X954501Y-18543820D01*
X954501Y-18543820D02*
X1000504Y-18493392D01*
X1000504Y-18493392D02*
X1038920Y-18481396D01*
X1038920Y-18481396D02*
X1075995Y-18506253D01*
X1075995Y-18506253D02*
X1080870Y-18511901D01*
X1080870Y-18511901D02*
X1115230Y-18540447D01*
X1115230Y-18540447D02*
X1172244Y-18576334D01*
X1172244Y-18576334D02*
X1209070Y-18596219D01*
X1209070Y-18596219D02*
X1352166Y-18648053D01*
X1352166Y-18648053D02*
X1497800Y-18663726D01*
X1497800Y-18663726D02*
X1639707Y-18645928D01*
X1639707Y-18645928D02*
X1771617Y-18597350D01*
X1771617Y-18597350D02*
X1887266Y-18520680D01*
X1887266Y-18520680D02*
X1980386Y-18418609D01*
X1980386Y-18418609D02*
X2044709Y-18293826D01*
X2044709Y-18293826D02*
X2062848Y-18229792D01*
X2062848Y-18229792D02*
X2077696Y-18161000D01*
X2077696Y-18161000D02*
X798254Y-18161000D01*
X798254Y-18161000D02*
X812445Y-18007542D01*
X812445Y-18007542D02*
X815568Y-17991667D01*
X815568Y-17991667D02*
X1018024Y-17991667D01*
X1018024Y-17991667D02*
X2077696Y-17991667D01*
X2077696Y-17991667D02*
X2062848Y-17922875D01*
X2062848Y-17922875D02*
X2012880Y-17781140D01*
X2012880Y-17781140D02*
X1931974Y-17666880D01*
X1931974Y-17666880D02*
X1823544Y-17582830D01*
X1823544Y-17582830D02*
X1691006Y-17531729D01*
X1691006Y-17531729D02*
X1555312Y-17516175D01*
X1555312Y-17516175D02*
X1402490Y-17533602D01*
X1402490Y-17533602D02*
X1272109Y-17586650D01*
X1272109Y-17586650D02*
X1165997Y-17673964D01*
X1165997Y-17673964D02*
X1085979Y-17794190D01*
X1085979Y-17794190D02*
X1047907Y-17892375D01*
X1047907Y-17892375D02*
X1018024Y-17991667D01*
X1018024Y-17991667D02*
X815568Y-17991667D01*
X815568Y-17991667D02*
X847858Y-17827556D01*
X847858Y-17827556D02*
X917413Y-17667661D01*
X917413Y-17667661D02*
X1018425Y-17531911D01*
X1018425Y-17531911D02*
X1148211Y-17424363D01*
X1148211Y-17424363D02*
X1227666Y-17380221D01*
X1227666Y-17380221D02*
X1291093Y-17352983D01*
X1291093Y-17352983D02*
X1350364Y-17336346D01*
X1350364Y-17336346D02*
X1419627Y-17327847D01*
X1419627Y-17327847D02*
X1513033Y-17325025D01*
X1513033Y-17325025D02*
X1545487Y-17324917D01*
X1545487Y-17324917D02*
X1644414Y-17326185D01*
X1644414Y-17326185D02*
X1644414Y-17326185D01*
G36*
X917413Y-17667661D02*
G01*
X1018425Y-17531911D01*
X1148211Y-17424363D01*
X1227666Y-17380221D01*
X1291093Y-17352983D01*
X1350364Y-17336346D01*
X1419627Y-17327847D01*
X1513033Y-17325025D01*
X1545487Y-17324917D01*
X1644414Y-17326185D01*
X1715835Y-17331993D01*
X1774550Y-17345349D01*
X1835360Y-17369256D01*
X1888557Y-17394597D01*
X2031942Y-17485070D01*
X2145659Y-17602743D01*
X2226359Y-17734785D01*
X2248145Y-17784210D01*
X2262374Y-17834350D01*
X2270593Y-17896024D01*
X2274347Y-17980052D01*
X2275182Y-18076333D01*
X2274344Y-18186162D01*
X2270417Y-18265112D01*
X2261653Y-18324619D01*
X2246307Y-18376117D01*
X2222632Y-18431039D01*
X2220210Y-18436167D01*
X2134292Y-18571927D01*
X2017181Y-18690554D01*
X1879495Y-18781539D01*
X1862932Y-18789702D01*
X1797253Y-18817450D01*
X1732147Y-18835296D01*
X1653835Y-18845864D01*
X1548536Y-18851782D01*
X1534583Y-18852266D01*
X1386790Y-18852132D01*
X1276689Y-18840790D01*
X1234528Y-18830350D01*
X1102924Y-18772680D01*
X990690Y-18695234D01*
X955451Y-18661558D01*
X906207Y-18609141D01*
X954501Y-18543820D01*
X1000504Y-18493392D01*
X1038920Y-18481396D01*
X1075995Y-18506253D01*
X1080870Y-18511901D01*
X1115230Y-18540447D01*
X1172244Y-18576334D01*
X1209070Y-18596219D01*
X1352166Y-18648053D01*
X1497800Y-18663726D01*
X1639707Y-18645928D01*
X1771617Y-18597350D01*
X1887266Y-18520680D01*
X1980386Y-18418609D01*
X2044709Y-18293826D01*
X2062848Y-18229792D01*
X2077696Y-18161000D01*
X798254Y-18161000D01*
X812445Y-18007542D01*
X815568Y-17991667D01*
X1018024Y-17991667D01*
X2077696Y-17991667D01*
X2062848Y-17922875D01*
X2012880Y-17781140D01*
X1931974Y-17666880D01*
X1823544Y-17582830D01*
X1691006Y-17531729D01*
X1555312Y-17516175D01*
X1402490Y-17533602D01*
X1272109Y-17586650D01*
X1165997Y-17673964D01*
X1085979Y-17794190D01*
X1047907Y-17892375D01*
X1018024Y-17991667D01*
X815568Y-17991667D01*
X847858Y-17827556D01*
X917413Y-17667661D01*
G37*
X917413Y-17667661D02*
X1018425Y-17531911D01*
X1148211Y-17424363D01*
X1227666Y-17380221D01*
X1291093Y-17352983D01*
X1350364Y-17336346D01*
X1419627Y-17327847D01*
X1513033Y-17325025D01*
X1545487Y-17324917D01*
X1644414Y-17326185D01*
X1715835Y-17331993D01*
X1774550Y-17345349D01*
X1835360Y-17369256D01*
X1888557Y-17394597D01*
X2031942Y-17485070D01*
X2145659Y-17602743D01*
X2226359Y-17734785D01*
X2248145Y-17784210D01*
X2262374Y-17834350D01*
X2270593Y-17896024D01*
X2274347Y-17980052D01*
X2275182Y-18076333D01*
X2274344Y-18186162D01*
X2270417Y-18265112D01*
X2261653Y-18324619D01*
X2246307Y-18376117D01*
X2222632Y-18431039D01*
X2220210Y-18436167D01*
X2134292Y-18571927D01*
X2017181Y-18690554D01*
X1879495Y-18781539D01*
X1862932Y-18789702D01*
X1797253Y-18817450D01*
X1732147Y-18835296D01*
X1653835Y-18845864D01*
X1548536Y-18851782D01*
X1534583Y-18852266D01*
X1386790Y-18852132D01*
X1276689Y-18840790D01*
X1234528Y-18830350D01*
X1102924Y-18772680D01*
X990690Y-18695234D01*
X955451Y-18661558D01*
X906207Y-18609141D01*
X954501Y-18543820D01*
X1000504Y-18493392D01*
X1038920Y-18481396D01*
X1075995Y-18506253D01*
X1080870Y-18511901D01*
X1115230Y-18540447D01*
X1172244Y-18576334D01*
X1209070Y-18596219D01*
X1352166Y-18648053D01*
X1497800Y-18663726D01*
X1639707Y-18645928D01*
X1771617Y-18597350D01*
X1887266Y-18520680D01*
X1980386Y-18418609D01*
X2044709Y-18293826D01*
X2062848Y-18229792D01*
X2077696Y-18161000D01*
X798254Y-18161000D01*
X812445Y-18007542D01*
X815568Y-17991667D01*
X1018024Y-17991667D01*
X2077696Y-17991667D01*
X2062848Y-17922875D01*
X2012880Y-17781140D01*
X1931974Y-17666880D01*
X1823544Y-17582830D01*
X1691006Y-17531729D01*
X1555312Y-17516175D01*
X1402490Y-17533602D01*
X1272109Y-17586650D01*
X1165997Y-17673964D01*
X1085979Y-17794190D01*
X1047907Y-17892375D01*
X1018024Y-17991667D01*
X815568Y-17991667D01*
X847858Y-17827556D01*
X917413Y-17667661D01*
X2591327Y-17320262D02*
X2738198Y-17351752D01*
X2738198Y-17351752D02*
X2870172Y-17411616D01*
X2870172Y-17411616D02*
X2975537Y-17494520D01*
X2975537Y-17494520D02*
X2976781Y-17495834D01*
X2976781Y-17495834D02*
X3048000Y-17571347D01*
X3048000Y-17571347D02*
X3048000Y-17335500D01*
X3048000Y-17335500D02*
X3259666Y-17335500D01*
X3259666Y-17335500D02*
X3259666Y-18859500D01*
X3259666Y-18859500D02*
X3029602Y-18859500D01*
X3029602Y-18859500D02*
X3022926Y-18356792D01*
X3022926Y-18356792D02*
X3016250Y-17854083D01*
X3016250Y-17854083D02*
X2957479Y-17754104D01*
X2957479Y-17754104D02*
X2872859Y-17650489D01*
X2872859Y-17650489D02*
X2760540Y-17576908D01*
X2760540Y-17576908D02*
X2625361Y-17536316D01*
X2625361Y-17536316D02*
X2593914Y-17532196D01*
X2593914Y-17532196D02*
X2476500Y-17520077D01*
X2476500Y-17520077D02*
X2476500Y-17308411D01*
X2476500Y-17308411D02*
X2591327Y-17320262D01*
X2591327Y-17320262D02*
X2591327Y-17320262D01*
G36*
X2591327Y-17320262D02*
G01*
X2738198Y-17351752D01*
X2870172Y-17411616D01*
X2975537Y-17494520D01*
X2976781Y-17495834D01*
X3048000Y-17571347D01*
X3048000Y-17335500D01*
X3259666Y-17335500D01*
X3259666Y-18859500D01*
X3029602Y-18859500D01*
X3022926Y-18356792D01*
X3016250Y-17854083D01*
X2957479Y-17754104D01*
X2872859Y-17650489D01*
X2760540Y-17576908D01*
X2625361Y-17536316D01*
X2593914Y-17532196D01*
X2476500Y-17520077D01*
X2476500Y-17308411D01*
X2591327Y-17320262D01*
G37*
X2591327Y-17320262D02*
X2738198Y-17351752D01*
X2870172Y-17411616D01*
X2975537Y-17494520D01*
X2976781Y-17495834D01*
X3048000Y-17571347D01*
X3048000Y-17335500D01*
X3259666Y-17335500D01*
X3259666Y-18859500D01*
X3029602Y-18859500D01*
X3022926Y-18356792D01*
X3016250Y-17854083D01*
X2957479Y-17754104D01*
X2872859Y-17650489D01*
X2760540Y-17576908D01*
X2625361Y-17536316D01*
X2593914Y-17532196D01*
X2476500Y-17520077D01*
X2476500Y-17308411D01*
X2591327Y-17320262D01*
X4494849Y-17326203D02*
X4568613Y-17331634D01*
X4568613Y-17331634D02*
X4626669Y-17343563D01*
X4626669Y-17343563D02*
X4682312Y-17364345D01*
X4682312Y-17364345D02*
X4723161Y-17383558D01*
X4723161Y-17383558D02*
X4857214Y-17471317D01*
X4857214Y-17471317D02*
X4974344Y-17591297D01*
X4974344Y-17591297D02*
X5065693Y-17734162D01*
X5065693Y-17734162D02*
X5075767Y-17755126D01*
X5075767Y-17755126D02*
X5103168Y-17820680D01*
X5103168Y-17820680D02*
X5119828Y-17881467D01*
X5119828Y-17881467D02*
X5128224Y-17951926D01*
X5128224Y-17951926D02*
X5130832Y-18046497D01*
X5130832Y-18046497D02*
X5130869Y-18076333D01*
X5130869Y-18076333D02*
X5115121Y-18268362D01*
X5115121Y-18268362D02*
X5067943Y-18432731D01*
X5067943Y-18432731D02*
X4988283Y-18571262D01*
X4988283Y-18571262D02*
X4875089Y-18685779D01*
X4875089Y-18685779D02*
X4727312Y-18778103D01*
X4727312Y-18778103D02*
X4725569Y-18778963D01*
X4725569Y-18778963D02*
X4655099Y-18811679D01*
X4655099Y-18811679D02*
X4595214Y-18832565D01*
X4595214Y-18832565D02*
X4531713Y-18844606D01*
X4531713Y-18844606D02*
X4450392Y-18850790D01*
X4450392Y-18850790D02*
X4372142Y-18853311D01*
X4372142Y-18853311D02*
X4257829Y-18853877D01*
X4257829Y-18853877D02*
X4171496Y-18848050D01*
X4171496Y-18848050D02*
X4099059Y-18834226D01*
X4099059Y-18834226D02*
X4038718Y-18815282D01*
X4038718Y-18815282D02*
X3952454Y-18775317D01*
X3952454Y-18775317D02*
X3866098Y-18721280D01*
X3866098Y-18721280D02*
X3827051Y-18690265D01*
X3827051Y-18690265D02*
X3735916Y-18608440D01*
X3735916Y-18608440D02*
X3800932Y-18542360D01*
X3800932Y-18542360D02*
X3865949Y-18476281D01*
X3865949Y-18476281D02*
X3975409Y-18549942D01*
X3975409Y-18549942D02*
X4114578Y-18620995D01*
X4114578Y-18620995D02*
X4263098Y-18656971D01*
X4263098Y-18656971D02*
X4413183Y-18658383D01*
X4413183Y-18658383D02*
X4557045Y-18625743D01*
X4557045Y-18625743D02*
X4686899Y-18559564D01*
X4686899Y-18559564D02*
X4760639Y-18498270D01*
X4760639Y-18498270D02*
X4822395Y-18422694D01*
X4822395Y-18422694D02*
X4872726Y-18335734D01*
X4872726Y-18335734D02*
X4903892Y-18252377D01*
X4903892Y-18252377D02*
X4910201Y-18208625D01*
X4910201Y-18208625D02*
X4910666Y-18161000D01*
X4910666Y-18161000D02*
X3656394Y-18161000D01*
X3656394Y-18161000D02*
X3666142Y-17996958D01*
X3666142Y-17996958D02*
X3675254Y-17943420D01*
X3675254Y-17943420D02*
X3873629Y-17943420D01*
X3873629Y-17943420D02*
X3885425Y-17964483D01*
X3885425Y-17964483D02*
X3917358Y-17978364D01*
X3917358Y-17978364D02*
X3973577Y-17986546D01*
X3973577Y-17986546D02*
X4058233Y-17990508D01*
X4058233Y-17990508D02*
X4175478Y-17991732D01*
X4175478Y-17991732D02*
X4329462Y-17991700D01*
X4329462Y-17991700D02*
X4392083Y-17991667D01*
X4392083Y-17991667D02*
X4910666Y-17991667D01*
X4910666Y-17991667D02*
X4910201Y-17944042D01*
X4910201Y-17944042D02*
X4895035Y-17870893D01*
X4895035Y-17870893D02*
X4856077Y-17785248D01*
X4856077Y-17785248D02*
X4801334Y-17702562D01*
X4801334Y-17702562D02*
X4762682Y-17659273D01*
X4762682Y-17659273D02*
X4668343Y-17582815D01*
X4668343Y-17582815D02*
X4569078Y-17537546D01*
X4569078Y-17537546D02*
X4451198Y-17518193D01*
X4451198Y-17518193D02*
X4392083Y-17516525D01*
X4392083Y-17516525D02*
X4241345Y-17533864D01*
X4241345Y-17533864D02*
X4114665Y-17585971D01*
X4114665Y-17585971D02*
X4011071Y-17673472D01*
X4011071Y-17673472D02*
X3929592Y-17796992D01*
X3929592Y-17796992D02*
X3917545Y-17822333D01*
X3917545Y-17822333D02*
X3893840Y-17873827D01*
X3893840Y-17873827D02*
X3877817Y-17913695D01*
X3877817Y-17913695D02*
X3873629Y-17943420D01*
X3873629Y-17943420D02*
X3675254Y-17943420D01*
X3675254Y-17943420D02*
X3695957Y-17821797D01*
X3695957Y-17821797D02*
X3761738Y-17664551D01*
X3761738Y-17664551D02*
X3860551Y-17529646D01*
X3860551Y-17529646D02*
X3989464Y-17421505D01*
X3989464Y-17421505D02*
X4081448Y-17370655D01*
X4081448Y-17370655D02*
X4139258Y-17347954D01*
X4139258Y-17347954D02*
X4201226Y-17333995D01*
X4201226Y-17333995D02*
X4279900Y-17326933D01*
X4279900Y-17326933D02*
X4387825Y-17324918D01*
X4387825Y-17324918D02*
X4392083Y-17324917D01*
X4392083Y-17324917D02*
X4494849Y-17326203D01*
X4494849Y-17326203D02*
X4494849Y-17326203D01*
G36*
X3761738Y-17664551D02*
G01*
X3860551Y-17529646D01*
X3989464Y-17421505D01*
X4081448Y-17370655D01*
X4139258Y-17347954D01*
X4201226Y-17333995D01*
X4279900Y-17326933D01*
X4387825Y-17324918D01*
X4392083Y-17324917D01*
X4494849Y-17326203D01*
X4568613Y-17331634D01*
X4626669Y-17343563D01*
X4682312Y-17364345D01*
X4723161Y-17383558D01*
X4857214Y-17471317D01*
X4974344Y-17591297D01*
X5065693Y-17734162D01*
X5075767Y-17755126D01*
X5103168Y-17820680D01*
X5119828Y-17881467D01*
X5128224Y-17951926D01*
X5130832Y-18046497D01*
X5130869Y-18076333D01*
X5115121Y-18268362D01*
X5067943Y-18432731D01*
X4988283Y-18571262D01*
X4875089Y-18685779D01*
X4727312Y-18778103D01*
X4725569Y-18778963D01*
X4655099Y-18811679D01*
X4595214Y-18832565D01*
X4531713Y-18844606D01*
X4450392Y-18850790D01*
X4372142Y-18853311D01*
X4257829Y-18853877D01*
X4171496Y-18848050D01*
X4099059Y-18834226D01*
X4038718Y-18815282D01*
X3952454Y-18775317D01*
X3866098Y-18721280D01*
X3827051Y-18690265D01*
X3735916Y-18608440D01*
X3800932Y-18542360D01*
X3865949Y-18476281D01*
X3975409Y-18549942D01*
X4114578Y-18620995D01*
X4263098Y-18656971D01*
X4413183Y-18658383D01*
X4557045Y-18625743D01*
X4686899Y-18559564D01*
X4760639Y-18498270D01*
X4822395Y-18422694D01*
X4872726Y-18335734D01*
X4903892Y-18252377D01*
X4910201Y-18208625D01*
X4910666Y-18161000D01*
X3656394Y-18161000D01*
X3666142Y-17996958D01*
X3675254Y-17943420D01*
X3873629Y-17943420D01*
X3885425Y-17964483D01*
X3917358Y-17978364D01*
X3973577Y-17986546D01*
X4058233Y-17990508D01*
X4175478Y-17991732D01*
X4329462Y-17991700D01*
X4392083Y-17991667D01*
X4910666Y-17991667D01*
X4910201Y-17944042D01*
X4895035Y-17870893D01*
X4856077Y-17785248D01*
X4801334Y-17702562D01*
X4762682Y-17659273D01*
X4668343Y-17582815D01*
X4569078Y-17537546D01*
X4451198Y-17518193D01*
X4392083Y-17516525D01*
X4241345Y-17533864D01*
X4114665Y-17585971D01*
X4011071Y-17673472D01*
X3929592Y-17796992D01*
X3917545Y-17822333D01*
X3893840Y-17873827D01*
X3877817Y-17913695D01*
X3873629Y-17943420D01*
X3675254Y-17943420D01*
X3695957Y-17821797D01*
X3761738Y-17664551D01*
G37*
X3761738Y-17664551D02*
X3860551Y-17529646D01*
X3989464Y-17421505D01*
X4081448Y-17370655D01*
X4139258Y-17347954D01*
X4201226Y-17333995D01*
X4279900Y-17326933D01*
X4387825Y-17324918D01*
X4392083Y-17324917D01*
X4494849Y-17326203D01*
X4568613Y-17331634D01*
X4626669Y-17343563D01*
X4682312Y-17364345D01*
X4723161Y-17383558D01*
X4857214Y-17471317D01*
X4974344Y-17591297D01*
X5065693Y-17734162D01*
X5075767Y-17755126D01*
X5103168Y-17820680D01*
X5119828Y-17881467D01*
X5128224Y-17951926D01*
X5130832Y-18046497D01*
X5130869Y-18076333D01*
X5115121Y-18268362D01*
X5067943Y-18432731D01*
X4988283Y-18571262D01*
X4875089Y-18685779D01*
X4727312Y-18778103D01*
X4725569Y-18778963D01*
X4655099Y-18811679D01*
X4595214Y-18832565D01*
X4531713Y-18844606D01*
X4450392Y-18850790D01*
X4372142Y-18853311D01*
X4257829Y-18853877D01*
X4171496Y-18848050D01*
X4099059Y-18834226D01*
X4038718Y-18815282D01*
X3952454Y-18775317D01*
X3866098Y-18721280D01*
X3827051Y-18690265D01*
X3735916Y-18608440D01*
X3800932Y-18542360D01*
X3865949Y-18476281D01*
X3975409Y-18549942D01*
X4114578Y-18620995D01*
X4263098Y-18656971D01*
X4413183Y-18658383D01*
X4557045Y-18625743D01*
X4686899Y-18559564D01*
X4760639Y-18498270D01*
X4822395Y-18422694D01*
X4872726Y-18335734D01*
X4903892Y-18252377D01*
X4910201Y-18208625D01*
X4910666Y-18161000D01*
X3656394Y-18161000D01*
X3666142Y-17996958D01*
X3675254Y-17943420D01*
X3873629Y-17943420D01*
X3885425Y-17964483D01*
X3917358Y-17978364D01*
X3973577Y-17986546D01*
X4058233Y-17990508D01*
X4175478Y-17991732D01*
X4329462Y-17991700D01*
X4392083Y-17991667D01*
X4910666Y-17991667D01*
X4910201Y-17944042D01*
X4895035Y-17870893D01*
X4856077Y-17785248D01*
X4801334Y-17702562D01*
X4762682Y-17659273D01*
X4668343Y-17582815D01*
X4569078Y-17537546D01*
X4451198Y-17518193D01*
X4392083Y-17516525D01*
X4241345Y-17533864D01*
X4114665Y-17585971D01*
X4011071Y-17673472D01*
X3929592Y-17796992D01*
X3917545Y-17822333D01*
X3893840Y-17873827D01*
X3877817Y-17913695D01*
X3873629Y-17943420D01*
X3675254Y-17943420D01*
X3695957Y-17821797D01*
X3761738Y-17664551D01*
X5525632Y-16699655D02*
X5611869Y-16712109D01*
X5611869Y-16712109D02*
X5640916Y-16720859D01*
X5640916Y-16720859D02*
X5743505Y-16782461D01*
X5743505Y-16782461D02*
X5822823Y-16876785D01*
X5822823Y-16876785D02*
X5876741Y-16999874D01*
X5876741Y-16999874D02*
X5903129Y-17147775D01*
X5903129Y-17147775D02*
X5905500Y-17212342D01*
X5905500Y-17212342D02*
X5905500Y-17335500D01*
X5905500Y-17335500D02*
X6180666Y-17335500D01*
X6180666Y-17335500D02*
X6180666Y-17504833D01*
X6180666Y-17504833D02*
X5905500Y-17504833D01*
X5905500Y-17504833D02*
X5905500Y-18859500D01*
X5905500Y-18859500D02*
X5672666Y-18859500D01*
X5672666Y-18859500D02*
X5672666Y-17504833D01*
X5672666Y-17504833D02*
X5228166Y-17504833D01*
X5228166Y-17504833D02*
X5228166Y-17335500D01*
X5228166Y-17335500D02*
X5677149Y-17335500D01*
X5677149Y-17335500D02*
X5669366Y-17164119D01*
X5669366Y-17164119D02*
X5664169Y-17076946D01*
X5664169Y-17076946D02*
X5655937Y-17020608D01*
X5655937Y-17020608D02*
X5641207Y-16983610D01*
X5641207Y-16983610D02*
X5616519Y-16954457D01*
X5616519Y-16954457D02*
X5602444Y-16941869D01*
X5602444Y-16941869D02*
X5533344Y-16906101D01*
X5533344Y-16906101D02*
X5442764Y-16890488D01*
X5442764Y-16890488D02*
X5346919Y-16895919D01*
X5346919Y-16895919D02*
X5262059Y-16923259D01*
X5262059Y-16923259D02*
X5218999Y-16943522D01*
X5218999Y-16943522D02*
X5196484Y-16949921D01*
X5196484Y-16949921D02*
X5195959Y-16949587D01*
X5195959Y-16949587D02*
X5184222Y-16928892D01*
X5184222Y-16928892D02*
X5161243Y-16884954D01*
X5161243Y-16884954D02*
X5155445Y-16873604D01*
X5155445Y-16873604D02*
X5134702Y-16814963D01*
X5134702Y-16814963D02*
X5145550Y-16772719D01*
X5145550Y-16772719D02*
X5192017Y-16739851D01*
X5192017Y-16739851D02*
X5243486Y-16720103D01*
X5243486Y-16720103D02*
X5323810Y-16703619D01*
X5323810Y-16703619D02*
X5423735Y-16696814D01*
X5423735Y-16696814D02*
X5525632Y-16699655D01*
X5525632Y-16699655D02*
X5525632Y-16699655D01*
G36*
X5525632Y-16699655D02*
G01*
X5611869Y-16712109D01*
X5640916Y-16720859D01*
X5743505Y-16782461D01*
X5822823Y-16876785D01*
X5876741Y-16999874D01*
X5903129Y-17147775D01*
X5905500Y-17212342D01*
X5905500Y-17335500D01*
X6180666Y-17335500D01*
X6180666Y-17504833D01*
X5905500Y-17504833D01*
X5905500Y-18859500D01*
X5672666Y-18859500D01*
X5672666Y-17504833D01*
X5228166Y-17504833D01*
X5228166Y-17335500D01*
X5677149Y-17335500D01*
X5669366Y-17164119D01*
X5664169Y-17076946D01*
X5655937Y-17020608D01*
X5641207Y-16983610D01*
X5616519Y-16954457D01*
X5602444Y-16941869D01*
X5533344Y-16906101D01*
X5442764Y-16890488D01*
X5346919Y-16895919D01*
X5262059Y-16923259D01*
X5218999Y-16943522D01*
X5196484Y-16949921D01*
X5195959Y-16949587D01*
X5184222Y-16928892D01*
X5161243Y-16884954D01*
X5155445Y-16873604D01*
X5134702Y-16814963D01*
X5145550Y-16772719D01*
X5192017Y-16739851D01*
X5243486Y-16720103D01*
X5323810Y-16703619D01*
X5423735Y-16696814D01*
X5525632Y-16699655D01*
G37*
X5525632Y-16699655D02*
X5611869Y-16712109D01*
X5640916Y-16720859D01*
X5743505Y-16782461D01*
X5822823Y-16876785D01*
X5876741Y-16999874D01*
X5903129Y-17147775D01*
X5905500Y-17212342D01*
X5905500Y-17335500D01*
X6180666Y-17335500D01*
X6180666Y-17504833D01*
X5905500Y-17504833D01*
X5905500Y-18859500D01*
X5672666Y-18859500D01*
X5672666Y-17504833D01*
X5228166Y-17504833D01*
X5228166Y-17335500D01*
X5677149Y-17335500D01*
X5669366Y-17164119D01*
X5664169Y-17076946D01*
X5655937Y-17020608D01*
X5641207Y-16983610D01*
X5616519Y-16954457D01*
X5602444Y-16941869D01*
X5533344Y-16906101D01*
X5442764Y-16890488D01*
X5346919Y-16895919D01*
X5262059Y-16923259D01*
X5218999Y-16943522D01*
X5196484Y-16949921D01*
X5195959Y-16949587D01*
X5184222Y-16928892D01*
X5161243Y-16884954D01*
X5155445Y-16873604D01*
X5134702Y-16814963D01*
X5145550Y-16772719D01*
X5192017Y-16739851D01*
X5243486Y-16720103D01*
X5323810Y-16703619D01*
X5423735Y-16696814D01*
X5525632Y-16699655D01*
X6558444Y-16707429D02*
X6650567Y-16734421D01*
X6650567Y-16734421D02*
X6664899Y-16741442D01*
X6664899Y-16741442D02*
X6724817Y-16788390D01*
X6724817Y-16788390D02*
X6785693Y-16859244D01*
X6785693Y-16859244D02*
X6835047Y-16937766D01*
X6835047Y-16937766D02*
X6856727Y-16990963D01*
X6856727Y-16990963D02*
X6868992Y-17057144D01*
X6868992Y-17057144D02*
X6877106Y-17143073D01*
X6877106Y-17143073D02*
X6879048Y-17203208D01*
X6879048Y-17203208D02*
X6879166Y-17335500D01*
X6879166Y-17335500D02*
X7154333Y-17335500D01*
X7154333Y-17335500D02*
X7154333Y-17504833D01*
X7154333Y-17504833D02*
X6879166Y-17504833D01*
X6879166Y-17504833D02*
X6879166Y-18859500D01*
X6879166Y-18859500D02*
X6646333Y-18859500D01*
X6646333Y-18859500D02*
X6646333Y-17504833D01*
X6646333Y-17504833D02*
X6201833Y-17504833D01*
X6201833Y-17504833D02*
X6201833Y-17335500D01*
X6201833Y-17335500D02*
X6667500Y-17335500D01*
X6667500Y-17335500D02*
X6667381Y-17234958D01*
X6667381Y-17234958D02*
X6656485Y-17100533D01*
X6656485Y-17100533D02*
X6623172Y-17000966D01*
X6623172Y-17000966D02*
X6565971Y-16934327D01*
X6565971Y-16934327D02*
X6483412Y-16898685D01*
X6483412Y-16898685D02*
X6405353Y-16891130D01*
X6405353Y-16891130D02*
X6328404Y-16897593D01*
X6328404Y-16897593D02*
X6258741Y-16913787D01*
X6258741Y-16913787D02*
X6235725Y-16923259D01*
X6235725Y-16923259D02*
X6195647Y-16943741D01*
X6195647Y-16943741D02*
X6172912Y-16945989D01*
X6172912Y-16945989D02*
X6155955Y-16923500D01*
X6155955Y-16923500D02*
X6133216Y-16869774D01*
X6133216Y-16869774D02*
X6130982Y-16864369D01*
X6130982Y-16864369D02*
X6111505Y-16812641D01*
X6111505Y-16812641D02*
X6111358Y-16783868D01*
X6111358Y-16783868D02*
X6132838Y-16762252D01*
X6132838Y-16762252D02*
X6147234Y-16752572D01*
X6147234Y-16752572D02*
X6227048Y-16718951D01*
X6227048Y-16718951D02*
X6331987Y-16700010D01*
X6331987Y-16700010D02*
X6447351Y-16696064D01*
X6447351Y-16696064D02*
X6558444Y-16707429D01*
X6558444Y-16707429D02*
X6558444Y-16707429D01*
G36*
X6558444Y-16707429D02*
G01*
X6650567Y-16734421D01*
X6664899Y-16741442D01*
X6724817Y-16788390D01*
X6785693Y-16859244D01*
X6835047Y-16937766D01*
X6856727Y-16990963D01*
X6868992Y-17057144D01*
X6877106Y-17143073D01*
X6879048Y-17203208D01*
X6879166Y-17335500D01*
X7154333Y-17335500D01*
X7154333Y-17504833D01*
X6879166Y-17504833D01*
X6879166Y-18859500D01*
X6646333Y-18859500D01*
X6646333Y-17504833D01*
X6201833Y-17504833D01*
X6201833Y-17335500D01*
X6667500Y-17335500D01*
X6667381Y-17234958D01*
X6656485Y-17100533D01*
X6623172Y-17000966D01*
X6565971Y-16934327D01*
X6483412Y-16898685D01*
X6405353Y-16891130D01*
X6328404Y-16897593D01*
X6258741Y-16913787D01*
X6235725Y-16923259D01*
X6195647Y-16943741D01*
X6172912Y-16945989D01*
X6155955Y-16923500D01*
X6133216Y-16869774D01*
X6130982Y-16864369D01*
X6111505Y-16812641D01*
X6111358Y-16783868D01*
X6132838Y-16762252D01*
X6147234Y-16752572D01*
X6227048Y-16718951D01*
X6331987Y-16700010D01*
X6447351Y-16696064D01*
X6558444Y-16707429D01*
G37*
X6558444Y-16707429D02*
X6650567Y-16734421D01*
X6664899Y-16741442D01*
X6724817Y-16788390D01*
X6785693Y-16859244D01*
X6835047Y-16937766D01*
X6856727Y-16990963D01*
X6868992Y-17057144D01*
X6877106Y-17143073D01*
X6879048Y-17203208D01*
X6879166Y-17335500D01*
X7154333Y-17335500D01*
X7154333Y-17504833D01*
X6879166Y-17504833D01*
X6879166Y-18859500D01*
X6646333Y-18859500D01*
X6646333Y-17504833D01*
X6201833Y-17504833D01*
X6201833Y-17335500D01*
X6667500Y-17335500D01*
X6667381Y-17234958D01*
X6656485Y-17100533D01*
X6623172Y-17000966D01*
X6565971Y-16934327D01*
X6483412Y-16898685D01*
X6405353Y-16891130D01*
X6328404Y-16897593D01*
X6258741Y-16913787D01*
X6235725Y-16923259D01*
X6195647Y-16943741D01*
X6172912Y-16945989D01*
X6155955Y-16923500D01*
X6133216Y-16869774D01*
X6130982Y-16864369D01*
X6111505Y-16812641D01*
X6111358Y-16783868D01*
X6132838Y-16762252D01*
X6147234Y-16752572D01*
X6227048Y-16718951D01*
X6331987Y-16700010D01*
X6447351Y-16696064D01*
X6558444Y-16707429D01*
X7683500Y-17776636D02*
X7684569Y-17951233D01*
X7684569Y-17951233D02*
X7687952Y-18088257D01*
X7687952Y-18088257D02*
X7693910Y-18192416D01*
X7693910Y-18192416D02*
X7702703Y-18268421D01*
X7702703Y-18268421D02*
X7713465Y-18317340D01*
X7713465Y-18317340D02*
X7771912Y-18449503D01*
X7771912Y-18449503D02*
X7857742Y-18549460D01*
X7857742Y-18549460D02*
X7970441Y-18616847D01*
X7970441Y-18616847D02*
X8109496Y-18651302D01*
X8109496Y-18651302D02*
X8191766Y-18656081D01*
X8191766Y-18656081D02*
X8329940Y-18642209D01*
X8329940Y-18642209D02*
X8439812Y-18598346D01*
X8439812Y-18598346D02*
X8524669Y-18522685D01*
X8524669Y-18522685D02*
X8572500Y-18446750D01*
X8572500Y-18446750D02*
X8589249Y-18411737D01*
X8589249Y-18411737D02*
X8602134Y-18378148D01*
X8602134Y-18378148D02*
X8611756Y-18339858D01*
X8611756Y-18339858D02*
X8618720Y-18290741D01*
X8618720Y-18290741D02*
X8623626Y-18224672D01*
X8623626Y-18224672D02*
X8627079Y-18135526D01*
X8627079Y-18135526D02*
X8629681Y-18017178D01*
X8629681Y-18017178D02*
X8632034Y-17863502D01*
X8632034Y-17863502D02*
X8632387Y-17838208D01*
X8632387Y-17838208D02*
X8639357Y-17335500D01*
X8639357Y-17335500D02*
X8847666Y-17335500D01*
X8847666Y-17335500D02*
X8847666Y-17850241D01*
X8847666Y-17850241D02*
X8846949Y-18040117D01*
X8846949Y-18040117D02*
X8844070Y-18193198D01*
X8844070Y-18193198D02*
X8837938Y-18315008D01*
X8837938Y-18315008D02*
X8827460Y-18411072D01*
X8827460Y-18411072D02*
X8811544Y-18486915D01*
X8811544Y-18486915D02*
X8789099Y-18548062D01*
X8789099Y-18548062D02*
X8759033Y-18600037D01*
X8759033Y-18600037D02*
X8720254Y-18648364D01*
X8720254Y-18648364D02*
X8682032Y-18688303D01*
X8682032Y-18688303D02*
X8577039Y-18773094D01*
X8577039Y-18773094D02*
X8459019Y-18827444D01*
X8459019Y-18827444D02*
X8320390Y-18853790D01*
X8320390Y-18853790D02*
X8163177Y-18855128D01*
X8163177Y-18855128D02*
X8017671Y-18837271D01*
X8017671Y-18837271D02*
X7900177Y-18798669D01*
X7900177Y-18798669D02*
X7799645Y-18734894D01*
X7799645Y-18734894D02*
X7749445Y-18689356D01*
X7749445Y-18689356D02*
X7683500Y-18623410D01*
X7683500Y-18623410D02*
X7683500Y-18859500D01*
X7683500Y-18859500D02*
X7581194Y-18859500D01*
X7581194Y-18859500D02*
X7518490Y-18856800D01*
X7518490Y-18856800D02*
X7474822Y-18849940D01*
X7474822Y-18849940D02*
X7464777Y-18845389D01*
X7464777Y-18845389D02*
X7461503Y-18821659D01*
X7461503Y-18821659D02*
X7458498Y-18760484D01*
X7458498Y-18760484D02*
X7455852Y-18666751D01*
X7455852Y-18666751D02*
X7453656Y-18545350D01*
X7453656Y-18545350D02*
X7452000Y-18401168D01*
X7452000Y-18401168D02*
X7450975Y-18239092D01*
X7450975Y-18239092D02*
X7450666Y-18083389D01*
X7450666Y-18083389D02*
X7450666Y-17335500D01*
X7450666Y-17335500D02*
X7683500Y-17335500D01*
X7683500Y-17335500D02*
X7683500Y-17776636D01*
X7683500Y-17776636D02*
X7683500Y-17776636D01*
G36*
X7683500Y-17776636D02*
G01*
X7684569Y-17951233D01*
X7687952Y-18088257D01*
X7693910Y-18192416D01*
X7702703Y-18268421D01*
X7713465Y-18317340D01*
X7771912Y-18449503D01*
X7857742Y-18549460D01*
X7970441Y-18616847D01*
X8109496Y-18651302D01*
X8191766Y-18656081D01*
X8329940Y-18642209D01*
X8439812Y-18598346D01*
X8524669Y-18522685D01*
X8572500Y-18446750D01*
X8589249Y-18411737D01*
X8602134Y-18378148D01*
X8611756Y-18339858D01*
X8618720Y-18290741D01*
X8623626Y-18224672D01*
X8627079Y-18135526D01*
X8629681Y-18017178D01*
X8632034Y-17863502D01*
X8632387Y-17838208D01*
X8639357Y-17335500D01*
X8847666Y-17335500D01*
X8847666Y-17850241D01*
X8846949Y-18040117D01*
X8844070Y-18193198D01*
X8837938Y-18315008D01*
X8827460Y-18411072D01*
X8811544Y-18486915D01*
X8789099Y-18548062D01*
X8759033Y-18600037D01*
X8720254Y-18648364D01*
X8682032Y-18688303D01*
X8577039Y-18773094D01*
X8459019Y-18827444D01*
X8320390Y-18853790D01*
X8163177Y-18855128D01*
X8017671Y-18837271D01*
X7900177Y-18798669D01*
X7799645Y-18734894D01*
X7749445Y-18689356D01*
X7683500Y-18623410D01*
X7683500Y-18859500D01*
X7581194Y-18859500D01*
X7518490Y-18856800D01*
X7474822Y-18849940D01*
X7464777Y-18845389D01*
X7461503Y-18821659D01*
X7458498Y-18760484D01*
X7455852Y-18666751D01*
X7453656Y-18545350D01*
X7452000Y-18401168D01*
X7450975Y-18239092D01*
X7450666Y-18083389D01*
X7450666Y-17335500D01*
X7683500Y-17335500D01*
X7683500Y-17776636D01*
G37*
X7683500Y-17776636D02*
X7684569Y-17951233D01*
X7687952Y-18088257D01*
X7693910Y-18192416D01*
X7702703Y-18268421D01*
X7713465Y-18317340D01*
X7771912Y-18449503D01*
X7857742Y-18549460D01*
X7970441Y-18616847D01*
X8109496Y-18651302D01*
X8191766Y-18656081D01*
X8329940Y-18642209D01*
X8439812Y-18598346D01*
X8524669Y-18522685D01*
X8572500Y-18446750D01*
X8589249Y-18411737D01*
X8602134Y-18378148D01*
X8611756Y-18339858D01*
X8618720Y-18290741D01*
X8623626Y-18224672D01*
X8627079Y-18135526D01*
X8629681Y-18017178D01*
X8632034Y-17863502D01*
X8632387Y-17838208D01*
X8639357Y-17335500D01*
X8847666Y-17335500D01*
X8847666Y-17850241D01*
X8846949Y-18040117D01*
X8844070Y-18193198D01*
X8837938Y-18315008D01*
X8827460Y-18411072D01*
X8811544Y-18486915D01*
X8789099Y-18548062D01*
X8759033Y-18600037D01*
X8720254Y-18648364D01*
X8682032Y-18688303D01*
X8577039Y-18773094D01*
X8459019Y-18827444D01*
X8320390Y-18853790D01*
X8163177Y-18855128D01*
X8017671Y-18837271D01*
X7900177Y-18798669D01*
X7799645Y-18734894D01*
X7749445Y-18689356D01*
X7683500Y-18623410D01*
X7683500Y-18859500D01*
X7581194Y-18859500D01*
X7518490Y-18856800D01*
X7474822Y-18849940D01*
X7464777Y-18845389D01*
X7461503Y-18821659D01*
X7458498Y-18760484D01*
X7455852Y-18666751D01*
X7453656Y-18545350D01*
X7452000Y-18401168D01*
X7450975Y-18239092D01*
X7450666Y-18083389D01*
X7450666Y-17335500D01*
X7683500Y-17335500D01*
X7683500Y-17776636D01*
X10773833Y-18859500D02*
X10562166Y-18859500D01*
X10562166Y-18859500D02*
X10562166Y-18596908D01*
X10562166Y-18596908D02*
X10482791Y-18673043D01*
X10482791Y-18673043D02*
X10384150Y-18754810D01*
X10384150Y-18754810D02*
X10282730Y-18808807D01*
X10282730Y-18808807D02*
X10166017Y-18839928D01*
X10166017Y-18839928D02*
X10022416Y-18853031D01*
X10022416Y-18853031D02*
X9897410Y-18853362D01*
X9897410Y-18853362D02*
X9802749Y-18843299D01*
X9802749Y-18843299D02*
X9738340Y-18825928D01*
X9738340Y-18825928D02*
X9573787Y-18746763D01*
X9573787Y-18746763D02*
X9441998Y-18640903D01*
X9441998Y-18640903D02*
X9343357Y-18508922D01*
X9343357Y-18508922D02*
X9278249Y-18351393D01*
X9278249Y-18351393D02*
X9247056Y-18168892D01*
X9247056Y-18168892D02*
X9244160Y-18086917D01*
X9244160Y-18086917D02*
X9247708Y-18044583D01*
X9247708Y-18044583D02*
X9466649Y-18044583D01*
X9466649Y-18044583D02*
X9474528Y-18204928D01*
X9474528Y-18204928D02*
X9517457Y-18348049D01*
X9517457Y-18348049D02*
X9592748Y-18469567D01*
X9592748Y-18469567D02*
X9697713Y-18565099D01*
X9697713Y-18565099D02*
X9824989Y-18628675D01*
X9824989Y-18628675D02*
X9931047Y-18658560D01*
X9931047Y-18658560D02*
X10023556Y-18665945D01*
X10023556Y-18665945D02*
X10122346Y-18651175D01*
X10122346Y-18651175D02*
X10182616Y-18634902D01*
X10182616Y-18634902D02*
X10308190Y-18576544D01*
X10308190Y-18576544D02*
X10413480Y-18485456D01*
X10413480Y-18485456D02*
X10493936Y-18368206D01*
X10493936Y-18368206D02*
X10545007Y-18231366D01*
X10545007Y-18231366D02*
X10562166Y-18086917D01*
X10562166Y-18086917D02*
X10555775Y-18014480D01*
X10555775Y-18014480D02*
X10539503Y-17928031D01*
X10539503Y-17928031D02*
X10528068Y-17884383D01*
X10528068Y-17884383D02*
X10471336Y-17763576D01*
X10471336Y-17763576D02*
X10382102Y-17658807D01*
X10382102Y-17658807D02*
X10269091Y-17576489D01*
X10269091Y-17576489D02*
X10141026Y-17523037D01*
X10141026Y-17523037D02*
X10011833Y-17504833D01*
X10011833Y-17504833D02*
X9908304Y-17519616D01*
X9908304Y-17519616D02*
X9795689Y-17559103D01*
X9795689Y-17559103D02*
X9692622Y-17616002D01*
X9692622Y-17616002D02*
X9655637Y-17644214D01*
X9655637Y-17644214D02*
X9562451Y-17743269D01*
X9562451Y-17743269D02*
X9502498Y-17856158D01*
X9502498Y-17856158D02*
X9471388Y-17992180D01*
X9471388Y-17992180D02*
X9466649Y-18044583D01*
X9466649Y-18044583D02*
X9247708Y-18044583D01*
X9247708Y-18044583D02*
X9260088Y-17896910D01*
X9260088Y-17896910D02*
X9308429Y-17733664D01*
X9308429Y-17733664D02*
X9390017Y-17595747D01*
X9390017Y-17595747D02*
X9505688Y-17481723D01*
X9505688Y-17481723D02*
X9647377Y-17394486D01*
X9647377Y-17394486D02*
X9718620Y-17361217D01*
X9718620Y-17361217D02*
X9777223Y-17340629D01*
X9777223Y-17340629D02*
X9837956Y-17329725D01*
X9837956Y-17329725D02*
X9915591Y-17325509D01*
X9915591Y-17325509D02*
X9990221Y-17324932D01*
X9990221Y-17324932D02*
X10144302Y-17333557D01*
X10144302Y-17333557D02*
X10269560Y-17361855D01*
X10269560Y-17361855D02*
X10376369Y-17413505D01*
X10376369Y-17413505D02*
X10475102Y-17492185D01*
X10475102Y-17492185D02*
X10482791Y-17499590D01*
X10482791Y-17499590D02*
X10562166Y-17576925D01*
X10562166Y-17576925D02*
X10562166Y-16700500D01*
X10562166Y-16700500D02*
X10773833Y-16700500D01*
X10773833Y-16700500D02*
X10773833Y-18859500D01*
X10773833Y-18859500D02*
X10773833Y-18859500D01*
G36*
X9308429Y-17733664D02*
G01*
X9390017Y-17595747D01*
X9505688Y-17481723D01*
X9647377Y-17394486D01*
X9718620Y-17361217D01*
X9777223Y-17340629D01*
X9837956Y-17329725D01*
X9915591Y-17325509D01*
X9990221Y-17324932D01*
X10144302Y-17333557D01*
X10269560Y-17361855D01*
X10376369Y-17413505D01*
X10475102Y-17492185D01*
X10482791Y-17499590D01*
X10562166Y-17576925D01*
X10562166Y-16700500D01*
X10773833Y-16700500D01*
X10773833Y-18859500D01*
X10562166Y-18859500D01*
X10562166Y-18596908D01*
X10482791Y-18673043D01*
X10384150Y-18754810D01*
X10282730Y-18808807D01*
X10166017Y-18839928D01*
X10022416Y-18853031D01*
X9897410Y-18853362D01*
X9802749Y-18843299D01*
X9738340Y-18825928D01*
X9573787Y-18746763D01*
X9441998Y-18640903D01*
X9343357Y-18508922D01*
X9278249Y-18351393D01*
X9247056Y-18168892D01*
X9244160Y-18086917D01*
X9247708Y-18044583D01*
X9466649Y-18044583D01*
X9474528Y-18204928D01*
X9517457Y-18348049D01*
X9592748Y-18469567D01*
X9697713Y-18565099D01*
X9824989Y-18628675D01*
X9931047Y-18658560D01*
X10023556Y-18665945D01*
X10122346Y-18651175D01*
X10182616Y-18634902D01*
X10308190Y-18576544D01*
X10413480Y-18485456D01*
X10493936Y-18368206D01*
X10545007Y-18231366D01*
X10562166Y-18086917D01*
X10555775Y-18014480D01*
X10539503Y-17928031D01*
X10528068Y-17884383D01*
X10471336Y-17763576D01*
X10382102Y-17658807D01*
X10269091Y-17576489D01*
X10141026Y-17523037D01*
X10011833Y-17504833D01*
X9908304Y-17519616D01*
X9795689Y-17559103D01*
X9692622Y-17616002D01*
X9655637Y-17644214D01*
X9562451Y-17743269D01*
X9502498Y-17856158D01*
X9471388Y-17992180D01*
X9466649Y-18044583D01*
X9247708Y-18044583D01*
X9260088Y-17896910D01*
X9308429Y-17733664D01*
G37*
X9308429Y-17733664D02*
X9390017Y-17595747D01*
X9505688Y-17481723D01*
X9647377Y-17394486D01*
X9718620Y-17361217D01*
X9777223Y-17340629D01*
X9837956Y-17329725D01*
X9915591Y-17325509D01*
X9990221Y-17324932D01*
X10144302Y-17333557D01*
X10269560Y-17361855D01*
X10376369Y-17413505D01*
X10475102Y-17492185D01*
X10482791Y-17499590D01*
X10562166Y-17576925D01*
X10562166Y-16700500D01*
X10773833Y-16700500D01*
X10773833Y-18859500D01*
X10562166Y-18859500D01*
X10562166Y-18596908D01*
X10482791Y-18673043D01*
X10384150Y-18754810D01*
X10282730Y-18808807D01*
X10166017Y-18839928D01*
X10022416Y-18853031D01*
X9897410Y-18853362D01*
X9802749Y-18843299D01*
X9738340Y-18825928D01*
X9573787Y-18746763D01*
X9441998Y-18640903D01*
X9343357Y-18508922D01*
X9278249Y-18351393D01*
X9247056Y-18168892D01*
X9244160Y-18086917D01*
X9247708Y-18044583D01*
X9466649Y-18044583D01*
X9474528Y-18204928D01*
X9517457Y-18348049D01*
X9592748Y-18469567D01*
X9697713Y-18565099D01*
X9824989Y-18628675D01*
X9931047Y-18658560D01*
X10023556Y-18665945D01*
X10122346Y-18651175D01*
X10182616Y-18634902D01*
X10308190Y-18576544D01*
X10413480Y-18485456D01*
X10493936Y-18368206D01*
X10545007Y-18231366D01*
X10562166Y-18086917D01*
X10555775Y-18014480D01*
X10539503Y-17928031D01*
X10528068Y-17884383D01*
X10471336Y-17763576D01*
X10382102Y-17658807D01*
X10269091Y-17576489D01*
X10141026Y-17523037D01*
X10011833Y-17504833D01*
X9908304Y-17519616D01*
X9795689Y-17559103D01*
X9692622Y-17616002D01*
X9655637Y-17644214D01*
X9562451Y-17743269D01*
X9502498Y-17856158D01*
X9471388Y-17992180D01*
X9466649Y-18044583D01*
X9247708Y-18044583D01*
X9260088Y-17896910D01*
X9308429Y-17733664D01*
X-9259731Y-16710033D02*
X-9195955Y-16752454D01*
X-9195955Y-16752454D02*
X-9155333Y-16815734D01*
X-9155333Y-16815734D02*
X-9149525Y-16880287D01*
X-9149525Y-16880287D02*
X-9171862Y-16938944D01*
X-9171862Y-16938944D02*
X-9215675Y-16984533D01*
X-9215675Y-16984533D02*
X-9274295Y-17009882D01*
X-9274295Y-17009882D02*
X-9341054Y-17007819D01*
X-9341054Y-17007819D02*
X-9403626Y-16975785D01*
X-9403626Y-16975785D02*
X-9451503Y-16915371D01*
X-9451503Y-16915371D02*
X-9463099Y-16845756D01*
X-9463099Y-16845756D02*
X-9438310Y-16778675D01*
X-9438310Y-16778675D02*
X-9405729Y-16744369D01*
X-9405729Y-16744369D02*
X-9331316Y-16706191D01*
X-9331316Y-16706191D02*
X-9259731Y-16710033D01*
X-9259731Y-16710033D02*
X-9259731Y-16710033D01*
G36*
X-9259731Y-16710033D02*
G01*
X-9195955Y-16752454D01*
X-9155333Y-16815734D01*
X-9149525Y-16880287D01*
X-9171862Y-16938944D01*
X-9215675Y-16984533D01*
X-9274295Y-17009882D01*
X-9341054Y-17007819D01*
X-9403626Y-16975785D01*
X-9451503Y-16915371D01*
X-9463099Y-16845756D01*
X-9438310Y-16778675D01*
X-9405729Y-16744369D01*
X-9331316Y-16706191D01*
X-9259731Y-16710033D01*
G37*
X-9259731Y-16710033D02*
X-9195955Y-16752454D01*
X-9155333Y-16815734D01*
X-9149525Y-16880287D01*
X-9171862Y-16938944D01*
X-9215675Y-16984533D01*
X-9274295Y-17009882D01*
X-9341054Y-17007819D01*
X-9403626Y-16975785D01*
X-9451503Y-16915371D01*
X-9463099Y-16845756D01*
X-9438310Y-16778675D01*
X-9405729Y-16744369D01*
X-9331316Y-16706191D01*
X-9259731Y-16710033D01*
X917120Y-760620D02*
X972957Y-792328D01*
X972957Y-792328D02*
X1005145Y-841026D01*
X1005145Y-841026D02*
X1018134Y-915947D01*
X1018134Y-915947D02*
X1018715Y-971344D01*
X1018715Y-971344D02*
X994265Y-1146091D01*
X994265Y-1146091D02*
X931592Y-1312740D01*
X931592Y-1312740D02*
X834697Y-1466209D01*
X834697Y-1466209D02*
X707581Y-1601413D01*
X707581Y-1601413D02*
X554246Y-1713269D01*
X554246Y-1713269D02*
X378695Y-1796696D01*
X378695Y-1796696D02*
X365098Y-1801543D01*
X365098Y-1801543D02*
X236256Y-1833727D01*
X236256Y-1833727D02*
X86799Y-1851222D01*
X86799Y-1851222D02*
X-65457Y-1853178D01*
X-65457Y-1853178D02*
X-202699Y-1838742D01*
X-202699Y-1838742D02*
X-240579Y-1830510D01*
X-240579Y-1830510D02*
X-425658Y-1764207D01*
X-425658Y-1764207D02*
X-596069Y-1665365D01*
X-596069Y-1665365D02*
X-743484Y-1539855D01*
X-743484Y-1539855D02*
X-859026Y-1394419D01*
X-859026Y-1394419D02*
X-913626Y-1290269D01*
X-913626Y-1290269D02*
X-955879Y-1174615D01*
X-955879Y-1174615D02*
X-983669Y-1057900D01*
X-983669Y-1057900D02*
X-994882Y-950567D01*
X-994882Y-950567D02*
X-987401Y-863058D01*
X-987401Y-863058D02*
X-974114Y-826335D01*
X-974114Y-826335D02*
X-927824Y-780745D01*
X-927824Y-780745D02*
X-859423Y-759898D01*
X-859423Y-759898D02*
X-783537Y-767507D01*
X-783537Y-767507D02*
X-766544Y-773679D01*
X-766544Y-773679D02*
X-731362Y-791182D01*
X-731362Y-791182D02*
X-707889Y-814375D01*
X-707889Y-814375D02*
X-691489Y-852997D01*
X-691489Y-852997D02*
X-677523Y-916790D01*
X-677523Y-916790D02*
X-666297Y-984250D01*
X-666297Y-984250D02*
X-621353Y-1136704D01*
X-621353Y-1136704D02*
X-539344Y-1271037D01*
X-539344Y-1271037D02*
X-422946Y-1383715D01*
X-422946Y-1383715D02*
X-310884Y-1453844D01*
X-310884Y-1453844D02*
X-231289Y-1487864D01*
X-231289Y-1487864D02*
X-145649Y-1508267D01*
X-145649Y-1508267D02*
X-36499Y-1519124D01*
X-36499Y-1519124D02*
X-28937Y-1519554D01*
X-28937Y-1519554D02*
X130225Y-1517021D01*
X130225Y-1517021D02*
X265511Y-1487879D01*
X265511Y-1487879D02*
X388426Y-1428761D01*
X388426Y-1428761D02*
X463776Y-1375333D01*
X463776Y-1375333D02*
X538610Y-1301202D01*
X538610Y-1301202D02*
X606469Y-1207322D01*
X606469Y-1207322D02*
X660139Y-1106436D01*
X660139Y-1106436D02*
X692407Y-1011289D01*
X692407Y-1011289D02*
X698500Y-960698D01*
X698500Y-960698D02*
X713329Y-870170D01*
X713329Y-870170D02*
X753435Y-801153D01*
X753435Y-801153D02*
X812245Y-759665D01*
X812245Y-759665D02*
X883184Y-751721D01*
X883184Y-751721D02*
X917120Y-760620D01*
X917120Y-760620D02*
X917120Y-760620D01*
G36*
X917120Y-760620D02*
G01*
X972957Y-792328D01*
X1005145Y-841026D01*
X1018134Y-915947D01*
X1018715Y-971344D01*
X994265Y-1146091D01*
X931592Y-1312740D01*
X834697Y-1466209D01*
X707581Y-1601413D01*
X554246Y-1713269D01*
X378695Y-1796696D01*
X365098Y-1801543D01*
X236256Y-1833727D01*
X86799Y-1851222D01*
X-65457Y-1853178D01*
X-202699Y-1838742D01*
X-240579Y-1830510D01*
X-425658Y-1764207D01*
X-596069Y-1665365D01*
X-743484Y-1539855D01*
X-859026Y-1394419D01*
X-913626Y-1290269D01*
X-955879Y-1174615D01*
X-983669Y-1057900D01*
X-994882Y-950567D01*
X-987401Y-863058D01*
X-974114Y-826335D01*
X-927824Y-780745D01*
X-859423Y-759898D01*
X-783537Y-767507D01*
X-766544Y-773679D01*
X-731362Y-791182D01*
X-707889Y-814375D01*
X-691489Y-852997D01*
X-677523Y-916790D01*
X-666297Y-984250D01*
X-621353Y-1136704D01*
X-539344Y-1271037D01*
X-422946Y-1383715D01*
X-310884Y-1453844D01*
X-231289Y-1487864D01*
X-145649Y-1508267D01*
X-36499Y-1519124D01*
X-28937Y-1519554D01*
X130225Y-1517021D01*
X265511Y-1487879D01*
X388426Y-1428761D01*
X463776Y-1375333D01*
X538610Y-1301202D01*
X606469Y-1207322D01*
X660139Y-1106436D01*
X692407Y-1011289D01*
X698500Y-960698D01*
X713329Y-870170D01*
X753435Y-801153D01*
X812245Y-759665D01*
X883184Y-751721D01*
X917120Y-760620D01*
G37*
X917120Y-760620D02*
X972957Y-792328D01*
X1005145Y-841026D01*
X1018134Y-915947D01*
X1018715Y-971344D01*
X994265Y-1146091D01*
X931592Y-1312740D01*
X834697Y-1466209D01*
X707581Y-1601413D01*
X554246Y-1713269D01*
X378695Y-1796696D01*
X365098Y-1801543D01*
X236256Y-1833727D01*
X86799Y-1851222D01*
X-65457Y-1853178D01*
X-202699Y-1838742D01*
X-240579Y-1830510D01*
X-425658Y-1764207D01*
X-596069Y-1665365D01*
X-743484Y-1539855D01*
X-859026Y-1394419D01*
X-913626Y-1290269D01*
X-955879Y-1174615D01*
X-983669Y-1057900D01*
X-994882Y-950567D01*
X-987401Y-863058D01*
X-974114Y-826335D01*
X-927824Y-780745D01*
X-859423Y-759898D01*
X-783537Y-767507D01*
X-766544Y-773679D01*
X-731362Y-791182D01*
X-707889Y-814375D01*
X-691489Y-852997D01*
X-677523Y-916790D01*
X-666297Y-984250D01*
X-621353Y-1136704D01*
X-539344Y-1271037D01*
X-422946Y-1383715D01*
X-310884Y-1453844D01*
X-231289Y-1487864D01*
X-145649Y-1508267D01*
X-36499Y-1519124D01*
X-28937Y-1519554D01*
X130225Y-1517021D01*
X265511Y-1487879D01*
X388426Y-1428761D01*
X463776Y-1375333D01*
X538610Y-1301202D01*
X606469Y-1207322D01*
X660139Y-1106436D01*
X692407Y-1011289D01*
X698500Y-960698D01*
X713329Y-870170D01*
X753435Y-801153D01*
X812245Y-759665D01*
X883184Y-751721D01*
X917120Y-760620D01*
X-918683Y237727D02*
X-910527Y235442D01*
X-910527Y235442D02*
X-827718Y191615D01*
X-827718Y191615D02*
X-770838Y123644D01*
X-770838Y123644D02*
X-740440Y40877D01*
X-740440Y40877D02*
X-737075Y-47338D01*
X-737075Y-47338D02*
X-761297Y-131653D01*
X-761297Y-131653D02*
X-813657Y-202721D01*
X-813657Y-202721D02*
X-882064Y-246304D01*
X-882064Y-246304D02*
X-957932Y-270295D01*
X-957932Y-270295D02*
X-1024060Y-268388D01*
X-1024060Y-268388D02*
X-1094959Y-243785D01*
X-1094959Y-243785D02*
X-1166039Y-192557D01*
X-1166039Y-192557D02*
X-1220428Y-115693D01*
X-1220428Y-115693D02*
X-1247500Y-29450D01*
X-1247500Y-29450D02*
X-1248755Y-8422D01*
X-1248755Y-8422D02*
X-1229567Y82317D01*
X-1229567Y82317D02*
X-1177851Y158873D01*
X-1177851Y158873D02*
X-1102722Y214675D01*
X-1102722Y214675D02*
X-1013294Y243150D01*
X-1013294Y243150D02*
X-918683Y237727D01*
X-918683Y237727D02*
X-918683Y237727D01*
G36*
X-918683Y237727D02*
G01*
X-910527Y235442D01*
X-827718Y191615D01*
X-770838Y123644D01*
X-740440Y40877D01*
X-737075Y-47338D01*
X-761297Y-131653D01*
X-813657Y-202721D01*
X-882064Y-246304D01*
X-957932Y-270295D01*
X-1024060Y-268388D01*
X-1094959Y-243785D01*
X-1166039Y-192557D01*
X-1220428Y-115693D01*
X-1247500Y-29450D01*
X-1248755Y-8422D01*
X-1229567Y82317D01*
X-1177851Y158873D01*
X-1102722Y214675D01*
X-1013294Y243150D01*
X-918683Y237727D01*
G37*
X-918683Y237727D02*
X-910527Y235442D01*
X-827718Y191615D01*
X-770838Y123644D01*
X-740440Y40877D01*
X-737075Y-47338D01*
X-761297Y-131653D01*
X-813657Y-202721D01*
X-882064Y-246304D01*
X-957932Y-270295D01*
X-1024060Y-268388D01*
X-1094959Y-243785D01*
X-1166039Y-192557D01*
X-1220428Y-115693D01*
X-1247500Y-29450D01*
X-1248755Y-8422D01*
X-1229567Y82317D01*
X-1177851Y158873D01*
X-1102722Y214675D01*
X-1013294Y243150D01*
X-918683Y237727D01*
X1085466Y233143D02*
X1094335Y229930D01*
X1094335Y229930D02*
X1172040Y181803D01*
X1172040Y181803D02*
X1232699Y109585D01*
X1232699Y109585D02*
X1266291Y26876D01*
X1266291Y26876D02*
X1269920Y-8422D01*
X1269920Y-8422D02*
X1250856Y-95915D01*
X1250856Y-95915D02*
X1200798Y-176826D01*
X1200798Y-176826D02*
X1130136Y-235660D01*
X1130136Y-235660D02*
X1111466Y-244690D01*
X1111466Y-244690D02*
X1034056Y-269728D01*
X1034056Y-269728D02*
X968572Y-269167D01*
X968572Y-269167D02*
X898575Y-245411D01*
X898575Y-245411D02*
X821289Y-190110D01*
X821289Y-190110D02*
X773568Y-107030D01*
X773568Y-107030D02*
X758472Y-9089D01*
X758472Y-9089D02*
X776426Y91853D01*
X776426Y91853D02*
X825415Y171750D01*
X825415Y171750D02*
X898126Y225400D01*
X898126Y225400D02*
X987247Y247599D01*
X987247Y247599D02*
X1085466Y233143D01*
X1085466Y233143D02*
X1085466Y233143D01*
G36*
X1085466Y233143D02*
G01*
X1094335Y229930D01*
X1172040Y181803D01*
X1232699Y109585D01*
X1266291Y26876D01*
X1269920Y-8422D01*
X1250856Y-95915D01*
X1200798Y-176826D01*
X1130136Y-235660D01*
X1111466Y-244690D01*
X1034056Y-269728D01*
X968572Y-269167D01*
X898575Y-245411D01*
X821289Y-190110D01*
X773568Y-107030D01*
X758472Y-9089D01*
X776426Y91853D01*
X825415Y171750D01*
X898126Y225400D01*
X987247Y247599D01*
X1085466Y233143D01*
G37*
X1085466Y233143D02*
X1094335Y229930D01*
X1172040Y181803D01*
X1232699Y109585D01*
X1266291Y26876D01*
X1269920Y-8422D01*
X1250856Y-95915D01*
X1200798Y-176826D01*
X1130136Y-235660D01*
X1111466Y-244690D01*
X1034056Y-269728D01*
X968572Y-269167D01*
X898575Y-245411D01*
X821289Y-190110D01*
X773568Y-107030D01*
X758472Y-9089D01*
X776426Y91853D01*
X825415Y171750D01*
X898126Y225400D01*
X987247Y247599D01*
X1085466Y233143D01*
X-3228553Y17482640D02*
X-3161610Y17332273D01*
X-3161610Y17332273D02*
X-3099836Y17194726D01*
X-3099836Y17194726D02*
X-3045376Y17074684D01*
X-3045376Y17074684D02*
X-3000376Y16976829D01*
X-3000376Y16976829D02*
X-2966982Y16905845D01*
X-2966982Y16905845D02*
X-2947340Y16866416D01*
X-2947340Y16866416D02*
X-2943219Y16859900D01*
X-2943219Y16859900D02*
X-2931926Y16876581D01*
X-2931926Y16876581D02*
X-2905839Y16927563D01*
X-2905839Y16927563D02*
X-2867069Y17008336D01*
X-2867069Y17008336D02*
X-2817725Y17114388D01*
X-2817725Y17114388D02*
X-2759916Y17241208D01*
X-2759916Y17241208D02*
X-2695754Y17384286D01*
X-2695754Y17384286D02*
X-2655860Y17474301D01*
X-2655860Y17474301D02*
X-2381250Y18096581D01*
X-2381250Y18096581D02*
X-2270125Y18097041D01*
X-2270125Y18097041D02*
X-2208045Y18093766D01*
X-2208045Y18093766D02*
X-2167711Y18084863D01*
X-2167711Y18084863D02*
X-2159000Y18076942D01*
X-2159000Y18076942D02*
X-2167382Y18053621D01*
X-2167382Y18053621D02*
X-2191265Y17996052D01*
X-2191265Y17996052D02*
X-2228754Y17908583D01*
X-2228754Y17908583D02*
X-2277957Y17795561D01*
X-2277957Y17795561D02*
X-2336977Y17661334D01*
X-2336977Y17661334D02*
X-2403923Y17510248D01*
X-2403923Y17510248D02*
X-2476899Y17346651D01*
X-2476899Y17346651D02*
X-2487720Y17322480D01*
X-2487720Y17322480D02*
X-2573981Y17130180D01*
X-2573981Y17130180D02*
X-2644414Y16972382D01*
X-2644414Y16972382D02*
X-2700018Y16844742D01*
X-2700018Y16844742D02*
X-2741791Y16742916D01*
X-2741791Y16742916D02*
X-2770733Y16662561D01*
X-2770733Y16662561D02*
X-2787840Y16599333D01*
X-2787840Y16599333D02*
X-2794113Y16548887D01*
X-2794113Y16548887D02*
X-2790549Y16506881D01*
X-2790549Y16506881D02*
X-2778147Y16468970D01*
X-2778147Y16468970D02*
X-2757906Y16430810D01*
X-2757906Y16430810D02*
X-2730824Y16388059D01*
X-2730824Y16388059D02*
X-2709969Y16355661D01*
X-2709969Y16355661D02*
X-2631239Y16261202D01*
X-2631239Y16261202D02*
X-2540851Y16207427D01*
X-2540851Y16207427D02*
X-2439155Y16194425D01*
X-2439155Y16194425D02*
X-2326498Y16222285D01*
X-2326498Y16222285D02*
X-2277450Y16245417D01*
X-2277450Y16245417D02*
X-2220592Y16274975D01*
X-2220592Y16274975D02*
X-2181217Y16294182D01*
X-2181217Y16294182D02*
X-2170555Y16298333D01*
X-2170555Y16298333D02*
X-2156379Y16281922D01*
X-2156379Y16281922D02*
X-2129402Y16240627D01*
X-2129402Y16240627D02*
X-2116745Y16219629D01*
X-2116745Y16219629D02*
X-2070309Y16140925D01*
X-2070309Y16140925D02*
X-2127540Y16095290D01*
X-2127540Y16095290D02*
X-2217263Y16045691D01*
X-2217263Y16045691D02*
X-2331183Y16013992D01*
X-2331183Y16013992D02*
X-2454296Y16002120D01*
X-2454296Y16002120D02*
X-2571596Y16012003D01*
X-2571596Y16012003D02*
X-2635250Y16030069D01*
X-2635250Y16030069D02*
X-2745077Y16087623D01*
X-2745077Y16087623D02*
X-2831506Y16169287D01*
X-2831506Y16169287D02*
X-2875724Y16231248D01*
X-2875724Y16231248D02*
X-2894799Y16266858D01*
X-2894799Y16266858D02*
X-2928924Y16336446D01*
X-2928924Y16336446D02*
X-2975952Y16435305D01*
X-2975952Y16435305D02*
X-3033736Y16558729D01*
X-3033736Y16558729D02*
X-3100125Y16702014D01*
X-3100125Y16702014D02*
X-3172974Y16860454D01*
X-3172974Y16860454D02*
X-3250133Y17029344D01*
X-3250133Y17029344D02*
X-3329454Y17203978D01*
X-3329454Y17203978D02*
X-3408790Y17379651D01*
X-3408790Y17379651D02*
X-3485992Y17551657D01*
X-3485992Y17551657D02*
X-3558912Y17715291D01*
X-3558912Y17715291D02*
X-3625403Y17865848D01*
X-3625403Y17865848D02*
X-3683315Y17998622D01*
X-3683315Y17998622D02*
X-3696297Y18028708D01*
X-3696297Y18028708D02*
X-3725902Y18097500D01*
X-3725902Y18097500D02*
X-3501137Y18097500D01*
X-3501137Y18097500D02*
X-3228553Y17482640D01*
X-3228553Y17482640D02*
X-3228553Y17482640D01*
G36*
X-3228553Y17482640D02*
G01*
X-3161610Y17332273D01*
X-3099836Y17194726D01*
X-3045376Y17074684D01*
X-3000376Y16976829D01*
X-2966982Y16905845D01*
X-2947340Y16866416D01*
X-2943219Y16859900D01*
X-2931926Y16876581D01*
X-2905839Y16927563D01*
X-2867069Y17008336D01*
X-2817725Y17114388D01*
X-2759916Y17241208D01*
X-2695754Y17384286D01*
X-2655860Y17474301D01*
X-2381250Y18096581D01*
X-2270125Y18097041D01*
X-2208045Y18093766D01*
X-2167711Y18084863D01*
X-2159000Y18076942D01*
X-2167382Y18053621D01*
X-2191265Y17996052D01*
X-2228754Y17908583D01*
X-2277957Y17795561D01*
X-2336977Y17661334D01*
X-2403923Y17510248D01*
X-2476899Y17346651D01*
X-2487720Y17322480D01*
X-2573981Y17130180D01*
X-2644414Y16972382D01*
X-2700018Y16844742D01*
X-2741791Y16742916D01*
X-2770733Y16662561D01*
X-2787840Y16599333D01*
X-2794113Y16548887D01*
X-2790549Y16506881D01*
X-2778147Y16468970D01*
X-2757906Y16430810D01*
X-2730824Y16388059D01*
X-2709969Y16355661D01*
X-2631239Y16261202D01*
X-2540851Y16207427D01*
X-2439155Y16194425D01*
X-2326498Y16222285D01*
X-2277450Y16245417D01*
X-2220592Y16274975D01*
X-2181217Y16294182D01*
X-2170555Y16298333D01*
X-2156379Y16281922D01*
X-2129402Y16240627D01*
X-2116745Y16219629D01*
X-2070309Y16140925D01*
X-2127540Y16095290D01*
X-2217263Y16045691D01*
X-2331183Y16013992D01*
X-2454296Y16002120D01*
X-2571596Y16012003D01*
X-2635250Y16030069D01*
X-2745077Y16087623D01*
X-2831506Y16169287D01*
X-2875724Y16231248D01*
X-2894799Y16266858D01*
X-2928924Y16336446D01*
X-2975952Y16435305D01*
X-3033736Y16558729D01*
X-3100125Y16702014D01*
X-3172974Y16860454D01*
X-3250133Y17029344D01*
X-3329454Y17203978D01*
X-3408790Y17379651D01*
X-3485992Y17551657D01*
X-3558912Y17715291D01*
X-3625403Y17865848D01*
X-3683315Y17998622D01*
X-3696297Y18028708D01*
X-3725902Y18097500D01*
X-3501137Y18097500D01*
X-3228553Y17482640D01*
G37*
X-3228553Y17482640D02*
X-3161610Y17332273D01*
X-3099836Y17194726D01*
X-3045376Y17074684D01*
X-3000376Y16976829D01*
X-2966982Y16905845D01*
X-2947340Y16866416D01*
X-2943219Y16859900D01*
X-2931926Y16876581D01*
X-2905839Y16927563D01*
X-2867069Y17008336D01*
X-2817725Y17114388D01*
X-2759916Y17241208D01*
X-2695754Y17384286D01*
X-2655860Y17474301D01*
X-2381250Y18096581D01*
X-2270125Y18097041D01*
X-2208045Y18093766D01*
X-2167711Y18084863D01*
X-2159000Y18076942D01*
X-2167382Y18053621D01*
X-2191265Y17996052D01*
X-2228754Y17908583D01*
X-2277957Y17795561D01*
X-2336977Y17661334D01*
X-2403923Y17510248D01*
X-2476899Y17346651D01*
X-2487720Y17322480D01*
X-2573981Y17130180D01*
X-2644414Y16972382D01*
X-2700018Y16844742D01*
X-2741791Y16742916D01*
X-2770733Y16662561D01*
X-2787840Y16599333D01*
X-2794113Y16548887D01*
X-2790549Y16506881D01*
X-2778147Y16468970D01*
X-2757906Y16430810D01*
X-2730824Y16388059D01*
X-2709969Y16355661D01*
X-2631239Y16261202D01*
X-2540851Y16207427D01*
X-2439155Y16194425D01*
X-2326498Y16222285D01*
X-2277450Y16245417D01*
X-2220592Y16274975D01*
X-2181217Y16294182D01*
X-2170555Y16298333D01*
X-2156379Y16281922D01*
X-2129402Y16240627D01*
X-2116745Y16219629D01*
X-2070309Y16140925D01*
X-2127540Y16095290D01*
X-2217263Y16045691D01*
X-2331183Y16013992D01*
X-2454296Y16002120D01*
X-2571596Y16012003D01*
X-2635250Y16030069D01*
X-2745077Y16087623D01*
X-2831506Y16169287D01*
X-2875724Y16231248D01*
X-2894799Y16266858D01*
X-2928924Y16336446D01*
X-2975952Y16435305D01*
X-3033736Y16558729D01*
X-3100125Y16702014D01*
X-3172974Y16860454D01*
X-3250133Y17029344D01*
X-3329454Y17203978D01*
X-3408790Y17379651D01*
X-3485992Y17551657D01*
X-3558912Y17715291D01*
X-3625403Y17865848D01*
X-3683315Y17998622D01*
X-3696297Y18028708D01*
X-3725902Y18097500D01*
X-3501137Y18097500D01*
X-3228553Y17482640D01*
X-13197568Y18083880D02*
X-13050008Y18044486D01*
X-13050008Y18044486D02*
X-12932217Y17980903D01*
X-12932217Y17980903D02*
X-12846259Y17894968D01*
X-12846259Y17894968D02*
X-12794198Y17788520D01*
X-12794198Y17788520D02*
X-12778095Y17663394D01*
X-12778095Y17663394D02*
X-12787337Y17575832D01*
X-12787337Y17575832D02*
X-12828760Y17465257D01*
X-12828760Y17465257D02*
X-12905592Y17373455D01*
X-12905592Y17373455D02*
X-12982219Y17321573D01*
X-12982219Y17321573D02*
X-13024809Y17305616D01*
X-13024809Y17305616D02*
X-13099212Y17283965D01*
X-13099212Y17283965D02*
X-13195726Y17259219D01*
X-13195726Y17259219D02*
X-13304651Y17233977D01*
X-13304651Y17233977D02*
X-13329261Y17228627D01*
X-13329261Y17228627D02*
X-13438596Y17203572D01*
X-13438596Y17203572D02*
X-13536624Y17178195D01*
X-13536624Y17178195D02*
X-13613996Y17155121D01*
X-13613996Y17155121D02*
X-13661365Y17136976D01*
X-13661365Y17136976D02*
X-13667112Y17133724D01*
X-13667112Y17133724D02*
X-13722255Y17075920D01*
X-13722255Y17075920D02*
X-13748894Y17001438D01*
X-13748894Y17001438D02*
X-13746073Y16944767D01*
X-13746073Y16944767D02*
X-13706438Y16868295D01*
X-13706438Y16868295D02*
X-13634526Y16810571D01*
X-13634526Y16810571D02*
X-13536372Y16772339D01*
X-13536372Y16772339D02*
X-13418012Y16754343D01*
X-13418012Y16754343D02*
X-13285481Y16757324D01*
X-13285481Y16757324D02*
X-13144817Y16782027D01*
X-13144817Y16782027D02*
X-13002053Y16829195D01*
X-13002053Y16829195D02*
X-12959539Y16847920D01*
X-12959539Y16847920D02*
X-12891510Y16879386D01*
X-12891510Y16879386D02*
X-12840491Y16902288D01*
X-12840491Y16902288D02*
X-12816624Y16912083D01*
X-12816624Y16912083D02*
X-12816131Y16912167D01*
X-12816131Y16912167D02*
X-12801493Y16895581D01*
X-12801493Y16895581D02*
X-12776498Y16855577D01*
X-12776498Y16855577D02*
X-12749346Y16806788D01*
X-12749346Y16806788D02*
X-12728237Y16763845D01*
X-12728237Y16763845D02*
X-12721167Y16742705D01*
X-12721167Y16742705D02*
X-12739794Y16721530D01*
X-12739794Y16721530D02*
X-12789168Y16692242D01*
X-12789168Y16692242D02*
X-12859531Y16659028D01*
X-12859531Y16659028D02*
X-12941122Y16626077D01*
X-12941122Y16626077D02*
X-13024184Y16597575D01*
X-13024184Y16597575D02*
X-13098956Y16577712D01*
X-13098956Y16577712D02*
X-13111346Y16575274D01*
X-13111346Y16575274D02*
X-13284425Y16556364D01*
X-13284425Y16556364D02*
X-13459255Y16559929D01*
X-13459255Y16559929D02*
X-13604376Y16582740D01*
X-13604376Y16582740D02*
X-13745181Y16633678D01*
X-13745181Y16633678D02*
X-13853005Y16709495D01*
X-13853005Y16709495D02*
X-13926585Y16808735D01*
X-13926585Y16808735D02*
X-13964653Y16929943D01*
X-13964653Y16929943D02*
X-13970000Y17003443D01*
X-13970000Y17003443D02*
X-13959506Y17103519D01*
X-13959506Y17103519D02*
X-13925602Y17186453D01*
X-13925602Y17186453D02*
X-13864658Y17255074D01*
X-13864658Y17255074D02*
X-13773046Y17312210D01*
X-13773046Y17312210D02*
X-13647134Y17360692D01*
X-13647134Y17360692D02*
X-13483293Y17403348D01*
X-13483293Y17403348D02*
X-13446840Y17411182D01*
X-13446840Y17411182D02*
X-13314961Y17439711D01*
X-13314961Y17439711D02*
X-13217786Y17463684D01*
X-13217786Y17463684D02*
X-13148296Y17485714D01*
X-13148296Y17485714D02*
X-13099473Y17508415D01*
X-13099473Y17508415D02*
X-13064299Y17534402D01*
X-13064299Y17534402D02*
X-13037950Y17563470D01*
X-13037950Y17563470D02*
X-13001479Y17639796D01*
X-13001479Y17639796D02*
X-13006063Y17720275D01*
X-13006063Y17720275D02*
X-13050796Y17799143D01*
X-13050796Y17799143D02*
X-13125932Y17857480D01*
X-13125932Y17857480D02*
X-13229055Y17893529D01*
X-13229055Y17893529D02*
X-13352246Y17907423D01*
X-13352246Y17907423D02*
X-13487584Y17899297D01*
X-13487584Y17899297D02*
X-13627150Y17869285D01*
X-13627150Y17869285D02*
X-13763024Y17817521D01*
X-13763024Y17817521D02*
X-13822758Y17786064D01*
X-13822758Y17786064D02*
X-13837662Y17799314D01*
X-13837662Y17799314D02*
X-13863017Y17840518D01*
X-13863017Y17840518D02*
X-13879791Y17873088D01*
X-13879791Y17873088D02*
X-13925316Y17966793D01*
X-13925316Y17966793D02*
X-13848029Y18003467D01*
X-13848029Y18003467D02*
X-13687383Y18061462D01*
X-13687383Y18061462D02*
X-13505328Y18091730D01*
X-13505328Y18091730D02*
X-13372836Y18097249D01*
X-13372836Y18097249D02*
X-13197568Y18083880D01*
X-13197568Y18083880D02*
X-13197568Y18083880D01*
G36*
X-13197568Y18083880D02*
G01*
X-13050008Y18044486D01*
X-12932217Y17980903D01*
X-12846259Y17894968D01*
X-12794198Y17788520D01*
X-12778095Y17663394D01*
X-12787337Y17575832D01*
X-12828760Y17465257D01*
X-12905592Y17373455D01*
X-12982219Y17321573D01*
X-13024809Y17305616D01*
X-13099212Y17283965D01*
X-13195726Y17259219D01*
X-13304651Y17233977D01*
X-13329261Y17228627D01*
X-13438596Y17203572D01*
X-13536624Y17178195D01*
X-13613996Y17155121D01*
X-13661365Y17136976D01*
X-13667112Y17133724D01*
X-13722255Y17075920D01*
X-13748894Y17001438D01*
X-13746073Y16944767D01*
X-13706438Y16868295D01*
X-13634526Y16810571D01*
X-13536372Y16772339D01*
X-13418012Y16754343D01*
X-13285481Y16757324D01*
X-13144817Y16782027D01*
X-13002053Y16829195D01*
X-12959539Y16847920D01*
X-12891510Y16879386D01*
X-12840491Y16902288D01*
X-12816624Y16912083D01*
X-12816131Y16912167D01*
X-12801493Y16895581D01*
X-12776498Y16855577D01*
X-12749346Y16806788D01*
X-12728237Y16763845D01*
X-12721167Y16742705D01*
X-12739794Y16721530D01*
X-12789168Y16692242D01*
X-12859531Y16659028D01*
X-12941122Y16626077D01*
X-13024184Y16597575D01*
X-13098956Y16577712D01*
X-13111346Y16575274D01*
X-13284425Y16556364D01*
X-13459255Y16559929D01*
X-13604376Y16582740D01*
X-13745181Y16633678D01*
X-13853005Y16709495D01*
X-13926585Y16808735D01*
X-13964653Y16929943D01*
X-13970000Y17003443D01*
X-13959506Y17103519D01*
X-13925602Y17186453D01*
X-13864658Y17255074D01*
X-13773046Y17312210D01*
X-13647134Y17360692D01*
X-13483293Y17403348D01*
X-13446840Y17411182D01*
X-13314961Y17439711D01*
X-13217786Y17463684D01*
X-13148296Y17485714D01*
X-13099473Y17508415D01*
X-13064299Y17534402D01*
X-13037950Y17563470D01*
X-13001479Y17639796D01*
X-13006063Y17720275D01*
X-13050796Y17799143D01*
X-13125932Y17857480D01*
X-13229055Y17893529D01*
X-13352246Y17907423D01*
X-13487584Y17899297D01*
X-13627150Y17869285D01*
X-13763024Y17817521D01*
X-13822758Y17786064D01*
X-13837662Y17799314D01*
X-13863017Y17840518D01*
X-13879791Y17873088D01*
X-13925316Y17966793D01*
X-13848029Y18003467D01*
X-13687383Y18061462D01*
X-13505328Y18091730D01*
X-13372836Y18097249D01*
X-13197568Y18083880D01*
G37*
X-13197568Y18083880D02*
X-13050008Y18044486D01*
X-12932217Y17980903D01*
X-12846259Y17894968D01*
X-12794198Y17788520D01*
X-12778095Y17663394D01*
X-12787337Y17575832D01*
X-12828760Y17465257D01*
X-12905592Y17373455D01*
X-12982219Y17321573D01*
X-13024809Y17305616D01*
X-13099212Y17283965D01*
X-13195726Y17259219D01*
X-13304651Y17233977D01*
X-13329261Y17228627D01*
X-13438596Y17203572D01*
X-13536624Y17178195D01*
X-13613996Y17155121D01*
X-13661365Y17136976D01*
X-13667112Y17133724D01*
X-13722255Y17075920D01*
X-13748894Y17001438D01*
X-13746073Y16944767D01*
X-13706438Y16868295D01*
X-13634526Y16810571D01*
X-13536372Y16772339D01*
X-13418012Y16754343D01*
X-13285481Y16757324D01*
X-13144817Y16782027D01*
X-13002053Y16829195D01*
X-12959539Y16847920D01*
X-12891510Y16879386D01*
X-12840491Y16902288D01*
X-12816624Y16912083D01*
X-12816131Y16912167D01*
X-12801493Y16895581D01*
X-12776498Y16855577D01*
X-12749346Y16806788D01*
X-12728237Y16763845D01*
X-12721167Y16742705D01*
X-12739794Y16721530D01*
X-12789168Y16692242D01*
X-12859531Y16659028D01*
X-12941122Y16626077D01*
X-13024184Y16597575D01*
X-13098956Y16577712D01*
X-13111346Y16575274D01*
X-13284425Y16556364D01*
X-13459255Y16559929D01*
X-13604376Y16582740D01*
X-13745181Y16633678D01*
X-13853005Y16709495D01*
X-13926585Y16808735D01*
X-13964653Y16929943D01*
X-13970000Y17003443D01*
X-13959506Y17103519D01*
X-13925602Y17186453D01*
X-13864658Y17255074D01*
X-13773046Y17312210D01*
X-13647134Y17360692D01*
X-13483293Y17403348D01*
X-13446840Y17411182D01*
X-13314961Y17439711D01*
X-13217786Y17463684D01*
X-13148296Y17485714D01*
X-13099473Y17508415D01*
X-13064299Y17534402D01*
X-13037950Y17563470D01*
X-13001479Y17639796D01*
X-13006063Y17720275D01*
X-13050796Y17799143D01*
X-13125932Y17857480D01*
X-13229055Y17893529D01*
X-13352246Y17907423D01*
X-13487584Y17899297D01*
X-13627150Y17869285D01*
X-13763024Y17817521D01*
X-13822758Y17786064D01*
X-13837662Y17799314D01*
X-13863017Y17840518D01*
X-13879791Y17873088D01*
X-13925316Y17966793D01*
X-13848029Y18003467D01*
X-13687383Y18061462D01*
X-13505328Y18091730D01*
X-13372836Y18097249D01*
X-13197568Y18083880D01*
X-11107777Y18094843D02*
X-10985119Y18079877D01*
X-10985119Y18079877D02*
X-10934994Y18067534D01*
X-10934994Y18067534D02*
X-10806329Y18010073D01*
X-10806329Y18010073D02*
X-10706318Y17926056D01*
X-10706318Y17926056D02*
X-10638623Y17820034D01*
X-10638623Y17820034D02*
X-10606911Y17696560D01*
X-10606911Y17696560D02*
X-10604965Y17657612D01*
X-10604965Y17657612D02*
X-10617236Y17547208D01*
X-10617236Y17547208D02*
X-10657119Y17455311D01*
X-10657119Y17455311D02*
X-10727366Y17379810D01*
X-10727366Y17379810D02*
X-10830729Y17318592D01*
X-10830729Y17318592D02*
X-10969961Y17269546D01*
X-10969961Y17269546D02*
X-11147814Y17230558D01*
X-11147814Y17230558D02*
X-11165417Y17227537D01*
X-11165417Y17227537D02*
X-11321873Y17194845D01*
X-11321873Y17194845D02*
X-11438848Y17155406D01*
X-11438848Y17155406D02*
X-11518867Y17107737D01*
X-11518867Y17107737D02*
X-11564454Y17050360D01*
X-11564454Y17050360D02*
X-11578167Y16985415D01*
X-11578167Y16985415D02*
X-11564687Y16919124D01*
X-11564687Y16919124D02*
X-11535503Y16863637D01*
X-11535503Y16863637D02*
X-11466868Y16808212D01*
X-11466868Y16808212D02*
X-11368696Y16771934D01*
X-11368696Y16771934D02*
X-11249215Y16754826D01*
X-11249215Y16754826D02*
X-11116652Y16756907D01*
X-11116652Y16756907D02*
X-10979237Y16778199D01*
X-10979237Y16778199D02*
X-10845197Y16818722D01*
X-10845197Y16818722D02*
X-10752018Y16861646D01*
X-10752018Y16861646D02*
X-10693862Y16891308D01*
X-10693862Y16891308D02*
X-10652768Y16908527D01*
X-10652768Y16908527D02*
X-10639820Y16910297D01*
X-10639820Y16910297D02*
X-10625634Y16888300D01*
X-10625634Y16888300D02*
X-10598259Y16843652D01*
X-10598259Y16843652D02*
X-10586927Y16824869D01*
X-10586927Y16824869D02*
X-10562137Y16779746D01*
X-10562137Y16779746D02*
X-10556773Y16748052D01*
X-10556773Y16748052D02*
X-10575811Y16721298D01*
X-10575811Y16721298D02*
X-10624227Y16690997D01*
X-10624227Y16690997D02*
X-10683209Y16660638D01*
X-10683209Y16660638D02*
X-10831447Y16604082D01*
X-10831447Y16604082D02*
X-11002790Y16568382D01*
X-11002790Y16568382D02*
X-11182561Y16555301D01*
X-11182561Y16555301D02*
X-11356081Y16566601D01*
X-11356081Y16566601D02*
X-11401558Y16574377D01*
X-11401558Y16574377D02*
X-11535248Y16616934D01*
X-11535248Y16616934D02*
X-11645203Y16683653D01*
X-11645203Y16683653D02*
X-11728811Y16768980D01*
X-11728811Y16768980D02*
X-11783462Y16867362D01*
X-11783462Y16867362D02*
X-11806546Y16973244D01*
X-11806546Y16973244D02*
X-11795452Y17081074D01*
X-11795452Y17081074D02*
X-11747569Y17185297D01*
X-11747569Y17185297D02*
X-11710839Y17232316D01*
X-11710839Y17232316D02*
X-11661446Y17277550D01*
X-11661446Y17277550D02*
X-11598183Y17316178D01*
X-11598183Y17316178D02*
X-11514676Y17350633D01*
X-11514676Y17350633D02*
X-11404551Y17383349D01*
X-11404551Y17383349D02*
X-11261434Y17416759D01*
X-11261434Y17416759D02*
X-11187638Y17432050D01*
X-11187638Y17432050D02*
X-11038879Y17469436D01*
X-11038879Y17469436D02*
X-10930499Y17514228D01*
X-10930499Y17514228D02*
X-10860973Y17567829D01*
X-10860973Y17567829D02*
X-10828775Y17631642D01*
X-10828775Y17631642D02*
X-10832377Y17707071D01*
X-10832377Y17707071D02*
X-10845771Y17746379D01*
X-10845771Y17746379D02*
X-10880448Y17804557D01*
X-10880448Y17804557D02*
X-10935214Y17847132D01*
X-10935214Y17847132D02*
X-10977565Y17868019D01*
X-10977565Y17868019D02*
X-11088930Y17898834D01*
X-11088930Y17898834D02*
X-11221599Y17906745D01*
X-11221599Y17906745D02*
X-11361757Y17892484D01*
X-11361757Y17892484D02*
X-11495591Y17856786D01*
X-11495591Y17856786D02*
X-11541261Y17838054D01*
X-11541261Y17838054D02*
X-11663105Y17782218D01*
X-11663105Y17782218D02*
X-11707688Y17869607D01*
X-11707688Y17869607D02*
X-11733796Y17923591D01*
X-11733796Y17923591D02*
X-11740677Y17953640D01*
X-11740677Y17953640D02*
X-11728963Y17973208D01*
X-11728963Y17973208D02*
X-11713145Y17985606D01*
X-11713145Y17985606D02*
X-11630448Y18028067D01*
X-11630448Y18028067D02*
X-11517367Y18061400D01*
X-11517367Y18061400D02*
X-11385097Y18084426D01*
X-11385097Y18084426D02*
X-11244835Y18095967D01*
X-11244835Y18095967D02*
X-11107777Y18094843D01*
X-11107777Y18094843D02*
X-11107777Y18094843D01*
G36*
X-11107777Y18094843D02*
G01*
X-10985119Y18079877D01*
X-10934994Y18067534D01*
X-10806329Y18010073D01*
X-10706318Y17926056D01*
X-10638623Y17820034D01*
X-10606911Y17696560D01*
X-10604965Y17657612D01*
X-10617236Y17547208D01*
X-10657119Y17455311D01*
X-10727366Y17379810D01*
X-10830729Y17318592D01*
X-10969961Y17269546D01*
X-11147814Y17230558D01*
X-11165417Y17227537D01*
X-11321873Y17194845D01*
X-11438848Y17155406D01*
X-11518867Y17107737D01*
X-11564454Y17050360D01*
X-11578167Y16985415D01*
X-11564687Y16919124D01*
X-11535503Y16863637D01*
X-11466868Y16808212D01*
X-11368696Y16771934D01*
X-11249215Y16754826D01*
X-11116652Y16756907D01*
X-10979237Y16778199D01*
X-10845197Y16818722D01*
X-10752018Y16861646D01*
X-10693862Y16891308D01*
X-10652768Y16908527D01*
X-10639820Y16910297D01*
X-10625634Y16888300D01*
X-10598259Y16843652D01*
X-10586927Y16824869D01*
X-10562137Y16779746D01*
X-10556773Y16748052D01*
X-10575811Y16721298D01*
X-10624227Y16690997D01*
X-10683209Y16660638D01*
X-10831447Y16604082D01*
X-11002790Y16568382D01*
X-11182561Y16555301D01*
X-11356081Y16566601D01*
X-11401558Y16574377D01*
X-11535248Y16616934D01*
X-11645203Y16683653D01*
X-11728811Y16768980D01*
X-11783462Y16867362D01*
X-11806546Y16973244D01*
X-11795452Y17081074D01*
X-11747569Y17185297D01*
X-11710839Y17232316D01*
X-11661446Y17277550D01*
X-11598183Y17316178D01*
X-11514676Y17350633D01*
X-11404551Y17383349D01*
X-11261434Y17416759D01*
X-11187638Y17432050D01*
X-11038879Y17469436D01*
X-10930499Y17514228D01*
X-10860973Y17567829D01*
X-10828775Y17631642D01*
X-10832377Y17707071D01*
X-10845771Y17746379D01*
X-10880448Y17804557D01*
X-10935214Y17847132D01*
X-10977565Y17868019D01*
X-11088930Y17898834D01*
X-11221599Y17906745D01*
X-11361757Y17892484D01*
X-11495591Y17856786D01*
X-11541261Y17838054D01*
X-11663105Y17782218D01*
X-11707688Y17869607D01*
X-11733796Y17923591D01*
X-11740677Y17953640D01*
X-11728963Y17973208D01*
X-11713145Y17985606D01*
X-11630448Y18028067D01*
X-11517367Y18061400D01*
X-11385097Y18084426D01*
X-11244835Y18095967D01*
X-11107777Y18094843D01*
G37*
X-11107777Y18094843D02*
X-10985119Y18079877D01*
X-10934994Y18067534D01*
X-10806329Y18010073D01*
X-10706318Y17926056D01*
X-10638623Y17820034D01*
X-10606911Y17696560D01*
X-10604965Y17657612D01*
X-10617236Y17547208D01*
X-10657119Y17455311D01*
X-10727366Y17379810D01*
X-10830729Y17318592D01*
X-10969961Y17269546D01*
X-11147814Y17230558D01*
X-11165417Y17227537D01*
X-11321873Y17194845D01*
X-11438848Y17155406D01*
X-11518867Y17107737D01*
X-11564454Y17050360D01*
X-11578167Y16985415D01*
X-11564687Y16919124D01*
X-11535503Y16863637D01*
X-11466868Y16808212D01*
X-11368696Y16771934D01*
X-11249215Y16754826D01*
X-11116652Y16756907D01*
X-10979237Y16778199D01*
X-10845197Y16818722D01*
X-10752018Y16861646D01*
X-10693862Y16891308D01*
X-10652768Y16908527D01*
X-10639820Y16910297D01*
X-10625634Y16888300D01*
X-10598259Y16843652D01*
X-10586927Y16824869D01*
X-10562137Y16779746D01*
X-10556773Y16748052D01*
X-10575811Y16721298D01*
X-10624227Y16690997D01*
X-10683209Y16660638D01*
X-10831447Y16604082D01*
X-11002790Y16568382D01*
X-11182561Y16555301D01*
X-11356081Y16566601D01*
X-11401558Y16574377D01*
X-11535248Y16616934D01*
X-11645203Y16683653D01*
X-11728811Y16768980D01*
X-11783462Y16867362D01*
X-11806546Y16973244D01*
X-11795452Y17081074D01*
X-11747569Y17185297D01*
X-11710839Y17232316D01*
X-11661446Y17277550D01*
X-11598183Y17316178D01*
X-11514676Y17350633D01*
X-11404551Y17383349D01*
X-11261434Y17416759D01*
X-11187638Y17432050D01*
X-11038879Y17469436D01*
X-10930499Y17514228D01*
X-10860973Y17567829D01*
X-10828775Y17631642D01*
X-10832377Y17707071D01*
X-10845771Y17746379D01*
X-10880448Y17804557D01*
X-10935214Y17847132D01*
X-10977565Y17868019D01*
X-11088930Y17898834D01*
X-11221599Y17906745D01*
X-11361757Y17892484D01*
X-11495591Y17856786D01*
X-11541261Y17838054D01*
X-11663105Y17782218D01*
X-11707688Y17869607D01*
X-11733796Y17923591D01*
X-11740677Y17953640D01*
X-11728963Y17973208D01*
X-11713145Y17985606D01*
X-11630448Y18028067D01*
X-11517367Y18061400D01*
X-11385097Y18084426D01*
X-11244835Y18095967D01*
X-11107777Y18094843D01*
X-9514117Y18086000D02*
X-9438920Y18081985D01*
X-9438920Y18081985D02*
X-9383281Y18072976D01*
X-9383281Y18072976D02*
X-9335822Y18057078D01*
X-9335822Y18057078D02*
X-9285163Y18032393D01*
X-9285163Y18032393D02*
X-9281584Y18030490D01*
X-9281584Y18030490D02*
X-9144188Y17934831D01*
X-9144188Y17934831D02*
X-9026602Y17808367D01*
X-9026602Y17808367D02*
X-8939422Y17663583D01*
X-8939422Y17663583D02*
X-8910600Y17595337D01*
X-8910600Y17595337D02*
X-8892990Y17533905D01*
X-8892990Y17533905D02*
X-8883946Y17464511D01*
X-8883946Y17464511D02*
X-8880819Y17372379D01*
X-8880819Y17372379D02*
X-8880635Y17335500D01*
X-8880635Y17335500D02*
X-8881933Y17235408D01*
X-8881933Y17235408D02*
X-8888003Y17162707D01*
X-8888003Y17162707D02*
X-8901714Y17102498D01*
X-8901714Y17102498D02*
X-8925932Y17039882D01*
X-8925932Y17039882D02*
X-8945807Y16996833D01*
X-8945807Y16996833D02*
X-9040644Y16840823D01*
X-9040644Y16840823D02*
X-9160491Y16718941D01*
X-9160491Y16718941D02*
X-9305075Y16631363D01*
X-9305075Y16631363D02*
X-9474125Y16578262D01*
X-9474125Y16578262D02*
X-9627154Y16560707D01*
X-9627154Y16560707D02*
X-9754349Y16561010D01*
X-9754349Y16561010D02*
X-9862325Y16571707D01*
X-9862325Y16571707D02*
X-9910743Y16582290D01*
X-9910743Y16582290D02*
X-10010637Y16619402D01*
X-10010637Y16619402D02*
X-10109825Y16670094D01*
X-10109825Y16670094D02*
X-10192946Y16725816D01*
X-10192946Y16725816D02*
X-10230903Y16760485D01*
X-10230903Y16760485D02*
X-10253520Y16789039D01*
X-10253520Y16789039D02*
X-10255782Y16813538D01*
X-10255782Y16813538D02*
X-10235440Y16848468D01*
X-10235440Y16848468D02*
X-10212490Y16879096D01*
X-10212490Y16879096D02*
X-10176560Y16924358D01*
X-10176560Y16924358D02*
X-10152486Y16951261D01*
X-10152486Y16951261D02*
X-10147995Y16954500D01*
X-10147995Y16954500D02*
X-10129493Y16941637D01*
X-10129493Y16941637D02*
X-10093084Y16910027D01*
X-10093084Y16910027D02*
X-10086007Y16903520D01*
X-10086007Y16903520D02*
X-9996970Y16837339D01*
X-9996970Y16837339D02*
X-9893876Y16794855D01*
X-9893876Y16794855D02*
X-9766103Y16772309D01*
X-9766103Y16772309D02*
X-9702986Y16767901D01*
X-9702986Y16767901D02*
X-9546437Y16773566D01*
X-9546437Y16773566D02*
X-9416121Y16808269D01*
X-9416121Y16808269D02*
X-9305241Y16874573D01*
X-9305241Y16874573D02*
X-9231595Y16945614D01*
X-9231595Y16945614D02*
X-9173746Y17025855D01*
X-9173746Y17025855D02*
X-9128822Y17115401D01*
X-9128822Y17115401D02*
X-9104190Y17198310D01*
X-9104190Y17198310D02*
X-9101667Y17226831D01*
X-9101667Y17226831D02*
X-9115258Y17234329D01*
X-9115258Y17234329D02*
X-9157730Y17240295D01*
X-9157730Y17240295D02*
X-9231631Y17244826D01*
X-9231631Y17244826D02*
X-9339512Y17248021D01*
X-9339512Y17248021D02*
X-9483921Y17249978D01*
X-9483921Y17249978D02*
X-9667407Y17250795D01*
X-9667407Y17250795D02*
X-9724532Y17250833D01*
X-9724532Y17250833D02*
X-9907539Y17250508D01*
X-9907539Y17250508D02*
X-10052479Y17250452D01*
X-10052479Y17250452D02*
X-10163606Y17252051D01*
X-10163606Y17252051D02*
X-10245171Y17256686D01*
X-10245171Y17256686D02*
X-10301426Y17265741D01*
X-10301426Y17265741D02*
X-10336625Y17280600D01*
X-10336625Y17280600D02*
X-10355019Y17302646D01*
X-10355019Y17302646D02*
X-10360861Y17333262D01*
X-10360861Y17333262D02*
X-10358403Y17373831D01*
X-10358403Y17373831D02*
X-10351898Y17425737D01*
X-10351898Y17425737D02*
X-10348709Y17453874D01*
X-10348709Y17453874D02*
X-10346667Y17463180D01*
X-10346667Y17463180D02*
X-10138834Y17463180D01*
X-10138834Y17463180D02*
X-10137531Y17449843D01*
X-10137531Y17449843D02*
X-10130343Y17439594D01*
X-10130343Y17439594D02*
X-10112348Y17432024D01*
X-10112348Y17432024D02*
X-10078625Y17426730D01*
X-10078625Y17426730D02*
X-10024254Y17423304D01*
X-10024254Y17423304D02*
X-9944313Y17421341D01*
X-9944313Y17421341D02*
X-9833882Y17420434D01*
X-9833882Y17420434D02*
X-9688039Y17420178D01*
X-9688039Y17420178D02*
X-9617481Y17420167D01*
X-9617481Y17420167D02*
X-9096128Y17420167D01*
X-9096128Y17420167D02*
X-9108761Y17498013D01*
X-9108761Y17498013D02*
X-9149003Y17623345D01*
X-9149003Y17623345D02*
X-9221761Y17729941D01*
X-9221761Y17729941D02*
X-9320118Y17814469D01*
X-9320118Y17814469D02*
X-9437158Y17873591D01*
X-9437158Y17873591D02*
X-9565964Y17903973D01*
X-9565964Y17903973D02*
X-9699620Y17902280D01*
X-9699620Y17902280D02*
X-9831207Y17865178D01*
X-9831207Y17865178D02*
X-9851145Y17855959D01*
X-9851145Y17855959D02*
X-9948574Y17792043D01*
X-9948574Y17792043D02*
X-10033214Y17706340D01*
X-10033214Y17706340D02*
X-10097440Y17609259D01*
X-10097440Y17609259D02*
X-10133628Y17511210D01*
X-10133628Y17511210D02*
X-10138834Y17463180D01*
X-10138834Y17463180D02*
X-10346667Y17463180D01*
X-10346667Y17463180D02*
X-10310938Y17625932D01*
X-10310938Y17625932D02*
X-10236452Y17779670D01*
X-10236452Y17779670D02*
X-10128223Y17910659D01*
X-10128223Y17910659D02*
X-9989222Y18014470D01*
X-9989222Y18014470D02*
X-9962884Y18029023D01*
X-9962884Y18029023D02*
X-9910099Y18054950D01*
X-9910099Y18054950D02*
X-9862169Y18071757D01*
X-9862169Y18071757D02*
X-9807587Y18081390D01*
X-9807587Y18081390D02*
X-9734842Y18085793D01*
X-9734842Y18085793D02*
X-9632427Y18086911D01*
X-9632427Y18086911D02*
X-9620250Y18086917D01*
X-9620250Y18086917D02*
X-9514117Y18086000D01*
X-9514117Y18086000D02*
X-9514117Y18086000D01*
G36*
X-10236452Y17779670D02*
G01*
X-10128223Y17910659D01*
X-9989222Y18014470D01*
X-9962884Y18029023D01*
X-9910099Y18054950D01*
X-9862169Y18071757D01*
X-9807587Y18081390D01*
X-9734842Y18085793D01*
X-9632427Y18086911D01*
X-9620250Y18086917D01*
X-9514117Y18086000D01*
X-9438920Y18081985D01*
X-9383281Y18072976D01*
X-9335822Y18057078D01*
X-9285163Y18032393D01*
X-9281584Y18030490D01*
X-9144188Y17934831D01*
X-9026602Y17808367D01*
X-8939422Y17663583D01*
X-8910600Y17595337D01*
X-8892990Y17533905D01*
X-8883946Y17464511D01*
X-8880819Y17372379D01*
X-8880635Y17335500D01*
X-8881933Y17235408D01*
X-8888003Y17162707D01*
X-8901714Y17102498D01*
X-8925932Y17039882D01*
X-8945807Y16996833D01*
X-9040644Y16840823D01*
X-9160491Y16718941D01*
X-9305075Y16631363D01*
X-9474125Y16578262D01*
X-9627154Y16560707D01*
X-9754349Y16561010D01*
X-9862325Y16571707D01*
X-9910743Y16582290D01*
X-10010637Y16619402D01*
X-10109825Y16670094D01*
X-10192946Y16725816D01*
X-10230903Y16760485D01*
X-10253520Y16789039D01*
X-10255782Y16813538D01*
X-10235440Y16848468D01*
X-10212490Y16879096D01*
X-10176560Y16924358D01*
X-10152486Y16951261D01*
X-10147995Y16954500D01*
X-10129493Y16941637D01*
X-10093084Y16910027D01*
X-10086007Y16903520D01*
X-9996970Y16837339D01*
X-9893876Y16794855D01*
X-9766103Y16772309D01*
X-9702986Y16767901D01*
X-9546437Y16773566D01*
X-9416121Y16808269D01*
X-9305241Y16874573D01*
X-9231595Y16945614D01*
X-9173746Y17025855D01*
X-9128822Y17115401D01*
X-9104190Y17198310D01*
X-9101667Y17226831D01*
X-9115258Y17234329D01*
X-9157730Y17240295D01*
X-9231631Y17244826D01*
X-9339512Y17248021D01*
X-9483921Y17249978D01*
X-9667407Y17250795D01*
X-9724532Y17250833D01*
X-9907539Y17250508D01*
X-10052479Y17250452D01*
X-10163606Y17252051D01*
X-10245171Y17256686D01*
X-10301426Y17265741D01*
X-10336625Y17280600D01*
X-10355019Y17302646D01*
X-10360861Y17333262D01*
X-10358403Y17373831D01*
X-10351898Y17425737D01*
X-10348709Y17453874D01*
X-10346667Y17463180D01*
X-10138834Y17463180D01*
X-10137531Y17449843D01*
X-10130343Y17439594D01*
X-10112348Y17432024D01*
X-10078625Y17426730D01*
X-10024254Y17423304D01*
X-9944313Y17421341D01*
X-9833882Y17420434D01*
X-9688039Y17420178D01*
X-9617481Y17420167D01*
X-9096128Y17420167D01*
X-9108761Y17498013D01*
X-9149003Y17623345D01*
X-9221761Y17729941D01*
X-9320118Y17814469D01*
X-9437158Y17873591D01*
X-9565964Y17903973D01*
X-9699620Y17902280D01*
X-9831207Y17865178D01*
X-9851145Y17855959D01*
X-9948574Y17792043D01*
X-10033214Y17706340D01*
X-10097440Y17609259D01*
X-10133628Y17511210D01*
X-10138834Y17463180D01*
X-10346667Y17463180D01*
X-10310938Y17625932D01*
X-10236452Y17779670D01*
G37*
X-10236452Y17779670D02*
X-10128223Y17910659D01*
X-9989222Y18014470D01*
X-9962884Y18029023D01*
X-9910099Y18054950D01*
X-9862169Y18071757D01*
X-9807587Y18081390D01*
X-9734842Y18085793D01*
X-9632427Y18086911D01*
X-9620250Y18086917D01*
X-9514117Y18086000D01*
X-9438920Y18081985D01*
X-9383281Y18072976D01*
X-9335822Y18057078D01*
X-9285163Y18032393D01*
X-9281584Y18030490D01*
X-9144188Y17934831D01*
X-9026602Y17808367D01*
X-8939422Y17663583D01*
X-8910600Y17595337D01*
X-8892990Y17533905D01*
X-8883946Y17464511D01*
X-8880819Y17372379D01*
X-8880635Y17335500D01*
X-8881933Y17235408D01*
X-8888003Y17162707D01*
X-8901714Y17102498D01*
X-8925932Y17039882D01*
X-8945807Y16996833D01*
X-9040644Y16840823D01*
X-9160491Y16718941D01*
X-9305075Y16631363D01*
X-9474125Y16578262D01*
X-9627154Y16560707D01*
X-9754349Y16561010D01*
X-9862325Y16571707D01*
X-9910743Y16582290D01*
X-10010637Y16619402D01*
X-10109825Y16670094D01*
X-10192946Y16725816D01*
X-10230903Y16760485D01*
X-10253520Y16789039D01*
X-10255782Y16813538D01*
X-10235440Y16848468D01*
X-10212490Y16879096D01*
X-10176560Y16924358D01*
X-10152486Y16951261D01*
X-10147995Y16954500D01*
X-10129493Y16941637D01*
X-10093084Y16910027D01*
X-10086007Y16903520D01*
X-9996970Y16837339D01*
X-9893876Y16794855D01*
X-9766103Y16772309D01*
X-9702986Y16767901D01*
X-9546437Y16773566D01*
X-9416121Y16808269D01*
X-9305241Y16874573D01*
X-9231595Y16945614D01*
X-9173746Y17025855D01*
X-9128822Y17115401D01*
X-9104190Y17198310D01*
X-9101667Y17226831D01*
X-9115258Y17234329D01*
X-9157730Y17240295D01*
X-9231631Y17244826D01*
X-9339512Y17248021D01*
X-9483921Y17249978D01*
X-9667407Y17250795D01*
X-9724532Y17250833D01*
X-9907539Y17250508D01*
X-10052479Y17250452D01*
X-10163606Y17252051D01*
X-10245171Y17256686D01*
X-10301426Y17265741D01*
X-10336625Y17280600D01*
X-10355019Y17302646D01*
X-10360861Y17333262D01*
X-10358403Y17373831D01*
X-10351898Y17425737D01*
X-10348709Y17453874D01*
X-10346667Y17463180D01*
X-10138834Y17463180D01*
X-10137531Y17449843D01*
X-10130343Y17439594D01*
X-10112348Y17432024D01*
X-10078625Y17426730D01*
X-10024254Y17423304D01*
X-9944313Y17421341D01*
X-9833882Y17420434D01*
X-9688039Y17420178D01*
X-9617481Y17420167D01*
X-9096128Y17420167D01*
X-9108761Y17498013D01*
X-9149003Y17623345D01*
X-9221761Y17729941D01*
X-9320118Y17814469D01*
X-9437158Y17873591D01*
X-9565964Y17903973D01*
X-9699620Y17902280D01*
X-9831207Y17865178D01*
X-9851145Y17855959D01*
X-9948574Y17792043D01*
X-10033214Y17706340D01*
X-10097440Y17609259D01*
X-10133628Y17511210D01*
X-10138834Y17463180D01*
X-10346667Y17463180D01*
X-10310938Y17625932D01*
X-10236452Y17779670D01*
X-5947834Y18097500D02*
X-5693834Y18097500D01*
X-5693834Y18097500D02*
X-5693834Y17907000D01*
X-5693834Y17907000D02*
X-5943551Y17907000D01*
X-5943551Y17907000D02*
X-5951676Y17383125D01*
X-5951676Y17383125D02*
X-5954455Y17218927D01*
X-5954455Y17218927D02*
X-5957403Y17091294D01*
X-5957403Y17091294D02*
X-5961021Y16994460D01*
X-5961021Y16994460D02*
X-5965809Y16922660D01*
X-5965809Y16922660D02*
X-5972269Y16870126D01*
X-5972269Y16870126D02*
X-5980899Y16831093D01*
X-5980899Y16831093D02*
X-5992201Y16799793D01*
X-5992201Y16799793D02*
X-6004482Y16774583D01*
X-6004482Y16774583D02*
X-6042308Y16712511D01*
X-6042308Y16712511D02*
X-6081993Y16661268D01*
X-6081993Y16661268D02*
X-6092347Y16650863D01*
X-6092347Y16650863D02*
X-6176954Y16598876D01*
X-6176954Y16598876D02*
X-6286834Y16566313D01*
X-6286834Y16566313D02*
X-6408781Y16554954D01*
X-6408781Y16554954D02*
X-6529586Y16566580D01*
X-6529586Y16566580D02*
X-6591236Y16583588D01*
X-6591236Y16583588D02*
X-6668099Y16615809D01*
X-6668099Y16615809D02*
X-6708431Y16648678D01*
X-6708431Y16648678D02*
X-6717413Y16690056D01*
X-6717413Y16690056D02*
X-6700231Y16747805D01*
X-6700231Y16747805D02*
X-6699950Y16748477D01*
X-6699950Y16748477D02*
X-6667750Y16825542D01*
X-6667750Y16825542D02*
X-6577667Y16784653D01*
X-6577667Y16784653D02*
X-6488417Y16751999D01*
X-6488417Y16751999D02*
X-6413150Y16746352D01*
X-6413150Y16746352D02*
X-6333883Y16766966D01*
X-6333883Y16766966D02*
X-6316809Y16773822D01*
X-6316809Y16773822D02*
X-6276740Y16793651D01*
X-6276740Y16793651D02*
X-6245342Y16819087D01*
X-6245342Y16819087D02*
X-6221574Y16855153D01*
X-6221574Y16855153D02*
X-6204394Y16906868D01*
X-6204394Y16906868D02*
X-6192761Y16979253D01*
X-6192761Y16979253D02*
X-6185632Y17077330D01*
X-6185632Y17077330D02*
X-6181967Y17206119D01*
X-6181967Y17206119D02*
X-6180724Y17370641D01*
X-6180724Y17370641D02*
X-6180667Y17430070D01*
X-6180667Y17430070D02*
X-6180667Y17907000D01*
X-6180667Y17907000D02*
X-6646334Y17907000D01*
X-6646334Y17907000D02*
X-6646334Y18097500D01*
X-6646334Y18097500D02*
X-6180667Y18097500D01*
X-6180667Y18097500D02*
X-6180667Y18415000D01*
X-6180667Y18415000D02*
X-5947834Y18415000D01*
X-5947834Y18415000D02*
X-5947834Y18097500D01*
X-5947834Y18097500D02*
X-5947834Y18097500D01*
G36*
X-5947834Y18097500D02*
G01*
X-5693834Y18097500D01*
X-5693834Y17907000D01*
X-5943551Y17907000D01*
X-5951676Y17383125D01*
X-5954455Y17218927D01*
X-5957403Y17091294D01*
X-5961021Y16994460D01*
X-5965809Y16922660D01*
X-5972269Y16870126D01*
X-5980899Y16831093D01*
X-5992201Y16799793D01*
X-6004482Y16774583D01*
X-6042308Y16712511D01*
X-6081993Y16661268D01*
X-6092347Y16650863D01*
X-6176954Y16598876D01*
X-6286834Y16566313D01*
X-6408781Y16554954D01*
X-6529586Y16566580D01*
X-6591236Y16583588D01*
X-6668099Y16615809D01*
X-6708431Y16648678D01*
X-6717413Y16690056D01*
X-6700231Y16747805D01*
X-6699950Y16748477D01*
X-6667750Y16825542D01*
X-6577667Y16784653D01*
X-6488417Y16751999D01*
X-6413150Y16746352D01*
X-6333883Y16766966D01*
X-6316809Y16773822D01*
X-6276740Y16793651D01*
X-6245342Y16819087D01*
X-6221574Y16855153D01*
X-6204394Y16906868D01*
X-6192761Y16979253D01*
X-6185632Y17077330D01*
X-6181967Y17206119D01*
X-6180724Y17370641D01*
X-6180667Y17430070D01*
X-6180667Y17907000D01*
X-6646334Y17907000D01*
X-6646334Y18097500D01*
X-6180667Y18097500D01*
X-6180667Y18415000D01*
X-5947834Y18415000D01*
X-5947834Y18097500D01*
G37*
X-5947834Y18097500D02*
X-5693834Y18097500D01*
X-5693834Y17907000D01*
X-5943551Y17907000D01*
X-5951676Y17383125D01*
X-5954455Y17218927D01*
X-5957403Y17091294D01*
X-5961021Y16994460D01*
X-5965809Y16922660D01*
X-5972269Y16870126D01*
X-5980899Y16831093D01*
X-5992201Y16799793D01*
X-6004482Y16774583D01*
X-6042308Y16712511D01*
X-6081993Y16661268D01*
X-6092347Y16650863D01*
X-6176954Y16598876D01*
X-6286834Y16566313D01*
X-6408781Y16554954D01*
X-6529586Y16566580D01*
X-6591236Y16583588D01*
X-6668099Y16615809D01*
X-6708431Y16648678D01*
X-6717413Y16690056D01*
X-6700231Y16747805D01*
X-6699950Y16748477D01*
X-6667750Y16825542D01*
X-6577667Y16784653D01*
X-6488417Y16751999D01*
X-6413150Y16746352D01*
X-6333883Y16766966D01*
X-6316809Y16773822D01*
X-6276740Y16793651D01*
X-6245342Y16819087D01*
X-6221574Y16855153D01*
X-6204394Y16906868D01*
X-6192761Y16979253D01*
X-6185632Y17077330D01*
X-6181967Y17206119D01*
X-6180724Y17370641D01*
X-6180667Y17430070D01*
X-6180667Y17907000D01*
X-6646334Y17907000D01*
X-6646334Y18097500D01*
X-6180667Y18097500D01*
X-6180667Y18415000D01*
X-5947834Y18415000D01*
X-5947834Y18097500D01*
X-1385359Y18089168D02*
X-1225563Y18060264D01*
X-1225563Y18060264D02*
X-1097155Y18006294D01*
X-1097155Y18006294D02*
X-1001259Y17927983D01*
X-1001259Y17927983D02*
X-938996Y17826051D01*
X-938996Y17826051D02*
X-911490Y17701224D01*
X-911490Y17701224D02*
X-910167Y17663583D01*
X-910167Y17663583D02*
X-921901Y17549835D01*
X-921901Y17549835D02*
X-959281Y17456783D01*
X-959281Y17456783D02*
X-1025578Y17381676D01*
X-1025578Y17381676D02*
X-1124060Y17321767D01*
X-1124060Y17321767D02*
X-1257998Y17274305D01*
X-1257998Y17274305D02*
X-1414601Y17239406D01*
X-1414601Y17239406D02*
X-1568464Y17208202D01*
X-1568464Y17208202D02*
X-1684794Y17176721D01*
X-1684794Y17176721D02*
X-1768366Y17143263D01*
X-1768366Y17143263D02*
X-1823955Y17106130D01*
X-1823955Y17106130D02*
X-1841232Y17087617D01*
X-1841232Y17087617D02*
X-1877533Y17019715D01*
X-1877533Y17019715D02*
X-1876296Y16949830D01*
X-1876296Y16949830D02*
X-1843060Y16877307D01*
X-1843060Y16877307D02*
X-1784797Y16819942D01*
X-1784797Y16819942D02*
X-1695992Y16780199D01*
X-1695992Y16780199D02*
X-1584682Y16758272D01*
X-1584682Y16758272D02*
X-1458905Y16754355D01*
X-1458905Y16754355D02*
X-1326698Y16768642D01*
X-1326698Y16768642D02*
X-1196097Y16801327D01*
X-1196097Y16801327D02*
X-1075141Y16852605D01*
X-1075141Y16852605D02*
X-1064337Y16858511D01*
X-1064337Y16858511D02*
X-1007241Y16888969D01*
X-1007241Y16888969D02*
X-965805Y16908411D01*
X-965805Y16908411D02*
X-953732Y16912167D01*
X-953732Y16912167D02*
X-935532Y16895400D01*
X-935532Y16895400D02*
X-906528Y16853061D01*
X-906528Y16853061D02*
X-892509Y16829218D01*
X-892509Y16829218D02*
X-845890Y16746270D01*
X-845890Y16746270D02*
X-904487Y16705213D01*
X-904487Y16705213D02*
X-1033980Y16636631D01*
X-1033980Y16636631D02*
X-1194022Y16588857D01*
X-1194022Y16588857D02*
X-1377202Y16563961D01*
X-1377202Y16563961D02*
X-1418167Y16561823D01*
X-1418167Y16561823D02*
X-1518110Y16560405D01*
X-1518110Y16560405D02*
X-1612828Y16563181D01*
X-1612828Y16563181D02*
X-1686932Y16569557D01*
X-1686932Y16569557D02*
X-1707592Y16573032D01*
X-1707592Y16573032D02*
X-1853897Y16620099D01*
X-1853897Y16620099D02*
X-1967467Y16690924D01*
X-1967467Y16690924D02*
X-2046754Y16783886D01*
X-2046754Y16783886D02*
X-2090211Y16897364D01*
X-2090211Y16897364D02*
X-2098513Y16982831D01*
X-2098513Y16982831D02*
X-2089853Y17087269D01*
X-2089853Y17087269D02*
X-2061270Y17173078D01*
X-2061270Y17173078D02*
X-2008822Y17243368D01*
X-2008822Y17243368D02*
X-1928568Y17301250D01*
X-1928568Y17301250D02*
X-1816568Y17349831D01*
X-1816568Y17349831D02*
X-1668880Y17392221D01*
X-1668880Y17392221D02*
X-1545383Y17419232D01*
X-1545383Y17419232D02*
X-1398057Y17452720D01*
X-1398057Y17452720D02*
X-1288259Y17487523D01*
X-1288259Y17487523D02*
X-1211187Y17525722D01*
X-1211187Y17525722D02*
X-1162042Y17569393D01*
X-1162042Y17569393D02*
X-1147745Y17591410D01*
X-1147745Y17591410D02*
X-1130255Y17665800D01*
X-1130255Y17665800D02*
X-1145369Y17746483D01*
X-1145369Y17746483D02*
X-1187159Y17813693D01*
X-1187159Y17813693D02*
X-1257628Y17861332D01*
X-1257628Y17861332D02*
X-1357179Y17891917D01*
X-1357179Y17891917D02*
X-1475996Y17905095D01*
X-1475996Y17905095D02*
X-1604261Y17900511D01*
X-1604261Y17900511D02*
X-1732158Y17877814D01*
X-1732158Y17877814D02*
X-1848085Y17837470D01*
X-1848085Y17837470D02*
X-1968772Y17782218D01*
X-1968772Y17782218D02*
X-2011770Y17866502D01*
X-2011770Y17866502D02*
X-2035368Y17921410D01*
X-2035368Y17921410D02*
X-2044558Y17961238D01*
X-2044558Y17961238D02*
X-2042982Y17969856D01*
X-2042982Y17969856D02*
X-2005275Y17999627D01*
X-2005275Y17999627D02*
X-1934319Y18028890D01*
X-1934319Y18028890D02*
X-1839159Y18055278D01*
X-1839159Y18055278D02*
X-1728838Y18076421D01*
X-1728838Y18076421D02*
X-1612401Y18089953D01*
X-1612401Y18089953D02*
X-1575422Y18092284D01*
X-1575422Y18092284D02*
X-1385359Y18089168D01*
X-1385359Y18089168D02*
X-1385359Y18089168D01*
G36*
X-1385359Y18089168D02*
G01*
X-1225563Y18060264D01*
X-1097155Y18006294D01*
X-1001259Y17927983D01*
X-938996Y17826051D01*
X-911490Y17701224D01*
X-910167Y17663583D01*
X-921901Y17549835D01*
X-959281Y17456783D01*
X-1025578Y17381676D01*
X-1124060Y17321767D01*
X-1257998Y17274305D01*
X-1414601Y17239406D01*
X-1568464Y17208202D01*
X-1684794Y17176721D01*
X-1768366Y17143263D01*
X-1823955Y17106130D01*
X-1841232Y17087617D01*
X-1877533Y17019715D01*
X-1876296Y16949830D01*
X-1843060Y16877307D01*
X-1784797Y16819942D01*
X-1695992Y16780199D01*
X-1584682Y16758272D01*
X-1458905Y16754355D01*
X-1326698Y16768642D01*
X-1196097Y16801327D01*
X-1075141Y16852605D01*
X-1064337Y16858511D01*
X-1007241Y16888969D01*
X-965805Y16908411D01*
X-953732Y16912167D01*
X-935532Y16895400D01*
X-906528Y16853061D01*
X-892509Y16829218D01*
X-845890Y16746270D01*
X-904487Y16705213D01*
X-1033980Y16636631D01*
X-1194022Y16588857D01*
X-1377202Y16563961D01*
X-1418167Y16561823D01*
X-1518110Y16560405D01*
X-1612828Y16563181D01*
X-1686932Y16569557D01*
X-1707592Y16573032D01*
X-1853897Y16620099D01*
X-1967467Y16690924D01*
X-2046754Y16783886D01*
X-2090211Y16897364D01*
X-2098513Y16982831D01*
X-2089853Y17087269D01*
X-2061270Y17173078D01*
X-2008822Y17243368D01*
X-1928568Y17301250D01*
X-1816568Y17349831D01*
X-1668880Y17392221D01*
X-1545383Y17419232D01*
X-1398057Y17452720D01*
X-1288259Y17487523D01*
X-1211187Y17525722D01*
X-1162042Y17569393D01*
X-1147745Y17591410D01*
X-1130255Y17665800D01*
X-1145369Y17746483D01*
X-1187159Y17813693D01*
X-1257628Y17861332D01*
X-1357179Y17891917D01*
X-1475996Y17905095D01*
X-1604261Y17900511D01*
X-1732158Y17877814D01*
X-1848085Y17837470D01*
X-1968772Y17782218D01*
X-2011770Y17866502D01*
X-2035368Y17921410D01*
X-2044558Y17961238D01*
X-2042982Y17969856D01*
X-2005275Y17999627D01*
X-1934319Y18028890D01*
X-1839159Y18055278D01*
X-1728838Y18076421D01*
X-1612401Y18089953D01*
X-1575422Y18092284D01*
X-1385359Y18089168D01*
G37*
X-1385359Y18089168D02*
X-1225563Y18060264D01*
X-1097155Y18006294D01*
X-1001259Y17927983D01*
X-938996Y17826051D01*
X-911490Y17701224D01*
X-910167Y17663583D01*
X-921901Y17549835D01*
X-959281Y17456783D01*
X-1025578Y17381676D01*
X-1124060Y17321767D01*
X-1257998Y17274305D01*
X-1414601Y17239406D01*
X-1568464Y17208202D01*
X-1684794Y17176721D01*
X-1768366Y17143263D01*
X-1823955Y17106130D01*
X-1841232Y17087617D01*
X-1877533Y17019715D01*
X-1876296Y16949830D01*
X-1843060Y16877307D01*
X-1784797Y16819942D01*
X-1695992Y16780199D01*
X-1584682Y16758272D01*
X-1458905Y16754355D01*
X-1326698Y16768642D01*
X-1196097Y16801327D01*
X-1075141Y16852605D01*
X-1064337Y16858511D01*
X-1007241Y16888969D01*
X-965805Y16908411D01*
X-953732Y16912167D01*
X-935532Y16895400D01*
X-906528Y16853061D01*
X-892509Y16829218D01*
X-845890Y16746270D01*
X-904487Y16705213D01*
X-1033980Y16636631D01*
X-1194022Y16588857D01*
X-1377202Y16563961D01*
X-1418167Y16561823D01*
X-1518110Y16560405D01*
X-1612828Y16563181D01*
X-1686932Y16569557D01*
X-1707592Y16573032D01*
X-1853897Y16620099D01*
X-1967467Y16690924D01*
X-2046754Y16783886D01*
X-2090211Y16897364D01*
X-2098513Y16982831D01*
X-2089853Y17087269D01*
X-2061270Y17173078D01*
X-2008822Y17243368D01*
X-1928568Y17301250D01*
X-1816568Y17349831D01*
X-1668880Y17392221D01*
X-1545383Y17419232D01*
X-1398057Y17452720D01*
X-1288259Y17487523D01*
X-1211187Y17525722D01*
X-1162042Y17569393D01*
X-1147745Y17591410D01*
X-1130255Y17665800D01*
X-1145369Y17746483D01*
X-1187159Y17813693D01*
X-1257628Y17861332D01*
X-1357179Y17891917D01*
X-1475996Y17905095D01*
X-1604261Y17900511D01*
X-1732158Y17877814D01*
X-1848085Y17837470D01*
X-1968772Y17782218D01*
X-2011770Y17866502D01*
X-2035368Y17921410D01*
X-2044558Y17961238D01*
X-2042982Y17969856D01*
X-2005275Y17999627D01*
X-1934319Y18028890D01*
X-1839159Y18055278D01*
X-1728838Y18076421D01*
X-1612401Y18089953D01*
X-1575422Y18092284D01*
X-1385359Y18089168D01*
X2869831Y18085853D02*
X2946158Y18081526D01*
X2946158Y18081526D02*
X3002280Y18072236D01*
X3002280Y18072236D02*
X3049247Y18056280D01*
X3049247Y18056280D02*
X3089683Y18036493D01*
X3089683Y18036493D02*
X3194073Y17975756D01*
X3194073Y17975756D02*
X3271650Y17916201D01*
X3271650Y17916201D02*
X3335960Y17846234D01*
X3335960Y17846234D02*
X3375720Y17791648D01*
X3375720Y17791648D02*
X3454645Y17642184D01*
X3454645Y17642184D02*
X3499292Y17480713D01*
X3499292Y17480713D02*
X3510873Y17314140D01*
X3510873Y17314140D02*
X3490598Y17149370D01*
X3490598Y17149370D02*
X3439676Y16993310D01*
X3439676Y16993310D02*
X3359319Y16852863D01*
X3359319Y16852863D02*
X3250736Y16734937D01*
X3250736Y16734937D02*
X3181484Y16683495D01*
X3181484Y16683495D02*
X3028481Y16608998D01*
X3028481Y16608998D02*
X2856429Y16566038D01*
X2856429Y16566038D02*
X2676124Y16556128D01*
X2676124Y16556128D02*
X2498362Y16580779D01*
X2498362Y16580779D02*
X2480678Y16585328D01*
X2480678Y16585328D02*
X2407930Y16607061D01*
X2407930Y16607061D02*
X2345747Y16629298D01*
X2345747Y16629298D02*
X2321928Y16639914D01*
X2321928Y16639914D02*
X2274727Y16668909D01*
X2274727Y16668909D02*
X2219689Y16708530D01*
X2219689Y16708530D02*
X2167806Y16750027D01*
X2167806Y16750027D02*
X2130069Y16784651D01*
X2130069Y16784651D02*
X2117287Y16802820D01*
X2117287Y16802820D02*
X2130713Y16825648D01*
X2130713Y16825648D02*
X2163899Y16866932D01*
X2163899Y16866932D02*
X2182532Y16887996D01*
X2182532Y16887996D02*
X2247157Y16959075D01*
X2247157Y16959075D02*
X2303620Y16905119D01*
X2303620Y16905119D02*
X2408738Y16831743D01*
X2408738Y16831743D02*
X2537658Y16783617D01*
X2537658Y16783617D02*
X2679126Y16762261D01*
X2679126Y16762261D02*
X2821886Y16769196D01*
X2821886Y16769196D02*
X2954684Y16805944D01*
X2954684Y16805944D02*
X2973916Y16814532D01*
X2973916Y16814532D02*
X3079606Y16879991D01*
X3079606Y16879991D02*
X3169753Y16965106D01*
X3169753Y16965106D02*
X3237300Y17060836D01*
X3237300Y17060836D02*
X3275189Y17158135D01*
X3275189Y17158135D02*
X3280833Y17207820D01*
X3280833Y17207820D02*
X3279707Y17220109D01*
X3279707Y17220109D02*
X3273338Y17229802D01*
X3273338Y17229802D02*
X3257236Y17237207D01*
X3257236Y17237207D02*
X3226916Y17242632D01*
X3226916Y17242632D02*
X3177887Y17246385D01*
X3177887Y17246385D02*
X3105662Y17248773D01*
X3105662Y17248773D02*
X3005753Y17250105D01*
X3005753Y17250105D02*
X2873672Y17250688D01*
X2873672Y17250688D02*
X2704930Y17250831D01*
X2704930Y17250831D02*
X2653697Y17250833D01*
X2653697Y17250833D02*
X2026560Y17250833D01*
X2026560Y17250833D02*
X2037107Y17414875D01*
X2037107Y17414875D02*
X2043951Y17471517D01*
X2043951Y17471517D02*
X2243874Y17471517D01*
X2243874Y17471517D02*
X2254334Y17449125D01*
X2254334Y17449125D02*
X2285204Y17434353D01*
X2285204Y17434353D02*
X2340562Y17425633D01*
X2340562Y17425633D02*
X2424484Y17421400D01*
X2424484Y17421400D02*
X2541047Y17420086D01*
X2541047Y17420086D02*
X2694327Y17420124D01*
X2694327Y17420124D02*
X2762250Y17420167D01*
X2762250Y17420167D02*
X3280833Y17420167D01*
X3280833Y17420167D02*
X3280626Y17467792D01*
X3280626Y17467792D02*
X3268732Y17526199D01*
X3268732Y17526199D02*
X3238501Y17602618D01*
X3238501Y17602618D02*
X3197538Y17681603D01*
X3197538Y17681603D02*
X3153446Y17747713D01*
X3153446Y17747713D02*
X3130176Y17773395D01*
X3130176Y17773395D02*
X3026688Y17842762D01*
X3026688Y17842762D02*
X2900925Y17887911D01*
X2900925Y17887911D02*
X2766423Y17906426D01*
X2766423Y17906426D02*
X2636720Y17895888D01*
X2636720Y17895888D02*
X2565778Y17874177D01*
X2565778Y17874177D02*
X2455328Y17806950D01*
X2455328Y17806950D02*
X2359250Y17707059D01*
X2359250Y17707059D02*
X2294198Y17600083D01*
X2294198Y17600083D02*
X2267883Y17545429D01*
X2267883Y17545429D02*
X2249750Y17503096D01*
X2249750Y17503096D02*
X2243874Y17471517D01*
X2243874Y17471517D02*
X2043951Y17471517D01*
X2043951Y17471517D02*
X2051428Y17533383D01*
X2051428Y17533383D02*
X2076469Y17637870D01*
X2076469Y17637870D02*
X2091717Y17678817D01*
X2091717Y17678817D02*
X2160941Y17795812D01*
X2160941Y17795812D02*
X2258258Y17907303D01*
X2258258Y17907303D02*
X2370323Y17999108D01*
X2370323Y17999108D02*
X2422733Y18030603D01*
X2422733Y18030603D02*
X2474462Y18055879D01*
X2474462Y18055879D02*
X2522241Y18072253D01*
X2522241Y18072253D02*
X2577495Y18081621D01*
X2577495Y18081621D02*
X2651651Y18085876D01*
X2651651Y18085876D02*
X2756134Y18086915D01*
X2756134Y18086915D02*
X2762250Y18086917D01*
X2762250Y18086917D02*
X2869831Y18085853D01*
X2869831Y18085853D02*
X2869831Y18085853D01*
G36*
X2076469Y17637870D02*
G01*
X2091717Y17678817D01*
X2160941Y17795812D01*
X2258258Y17907303D01*
X2370323Y17999108D01*
X2422733Y18030603D01*
X2474462Y18055879D01*
X2522241Y18072253D01*
X2577495Y18081621D01*
X2651651Y18085876D01*
X2756134Y18086915D01*
X2762250Y18086917D01*
X2869831Y18085853D01*
X2946158Y18081526D01*
X3002280Y18072236D01*
X3049247Y18056280D01*
X3089683Y18036493D01*
X3194073Y17975756D01*
X3271650Y17916201D01*
X3335960Y17846234D01*
X3375720Y17791648D01*
X3454645Y17642184D01*
X3499292Y17480713D01*
X3510873Y17314140D01*
X3490598Y17149370D01*
X3439676Y16993310D01*
X3359319Y16852863D01*
X3250736Y16734937D01*
X3181484Y16683495D01*
X3028481Y16608998D01*
X2856429Y16566038D01*
X2676124Y16556128D01*
X2498362Y16580779D01*
X2480678Y16585328D01*
X2407930Y16607061D01*
X2345747Y16629298D01*
X2321928Y16639914D01*
X2274727Y16668909D01*
X2219689Y16708530D01*
X2167806Y16750027D01*
X2130069Y16784651D01*
X2117287Y16802820D01*
X2130713Y16825648D01*
X2163899Y16866932D01*
X2182532Y16887996D01*
X2247157Y16959075D01*
X2303620Y16905119D01*
X2408738Y16831743D01*
X2537658Y16783617D01*
X2679126Y16762261D01*
X2821886Y16769196D01*
X2954684Y16805944D01*
X2973916Y16814532D01*
X3079606Y16879991D01*
X3169753Y16965106D01*
X3237300Y17060836D01*
X3275189Y17158135D01*
X3280833Y17207820D01*
X3279707Y17220109D01*
X3273338Y17229802D01*
X3257236Y17237207D01*
X3226916Y17242632D01*
X3177887Y17246385D01*
X3105662Y17248773D01*
X3005753Y17250105D01*
X2873672Y17250688D01*
X2704930Y17250831D01*
X2653697Y17250833D01*
X2026560Y17250833D01*
X2037107Y17414875D01*
X2043951Y17471517D01*
X2243874Y17471517D01*
X2254334Y17449125D01*
X2285204Y17434353D01*
X2340562Y17425633D01*
X2424484Y17421400D01*
X2541047Y17420086D01*
X2694327Y17420124D01*
X2762250Y17420167D01*
X3280833Y17420167D01*
X3280626Y17467792D01*
X3268732Y17526199D01*
X3238501Y17602618D01*
X3197538Y17681603D01*
X3153446Y17747713D01*
X3130176Y17773395D01*
X3026688Y17842762D01*
X2900925Y17887911D01*
X2766423Y17906426D01*
X2636720Y17895888D01*
X2565778Y17874177D01*
X2455328Y17806950D01*
X2359250Y17707059D01*
X2294198Y17600083D01*
X2267883Y17545429D01*
X2249750Y17503096D01*
X2243874Y17471517D01*
X2043951Y17471517D01*
X2051428Y17533383D01*
X2076469Y17637870D01*
G37*
X2076469Y17637870D02*
X2091717Y17678817D01*
X2160941Y17795812D01*
X2258258Y17907303D01*
X2370323Y17999108D01*
X2422733Y18030603D01*
X2474462Y18055879D01*
X2522241Y18072253D01*
X2577495Y18081621D01*
X2651651Y18085876D01*
X2756134Y18086915D01*
X2762250Y18086917D01*
X2869831Y18085853D01*
X2946158Y18081526D01*
X3002280Y18072236D01*
X3049247Y18056280D01*
X3089683Y18036493D01*
X3194073Y17975756D01*
X3271650Y17916201D01*
X3335960Y17846234D01*
X3375720Y17791648D01*
X3454645Y17642184D01*
X3499292Y17480713D01*
X3510873Y17314140D01*
X3490598Y17149370D01*
X3439676Y16993310D01*
X3359319Y16852863D01*
X3250736Y16734937D01*
X3181484Y16683495D01*
X3028481Y16608998D01*
X2856429Y16566038D01*
X2676124Y16556128D01*
X2498362Y16580779D01*
X2480678Y16585328D01*
X2407930Y16607061D01*
X2345747Y16629298D01*
X2321928Y16639914D01*
X2274727Y16668909D01*
X2219689Y16708530D01*
X2167806Y16750027D01*
X2130069Y16784651D01*
X2117287Y16802820D01*
X2130713Y16825648D01*
X2163899Y16866932D01*
X2182532Y16887996D01*
X2247157Y16959075D01*
X2303620Y16905119D01*
X2408738Y16831743D01*
X2537658Y16783617D01*
X2679126Y16762261D01*
X2821886Y16769196D01*
X2954684Y16805944D01*
X2973916Y16814532D01*
X3079606Y16879991D01*
X3169753Y16965106D01*
X3237300Y17060836D01*
X3275189Y17158135D01*
X3280833Y17207820D01*
X3279707Y17220109D01*
X3273338Y17229802D01*
X3257236Y17237207D01*
X3226916Y17242632D01*
X3177887Y17246385D01*
X3105662Y17248773D01*
X3005753Y17250105D01*
X2873672Y17250688D01*
X2704930Y17250831D01*
X2653697Y17250833D01*
X2026560Y17250833D01*
X2037107Y17414875D01*
X2043951Y17471517D01*
X2243874Y17471517D01*
X2254334Y17449125D01*
X2285204Y17434353D01*
X2340562Y17425633D01*
X2424484Y17421400D01*
X2541047Y17420086D01*
X2694327Y17420124D01*
X2762250Y17420167D01*
X3280833Y17420167D01*
X3280626Y17467792D01*
X3268732Y17526199D01*
X3238501Y17602618D01*
X3197538Y17681603D01*
X3153446Y17747713D01*
X3130176Y17773395D01*
X3026688Y17842762D01*
X2900925Y17887911D01*
X2766423Y17906426D01*
X2636720Y17895888D01*
X2565778Y17874177D01*
X2455328Y17806950D01*
X2359250Y17707059D01*
X2294198Y17600083D01*
X2267883Y17545429D01*
X2249750Y17503096D01*
X2243874Y17471517D01*
X2043951Y17471517D01*
X2051428Y17533383D01*
X2076469Y17637870D01*
X6203551Y18089144D02*
X6361489Y18061305D01*
X6361489Y18061305D02*
X6508621Y18006233D01*
X6508621Y18006233D02*
X6593300Y17961104D01*
X6593300Y17961104D02*
X6689949Y17904464D01*
X6689949Y17904464D02*
X6642857Y17820674D01*
X6642857Y17820674D02*
X6612526Y17771960D01*
X6612526Y17771960D02*
X6589786Y17744795D01*
X6589786Y17744795D02*
X6584007Y17742567D01*
X6584007Y17742567D02*
X6560666Y17754176D01*
X6560666Y17754176D02*
X6509755Y17779648D01*
X6509755Y17779648D02*
X6441534Y17813848D01*
X6441534Y17813848D02*
X6429564Y17819854D01*
X6429564Y17819854D02*
X6290456Y17874371D01*
X6290456Y17874371D02*
X6149171Y17902269D01*
X6149171Y17902269D02*
X6014148Y17903617D01*
X6014148Y17903617D02*
X5893826Y17878486D01*
X5893826Y17878486D02*
X5796646Y17826948D01*
X5796646Y17826948D02*
X5781780Y17814435D01*
X5781780Y17814435D02*
X5722323Y17744727D01*
X5722323Y17744727D02*
X5683977Y17657738D01*
X5683977Y17657738D02*
X5662578Y17552458D01*
X5662578Y17552458D02*
X5647527Y17441333D01*
X5647527Y17441333D02*
X5932374Y17441333D01*
X5932374Y17441333D02*
X6049953Y17439690D01*
X6049953Y17439690D02*
X6163367Y17435207D01*
X6163367Y17435207D02*
X6260182Y17428556D01*
X6260182Y17428556D02*
X6327960Y17420408D01*
X6327960Y17420408D02*
X6331235Y17419810D01*
X6331235Y17419810D02*
X6453720Y17382683D01*
X6453720Y17382683D02*
X6560971Y17323533D01*
X6560971Y17323533D02*
X6642516Y17249001D01*
X6642516Y17249001D02*
X6672991Y17203128D01*
X6672991Y17203128D02*
X6701484Y17117405D01*
X6701484Y17117405D02*
X6713505Y17013727D01*
X6713505Y17013727D02*
X6708675Y16909921D01*
X6708675Y16909921D02*
X6686615Y16823812D01*
X6686615Y16823812D02*
X6681281Y16812518D01*
X6681281Y16812518D02*
X6607384Y16713813D01*
X6607384Y16713813D02*
X6502888Y16636797D01*
X6502888Y16636797D02*
X6374767Y16583648D01*
X6374767Y16583648D02*
X6229992Y16556546D01*
X6229992Y16556546D02*
X6075536Y16557671D01*
X6075536Y16557671D02*
X5943722Y16581940D01*
X5943722Y16581940D02*
X5875819Y16603046D01*
X5875819Y16603046D02*
X5821840Y16629311D01*
X5821840Y16629311D02*
X5766410Y16669758D01*
X5766410Y16669758D02*
X5709708Y16719277D01*
X5709708Y16719277D02*
X5651500Y16771920D01*
X5651500Y16771920D02*
X5651500Y16573500D01*
X5651500Y16573500D02*
X5437345Y16573500D01*
X5437345Y16573500D02*
X5443880Y17150292D01*
X5443880Y17150292D02*
X5444098Y17167585D01*
X5444098Y17167585D02*
X5651500Y17167585D01*
X5651500Y17167585D02*
X5671503Y17037602D01*
X5671503Y17037602D02*
X5728454Y16922466D01*
X5728454Y16922466D02*
X5817761Y16828857D01*
X5817761Y16828857D02*
X5927299Y16766383D01*
X5927299Y16766383D02*
X5993225Y16751553D01*
X5993225Y16751553D02*
X6084064Y16745162D01*
X6084064Y16745162D02*
X6183302Y16746934D01*
X6183302Y16746934D02*
X6274424Y16756591D01*
X6274424Y16756591D02*
X6339633Y16773310D01*
X6339633Y16773310D02*
X6420620Y16828051D01*
X6420620Y16828051D02*
X6473354Y16906874D01*
X6473354Y16906874D02*
X6494075Y16999336D01*
X6494075Y16999336D02*
X6479022Y17094991D01*
X6479022Y17094991D02*
X6466058Y17124526D01*
X6466058Y17124526D02*
X6436198Y17171270D01*
X6436198Y17171270D02*
X6397450Y17206346D01*
X6397450Y17206346D02*
X6343550Y17231585D01*
X6343550Y17231585D02*
X6268232Y17248815D01*
X6268232Y17248815D02*
X6165231Y17259867D01*
X6165231Y17259867D02*
X6028283Y17266570D01*
X6028283Y17266570D02*
X5974291Y17268147D01*
X5974291Y17268147D02*
X5651500Y17276524D01*
X5651500Y17276524D02*
X5651500Y17167585D01*
X5651500Y17167585D02*
X5444098Y17167585D01*
X5444098Y17167585D02*
X5446181Y17332215D01*
X5446181Y17332215D02*
X5449159Y17477283D01*
X5449159Y17477283D02*
X5453799Y17590973D01*
X5453799Y17590973D02*
X5461086Y17678762D01*
X5461086Y17678762D02*
X5472006Y17746126D01*
X5472006Y17746126D02*
X5487544Y17798543D01*
X5487544Y17798543D02*
X5508686Y17841489D01*
X5508686Y17841489D02*
X5536416Y17880441D01*
X5536416Y17880441D02*
X5571721Y17920877D01*
X5571721Y17920877D02*
X5585124Y17935397D01*
X5585124Y17935397D02*
X5657726Y18001143D01*
X5657726Y18001143D02*
X5738943Y18046464D01*
X5738943Y18046464D02*
X5838530Y18074873D01*
X5838530Y18074873D02*
X5966244Y18089884D01*
X5966244Y18089884D02*
X6021916Y18092721D01*
X6021916Y18092721D02*
X6203551Y18089144D01*
X6203551Y18089144D02*
X6203551Y18089144D01*
G36*
X5449159Y17477283D02*
G01*
X5453799Y17590973D01*
X5461086Y17678762D01*
X5472006Y17746126D01*
X5487544Y17798543D01*
X5508686Y17841489D01*
X5536416Y17880441D01*
X5571721Y17920877D01*
X5585124Y17935397D01*
X5657726Y18001143D01*
X5738943Y18046464D01*
X5838530Y18074873D01*
X5966244Y18089884D01*
X6021916Y18092721D01*
X6203551Y18089144D01*
X6361489Y18061305D01*
X6508621Y18006233D01*
X6593300Y17961104D01*
X6689949Y17904464D01*
X6642857Y17820674D01*
X6612526Y17771960D01*
X6589786Y17744795D01*
X6584007Y17742567D01*
X6560666Y17754176D01*
X6509755Y17779648D01*
X6441534Y17813848D01*
X6429564Y17819854D01*
X6290456Y17874371D01*
X6149171Y17902269D01*
X6014148Y17903617D01*
X5893826Y17878486D01*
X5796646Y17826948D01*
X5781780Y17814435D01*
X5722323Y17744727D01*
X5683977Y17657738D01*
X5662578Y17552458D01*
X5647527Y17441333D01*
X5932374Y17441333D01*
X6049953Y17439690D01*
X6163367Y17435207D01*
X6260182Y17428556D01*
X6327960Y17420408D01*
X6331235Y17419810D01*
X6453720Y17382683D01*
X6560971Y17323533D01*
X6642516Y17249001D01*
X6672991Y17203128D01*
X6701484Y17117405D01*
X6713505Y17013727D01*
X6708675Y16909921D01*
X6686615Y16823812D01*
X6681281Y16812518D01*
X6607384Y16713813D01*
X6502888Y16636797D01*
X6374767Y16583648D01*
X6229992Y16556546D01*
X6075536Y16557671D01*
X5943722Y16581940D01*
X5875819Y16603046D01*
X5821840Y16629311D01*
X5766410Y16669758D01*
X5709708Y16719277D01*
X5651500Y16771920D01*
X5651500Y16573500D01*
X5437345Y16573500D01*
X5443880Y17150292D01*
X5444098Y17167585D01*
X5651500Y17167585D01*
X5671503Y17037602D01*
X5728454Y16922466D01*
X5817761Y16828857D01*
X5927299Y16766383D01*
X5993225Y16751553D01*
X6084064Y16745162D01*
X6183302Y16746934D01*
X6274424Y16756591D01*
X6339633Y16773310D01*
X6420620Y16828051D01*
X6473354Y16906874D01*
X6494075Y16999336D01*
X6479022Y17094991D01*
X6466058Y17124526D01*
X6436198Y17171270D01*
X6397450Y17206346D01*
X6343550Y17231585D01*
X6268232Y17248815D01*
X6165231Y17259867D01*
X6028283Y17266570D01*
X5974291Y17268147D01*
X5651500Y17276524D01*
X5651500Y17167585D01*
X5444098Y17167585D01*
X5446181Y17332215D01*
X5449159Y17477283D01*
G37*
X5449159Y17477283D02*
X5453799Y17590973D01*
X5461086Y17678762D01*
X5472006Y17746126D01*
X5487544Y17798543D01*
X5508686Y17841489D01*
X5536416Y17880441D01*
X5571721Y17920877D01*
X5585124Y17935397D01*
X5657726Y18001143D01*
X5738943Y18046464D01*
X5838530Y18074873D01*
X5966244Y18089884D01*
X6021916Y18092721D01*
X6203551Y18089144D01*
X6361489Y18061305D01*
X6508621Y18006233D01*
X6593300Y17961104D01*
X6689949Y17904464D01*
X6642857Y17820674D01*
X6612526Y17771960D01*
X6589786Y17744795D01*
X6584007Y17742567D01*
X6560666Y17754176D01*
X6509755Y17779648D01*
X6441534Y17813848D01*
X6429564Y17819854D01*
X6290456Y17874371D01*
X6149171Y17902269D01*
X6014148Y17903617D01*
X5893826Y17878486D01*
X5796646Y17826948D01*
X5781780Y17814435D01*
X5722323Y17744727D01*
X5683977Y17657738D01*
X5662578Y17552458D01*
X5647527Y17441333D01*
X5932374Y17441333D01*
X6049953Y17439690D01*
X6163367Y17435207D01*
X6260182Y17428556D01*
X6327960Y17420408D01*
X6331235Y17419810D01*
X6453720Y17382683D01*
X6560971Y17323533D01*
X6642516Y17249001D01*
X6672991Y17203128D01*
X6701484Y17117405D01*
X6713505Y17013727D01*
X6708675Y16909921D01*
X6686615Y16823812D01*
X6681281Y16812518D01*
X6607384Y16713813D01*
X6502888Y16636797D01*
X6374767Y16583648D01*
X6229992Y16556546D01*
X6075536Y16557671D01*
X5943722Y16581940D01*
X5875819Y16603046D01*
X5821840Y16629311D01*
X5766410Y16669758D01*
X5709708Y16719277D01*
X5651500Y16771920D01*
X5651500Y16573500D01*
X5437345Y16573500D01*
X5443880Y17150292D01*
X5444098Y17167585D01*
X5651500Y17167585D01*
X5671503Y17037602D01*
X5728454Y16922466D01*
X5817761Y16828857D01*
X5927299Y16766383D01*
X5993225Y16751553D01*
X6084064Y16745162D01*
X6183302Y16746934D01*
X6274424Y16756591D01*
X6339633Y16773310D01*
X6420620Y16828051D01*
X6473354Y16906874D01*
X6494075Y16999336D01*
X6479022Y17094991D01*
X6466058Y17124526D01*
X6436198Y17171270D01*
X6397450Y17206346D01*
X6343550Y17231585D01*
X6268232Y17248815D01*
X6165231Y17259867D01*
X6028283Y17266570D01*
X5974291Y17268147D01*
X5651500Y17276524D01*
X5651500Y17167585D01*
X5444098Y17167585D01*
X5446181Y17332215D01*
X5449159Y17477283D01*
X-12149667Y16573500D02*
X-12382500Y16573500D01*
X-12382500Y16573500D02*
X-12382500Y18097500D01*
X-12382500Y18097500D02*
X-12149667Y18097500D01*
X-12149667Y18097500D02*
X-12149667Y16573500D01*
X-12149667Y16573500D02*
X-12149667Y16573500D01*
G36*
X-12149667Y16573500D02*
G01*
X-12382500Y16573500D01*
X-12382500Y18097500D01*
X-12149667Y18097500D01*
X-12149667Y16573500D01*
G37*
X-12149667Y16573500D02*
X-12382500Y16573500D01*
X-12382500Y18097500D01*
X-12149667Y18097500D01*
X-12149667Y16573500D01*
X-7090834Y16573500D02*
X-7298418Y16573500D01*
X-7298418Y16573500D02*
X-7306245Y17044458D01*
X-7306245Y17044458D02*
X-7309161Y17200517D01*
X-7309161Y17200517D02*
X-7312444Y17320577D01*
X-7312444Y17320577D02*
X-7316678Y17410969D01*
X-7316678Y17410969D02*
X-7322451Y17478028D01*
X-7322451Y17478028D02*
X-7330346Y17528087D01*
X-7330346Y17528087D02*
X-7340949Y17567478D01*
X-7340949Y17567478D02*
X-7354846Y17602536D01*
X-7354846Y17602536D02*
X-7358577Y17610667D01*
X-7358577Y17610667D02*
X-7418976Y17715302D01*
X-7418976Y17715302D02*
X-7493207Y17791121D01*
X-7493207Y17791121D02*
X-7578407Y17843878D01*
X-7578407Y17843878D02*
X-7714515Y17891075D01*
X-7714515Y17891075D02*
X-7858465Y17901431D01*
X-7858465Y17901431D02*
X-7950941Y17887322D01*
X-7950941Y17887322D02*
X-8069694Y17842948D01*
X-8069694Y17842948D02*
X-8158246Y17774563D01*
X-8158246Y17774563D02*
X-8218432Y17688259D01*
X-8218432Y17688259D02*
X-8233281Y17658273D01*
X-8233281Y17658273D02*
X-8244766Y17626904D01*
X-8244766Y17626904D02*
X-8253414Y17588273D01*
X-8253414Y17588273D02*
X-8259753Y17536501D01*
X-8259753Y17536501D02*
X-8264314Y17465707D01*
X-8264314Y17465707D02*
X-8267624Y17370014D01*
X-8267624Y17370014D02*
X-8270213Y17243542D01*
X-8270213Y17243542D02*
X-8272522Y17086792D01*
X-8272522Y17086792D02*
X-8279474Y16573500D01*
X-8279474Y16573500D02*
X-8487834Y16573500D01*
X-8487834Y16573500D02*
X-8487834Y17088242D01*
X-8487834Y17088242D02*
X-8486986Y17278621D01*
X-8486986Y17278621D02*
X-8483803Y17432215D01*
X-8483803Y17432215D02*
X-8477326Y17554550D01*
X-8477326Y17554550D02*
X-8466594Y17651152D01*
X-8466594Y17651152D02*
X-8450650Y17727547D01*
X-8450650Y17727547D02*
X-8428533Y17789262D01*
X-8428533Y17789262D02*
X-8399284Y17841821D01*
X-8399284Y17841821D02*
X-8361944Y17890752D01*
X-8361944Y17890752D02*
X-8345208Y17909794D01*
X-8345208Y17909794D02*
X-8259546Y17990676D01*
X-8259546Y17990676D02*
X-8168114Y18044883D01*
X-8168114Y18044883D02*
X-8059480Y18077277D01*
X-8059480Y18077277D02*
X-7922213Y18092722D01*
X-7922213Y18092722D02*
X-7914254Y18093144D01*
X-7914254Y18093144D02*
X-7749810Y18091782D01*
X-7749810Y18091782D02*
X-7613977Y18067675D01*
X-7613977Y18067675D02*
X-7498233Y18018412D01*
X-7498233Y18018412D02*
X-7401197Y17947945D01*
X-7401197Y17947945D02*
X-7302500Y17861069D01*
X-7302500Y17861069D02*
X-7302500Y18711333D01*
X-7302500Y18711333D02*
X-7090834Y18711333D01*
X-7090834Y18711333D02*
X-7090834Y16573500D01*
X-7090834Y16573500D02*
X-7090834Y16573500D01*
G36*
X-7090834Y16573500D02*
G01*
X-7298418Y16573500D01*
X-7306245Y17044458D01*
X-7309161Y17200517D01*
X-7312444Y17320577D01*
X-7316678Y17410969D01*
X-7322451Y17478028D01*
X-7330346Y17528087D01*
X-7340949Y17567478D01*
X-7354846Y17602536D01*
X-7358577Y17610667D01*
X-7418976Y17715302D01*
X-7493207Y17791121D01*
X-7578407Y17843878D01*
X-7714515Y17891075D01*
X-7858465Y17901431D01*
X-7950941Y17887322D01*
X-8069694Y17842948D01*
X-8158246Y17774563D01*
X-8218432Y17688259D01*
X-8233281Y17658273D01*
X-8244766Y17626904D01*
X-8253414Y17588273D01*
X-8259753Y17536501D01*
X-8264314Y17465707D01*
X-8267624Y17370014D01*
X-8270213Y17243542D01*
X-8272522Y17086792D01*
X-8279474Y16573500D01*
X-8487834Y16573500D01*
X-8487834Y17088242D01*
X-8486986Y17278621D01*
X-8483803Y17432215D01*
X-8477326Y17554550D01*
X-8466594Y17651152D01*
X-8450650Y17727547D01*
X-8428533Y17789262D01*
X-8399284Y17841821D01*
X-8361944Y17890752D01*
X-8345208Y17909794D01*
X-8259546Y17990676D01*
X-8168114Y18044883D01*
X-8059480Y18077277D01*
X-7922213Y18092722D01*
X-7914254Y18093144D01*
X-7749810Y18091782D01*
X-7613977Y18067675D01*
X-7498233Y18018412D01*
X-7401197Y17947945D01*
X-7302500Y17861069D01*
X-7302500Y18711333D01*
X-7090834Y18711333D01*
X-7090834Y16573500D01*
G37*
X-7090834Y16573500D02*
X-7298418Y16573500D01*
X-7306245Y17044458D01*
X-7309161Y17200517D01*
X-7312444Y17320577D01*
X-7316678Y17410969D01*
X-7322451Y17478028D01*
X-7330346Y17528087D01*
X-7340949Y17567478D01*
X-7354846Y17602536D01*
X-7358577Y17610667D01*
X-7418976Y17715302D01*
X-7493207Y17791121D01*
X-7578407Y17843878D01*
X-7714515Y17891075D01*
X-7858465Y17901431D01*
X-7950941Y17887322D01*
X-8069694Y17842948D01*
X-8158246Y17774563D01*
X-8218432Y17688259D01*
X-8233281Y17658273D01*
X-8244766Y17626904D01*
X-8253414Y17588273D01*
X-8259753Y17536501D01*
X-8264314Y17465707D01*
X-8267624Y17370014D01*
X-8270213Y17243542D01*
X-8272522Y17086792D01*
X-8279474Y16573500D01*
X-8487834Y16573500D01*
X-8487834Y17088242D01*
X-8486986Y17278621D01*
X-8483803Y17432215D01*
X-8477326Y17554550D01*
X-8466594Y17651152D01*
X-8450650Y17727547D01*
X-8428533Y17789262D01*
X-8399284Y17841821D01*
X-8361944Y17890752D01*
X-8345208Y17909794D01*
X-8259546Y17990676D01*
X-8168114Y18044883D01*
X-8059480Y18077277D01*
X-7922213Y18092722D01*
X-7914254Y18093144D01*
X-7749810Y18091782D01*
X-7613977Y18067675D01*
X-7498233Y18018412D01*
X-7401197Y17947945D01*
X-7302500Y17861069D01*
X-7302500Y18711333D01*
X-7090834Y18711333D01*
X-7090834Y16573500D01*
X-3979334Y16573500D02*
X-4209352Y16573500D01*
X-4209352Y16573500D02*
X-4216051Y17065625D01*
X-4216051Y17065625D02*
X-4218434Y17223869D01*
X-4218434Y17223869D02*
X-4221095Y17345820D01*
X-4221095Y17345820D02*
X-4224592Y17437519D01*
X-4224592Y17437519D02*
X-4229480Y17505005D01*
X-4229480Y17505005D02*
X-4236318Y17554319D01*
X-4236318Y17554319D02*
X-4245660Y17591500D01*
X-4245660Y17591500D02*
X-4258065Y17622589D01*
X-4258065Y17622589D02*
X-4269447Y17645046D01*
X-4269447Y17645046D02*
X-4350397Y17756329D01*
X-4350397Y17756329D02*
X-4458158Y17835635D01*
X-4458158Y17835635D02*
X-4555679Y17874728D01*
X-4555679Y17874728D02*
X-4704526Y17901977D01*
X-4704526Y17901977D02*
X-4839924Y17893143D01*
X-4839924Y17893143D02*
X-4957784Y17849736D01*
X-4957784Y17849736D02*
X-5054013Y17773270D01*
X-5054013Y17773270D02*
X-5124519Y17665254D01*
X-5124519Y17665254D02*
X-5124881Y17664459D01*
X-5124881Y17664459D02*
X-5137404Y17632587D01*
X-5137404Y17632587D02*
X-5146964Y17595275D01*
X-5146964Y17595275D02*
X-5153957Y17546617D01*
X-5153957Y17546617D02*
X-5158777Y17480713D01*
X-5158777Y17480713D02*
X-5161818Y17391659D01*
X-5161818Y17391659D02*
X-5163476Y17273551D01*
X-5163476Y17273551D02*
X-5164144Y17120487D01*
X-5164144Y17120487D02*
X-5164202Y17076208D01*
X-5164202Y17076208D02*
X-5164667Y16573500D01*
X-5164667Y16573500D02*
X-5400709Y16573500D01*
X-5400709Y16573500D02*
X-5392091Y17107958D01*
X-5392091Y17107958D02*
X-5388007Y17295910D01*
X-5388007Y17295910D02*
X-5382377Y17454385D01*
X-5382377Y17454385D02*
X-5375380Y17580181D01*
X-5375380Y17580181D02*
X-5367194Y17670094D01*
X-5367194Y17670094D02*
X-5357997Y17720921D01*
X-5357997Y17720921D02*
X-5357889Y17721257D01*
X-5357889Y17721257D02*
X-5302226Y17834253D01*
X-5302226Y17834253D02*
X-5216447Y17938253D01*
X-5216447Y17938253D02*
X-5112490Y18019396D01*
X-5112490Y18019396D02*
X-5090584Y18031653D01*
X-5090584Y18031653D02*
X-5038897Y18056520D01*
X-5038897Y18056520D02*
X-4990642Y18072615D01*
X-4990642Y18072615D02*
X-4934387Y18081802D01*
X-4934387Y18081802D02*
X-4858701Y18085948D01*
X-4858701Y18085948D02*
X-4752155Y18086917D01*
X-4752155Y18086917D02*
X-4751917Y18086917D01*
X-4751917Y18086917D02*
X-4647160Y18086152D01*
X-4647160Y18086152D02*
X-4573280Y18082479D01*
X-4573280Y18082479D02*
X-4518832Y18073825D01*
X-4518832Y18073825D02*
X-4472368Y18058122D01*
X-4472368Y18058122D02*
X-4422440Y18033299D01*
X-4422440Y18033299D02*
X-4406208Y18024392D01*
X-4406208Y18024392D02*
X-4334827Y17979345D01*
X-4334827Y17979345D02*
X-4271522Y17930115D01*
X-4271522Y17930115D02*
X-4242166Y17901059D01*
X-4242166Y17901059D02*
X-4191000Y17840252D01*
X-4191000Y17840252D02*
X-4191000Y18097500D01*
X-4191000Y18097500D02*
X-3979334Y18097500D01*
X-3979334Y18097500D02*
X-3979334Y16573500D01*
X-3979334Y16573500D02*
X-3979334Y16573500D01*
G36*
X-3979334Y16573500D02*
G01*
X-4209352Y16573500D01*
X-4216051Y17065625D01*
X-4218434Y17223869D01*
X-4221095Y17345820D01*
X-4224592Y17437519D01*
X-4229480Y17505005D01*
X-4236318Y17554319D01*
X-4245660Y17591500D01*
X-4258065Y17622589D01*
X-4269447Y17645046D01*
X-4350397Y17756329D01*
X-4458158Y17835635D01*
X-4555679Y17874728D01*
X-4704526Y17901977D01*
X-4839924Y17893143D01*
X-4957784Y17849736D01*
X-5054013Y17773270D01*
X-5124519Y17665254D01*
X-5124881Y17664459D01*
X-5137404Y17632587D01*
X-5146964Y17595275D01*
X-5153957Y17546617D01*
X-5158777Y17480713D01*
X-5161818Y17391659D01*
X-5163476Y17273551D01*
X-5164144Y17120487D01*
X-5164202Y17076208D01*
X-5164667Y16573500D01*
X-5400709Y16573500D01*
X-5392091Y17107958D01*
X-5388007Y17295910D01*
X-5382377Y17454385D01*
X-5375380Y17580181D01*
X-5367194Y17670094D01*
X-5357997Y17720921D01*
X-5357889Y17721257D01*
X-5302226Y17834253D01*
X-5216447Y17938253D01*
X-5112490Y18019396D01*
X-5090584Y18031653D01*
X-5038897Y18056520D01*
X-4990642Y18072615D01*
X-4934387Y18081802D01*
X-4858701Y18085948D01*
X-4752155Y18086917D01*
X-4751917Y18086917D01*
X-4647160Y18086152D01*
X-4573280Y18082479D01*
X-4518832Y18073825D01*
X-4472368Y18058122D01*
X-4422440Y18033299D01*
X-4406208Y18024392D01*
X-4334827Y17979345D01*
X-4271522Y17930115D01*
X-4242166Y17901059D01*
X-4191000Y17840252D01*
X-4191000Y18097500D01*
X-3979334Y18097500D01*
X-3979334Y16573500D01*
G37*
X-3979334Y16573500D02*
X-4209352Y16573500D01*
X-4216051Y17065625D01*
X-4218434Y17223869D01*
X-4221095Y17345820D01*
X-4224592Y17437519D01*
X-4229480Y17505005D01*
X-4236318Y17554319D01*
X-4245660Y17591500D01*
X-4258065Y17622589D01*
X-4269447Y17645046D01*
X-4350397Y17756329D01*
X-4458158Y17835635D01*
X-4555679Y17874728D01*
X-4704526Y17901977D01*
X-4839924Y17893143D01*
X-4957784Y17849736D01*
X-5054013Y17773270D01*
X-5124519Y17665254D01*
X-5124881Y17664459D01*
X-5137404Y17632587D01*
X-5146964Y17595275D01*
X-5153957Y17546617D01*
X-5158777Y17480713D01*
X-5161818Y17391659D01*
X-5163476Y17273551D01*
X-5164144Y17120487D01*
X-5164202Y17076208D01*
X-5164667Y16573500D01*
X-5400709Y16573500D01*
X-5392091Y17107958D01*
X-5388007Y17295910D01*
X-5382377Y17454385D01*
X-5375380Y17580181D01*
X-5367194Y17670094D01*
X-5357997Y17720921D01*
X-5357889Y17721257D01*
X-5302226Y17834253D01*
X-5216447Y17938253D01*
X-5112490Y18019396D01*
X-5090584Y18031653D01*
X-5038897Y18056520D01*
X-4990642Y18072615D01*
X-4934387Y18081802D01*
X-4858701Y18085948D01*
X-4752155Y18086917D01*
X-4751917Y18086917D01*
X-4647160Y18086152D01*
X-4573280Y18082479D01*
X-4518832Y18073825D01*
X-4472368Y18058122D01*
X-4422440Y18033299D01*
X-4406208Y18024392D01*
X-4334827Y17979345D01*
X-4271522Y17930115D01*
X-4242166Y17901059D01*
X-4191000Y17840252D01*
X-4191000Y18097500D01*
X-3979334Y18097500D01*
X-3979334Y16573500D01*
X1629833Y16573500D02*
X1397000Y16573500D01*
X1397000Y16573500D02*
X1396881Y17033875D01*
X1396881Y17033875D02*
X1395829Y17176755D01*
X1395829Y17176755D02*
X1392949Y17308797D01*
X1392949Y17308797D02*
X1388548Y17422617D01*
X1388548Y17422617D02*
X1382930Y17510830D01*
X1382930Y17510830D02*
X1376401Y17566050D01*
X1376401Y17566050D02*
X1374560Y17574204D01*
X1374560Y17574204D02*
X1323468Y17684780D01*
X1323468Y17684780D02*
X1242191Y17774797D01*
X1242191Y17774797D02*
X1138603Y17842229D01*
X1138603Y17842229D02*
X1020582Y17885052D01*
X1020582Y17885052D02*
X896001Y17901240D01*
X896001Y17901240D02*
X772736Y17888767D01*
X772736Y17888767D02*
X658663Y17845608D01*
X658663Y17845608D02*
X572080Y17780581D01*
X572080Y17780581D02*
X534392Y17738859D01*
X534392Y17738859D02*
X504836Y17694128D01*
X504836Y17694128D02*
X482454Y17640813D01*
X482454Y17640813D02*
X466283Y17573338D01*
X466283Y17573338D02*
X455364Y17486129D01*
X455364Y17486129D02*
X448734Y17373611D01*
X448734Y17373611D02*
X445434Y17230208D01*
X445434Y17230208D02*
X444501Y17050344D01*
X444501Y17050344D02*
X444500Y17040377D01*
X444500Y17040377D02*
X444500Y16573500D01*
X444500Y16573500D02*
X206525Y16573500D01*
X206525Y16573500D02*
X216466Y17097375D01*
X216466Y17097375D02*
X220442Y17278090D01*
X220442Y17278090D02*
X225428Y17422483D01*
X225428Y17422483D02*
X232441Y17536565D01*
X232441Y17536565D02*
X242497Y17626345D01*
X242497Y17626345D02*
X256615Y17697836D01*
X256615Y17697836D02*
X275812Y17757048D01*
X275812Y17757048D02*
X301105Y17809993D01*
X301105Y17809993D02*
X333512Y17862680D01*
X333512Y17862680D02*
X350146Y17887128D01*
X350146Y17887128D02*
X424122Y17964407D01*
X424122Y17964407D02*
X534549Y18032981D01*
X534549Y18032981D02*
X541890Y18036633D01*
X541890Y18036633D02*
X606370Y18067078D01*
X606370Y18067078D02*
X658218Y18085795D01*
X658218Y18085795D02*
X710838Y18095019D01*
X710838Y18095019D02*
X777633Y18096982D01*
X777633Y18096982D02*
X872007Y18093919D01*
X872007Y18093919D02*
X882874Y18093448D01*
X882874Y18093448D02*
X1028983Y18080287D01*
X1028983Y18080287D02*
X1145373Y18052414D01*
X1145373Y18052414D02*
X1243322Y18005678D01*
X1243322Y18005678D02*
X1334105Y17935929D01*
X1334105Y17935929D02*
X1349375Y17921733D01*
X1349375Y17921733D02*
X1418166Y17856362D01*
X1418166Y17856362D02*
X1418166Y18097500D01*
X1418166Y18097500D02*
X1629833Y18097500D01*
X1629833Y18097500D02*
X1629833Y16573500D01*
X1629833Y16573500D02*
X1629833Y16573500D01*
G36*
X1629833Y16573500D02*
G01*
X1397000Y16573500D01*
X1396881Y17033875D01*
X1395829Y17176755D01*
X1392949Y17308797D01*
X1388548Y17422617D01*
X1382930Y17510830D01*
X1376401Y17566050D01*
X1374560Y17574204D01*
X1323468Y17684780D01*
X1242191Y17774797D01*
X1138603Y17842229D01*
X1020582Y17885052D01*
X896001Y17901240D01*
X772736Y17888767D01*
X658663Y17845608D01*
X572080Y17780581D01*
X534392Y17738859D01*
X504836Y17694128D01*
X482454Y17640813D01*
X466283Y17573338D01*
X455364Y17486129D01*
X448734Y17373611D01*
X445434Y17230208D01*
X444501Y17050344D01*
X444500Y17040377D01*
X444500Y16573500D01*
X206525Y16573500D01*
X216466Y17097375D01*
X220442Y17278090D01*
X225428Y17422483D01*
X232441Y17536565D01*
X242497Y17626345D01*
X256615Y17697836D01*
X275812Y17757048D01*
X301105Y17809993D01*
X333512Y17862680D01*
X350146Y17887128D01*
X424122Y17964407D01*
X534549Y18032981D01*
X541890Y18036633D01*
X606370Y18067078D01*
X658218Y18085795D01*
X710838Y18095019D01*
X777633Y18096982D01*
X872007Y18093919D01*
X882874Y18093448D01*
X1028983Y18080287D01*
X1145373Y18052414D01*
X1243322Y18005678D01*
X1334105Y17935929D01*
X1349375Y17921733D01*
X1418166Y17856362D01*
X1418166Y18097500D01*
X1629833Y18097500D01*
X1629833Y16573500D01*
G37*
X1629833Y16573500D02*
X1397000Y16573500D01*
X1396881Y17033875D01*
X1395829Y17176755D01*
X1392949Y17308797D01*
X1388548Y17422617D01*
X1382930Y17510830D01*
X1376401Y17566050D01*
X1374560Y17574204D01*
X1323468Y17684780D01*
X1242191Y17774797D01*
X1138603Y17842229D01*
X1020582Y17885052D01*
X896001Y17901240D01*
X772736Y17888767D01*
X658663Y17845608D01*
X572080Y17780581D01*
X534392Y17738859D01*
X504836Y17694128D01*
X482454Y17640813D01*
X466283Y17573338D01*
X455364Y17486129D01*
X448734Y17373611D01*
X445434Y17230208D01*
X444501Y17050344D01*
X444500Y17040377D01*
X444500Y16573500D01*
X206525Y16573500D01*
X216466Y17097375D01*
X220442Y17278090D01*
X225428Y17422483D01*
X232441Y17536565D01*
X242497Y17626345D01*
X256615Y17697836D01*
X275812Y17757048D01*
X301105Y17809993D01*
X333512Y17862680D01*
X350146Y17887128D01*
X424122Y17964407D01*
X534549Y18032981D01*
X541890Y18036633D01*
X606370Y18067078D01*
X658218Y18085795D01*
X710838Y18095019D01*
X777633Y18096982D01*
X872007Y18093919D01*
X882874Y18093448D01*
X1028983Y18080287D01*
X1145373Y18052414D01*
X1243322Y18005678D01*
X1334105Y17935929D01*
X1349375Y17921733D01*
X1418166Y17856362D01*
X1418166Y18097500D01*
X1629833Y18097500D01*
X1629833Y16573500D01*
X4127500Y16573500D02*
X3915833Y16573500D01*
X3915833Y16573500D02*
X3915833Y18711333D01*
X3915833Y18711333D02*
X4127500Y18711333D01*
X4127500Y18711333D02*
X4127500Y16573500D01*
X4127500Y16573500D02*
X4127500Y16573500D01*
G36*
X4127500Y16573500D02*
G01*
X3915833Y16573500D01*
X3915833Y18711333D01*
X4127500Y18711333D01*
X4127500Y16573500D01*
G37*
X4127500Y16573500D02*
X3915833Y16573500D01*
X3915833Y18711333D01*
X4127500Y18711333D01*
X4127500Y16573500D01*
X4910666Y16573500D02*
X4677833Y16573500D01*
X4677833Y16573500D02*
X4677833Y18711333D01*
X4677833Y18711333D02*
X4910666Y18711333D01*
X4910666Y18711333D02*
X4910666Y16573500D01*
X4910666Y16573500D02*
X4910666Y16573500D01*
G36*
X4910666Y16573500D02*
G01*
X4677833Y16573500D01*
X4677833Y18711333D01*
X4910666Y18711333D01*
X4910666Y16573500D01*
G37*
X4910666Y16573500D02*
X4677833Y16573500D01*
X4677833Y18711333D01*
X4910666Y18711333D01*
X4910666Y16573500D01*
X-12186240Y18683698D02*
X-12135738Y18634682D01*
X-12135738Y18634682D02*
X-12114140Y18570463D01*
X-12114140Y18570463D02*
X-12125403Y18501298D01*
X-12125403Y18501298D02*
X-12161794Y18448230D01*
X-12161794Y18448230D02*
X-12214778Y18420326D01*
X-12214778Y18420326D02*
X-12283112Y18414452D01*
X-12283112Y18414452D02*
X-12348712Y18429522D01*
X-12348712Y18429522D02*
X-12391884Y18462043D01*
X-12391884Y18462043D02*
X-12423156Y18535756D01*
X-12423156Y18535756D02*
X-12419297Y18606387D01*
X-12419297Y18606387D02*
X-12385315Y18664500D01*
X-12385315Y18664500D02*
X-12326219Y18700662D01*
X-12326219Y18700662D02*
X-12261689Y18707248D01*
X-12261689Y18707248D02*
X-12186240Y18683698D01*
X-12186240Y18683698D02*
X-12186240Y18683698D01*
G36*
X-12186240Y18683698D02*
G01*
X-12135738Y18634682D01*
X-12114140Y18570463D01*
X-12125403Y18501298D01*
X-12161794Y18448230D01*
X-12214778Y18420326D01*
X-12283112Y18414452D01*
X-12348712Y18429522D01*
X-12391884Y18462043D01*
X-12423156Y18535756D01*
X-12419297Y18606387D01*
X-12385315Y18664500D01*
X-12326219Y18700662D01*
X-12261689Y18707248D01*
X-12186240Y18683698D01*
G37*
X-12186240Y18683698D02*
X-12135738Y18634682D01*
X-12114140Y18570463D01*
X-12125403Y18501298D01*
X-12161794Y18448230D01*
X-12214778Y18420326D01*
X-12283112Y18414452D01*
X-12348712Y18429522D01*
X-12391884Y18462043D01*
X-12423156Y18535756D01*
X-12419297Y18606387D01*
X-12385315Y18664500D01*
X-12326219Y18700662D01*
X-12261689Y18707248D01*
X-12186240Y18683698D01*
%TD*%
M02*
