%TF.GenerationSoftware,KiCad,Pcbnew,(6.0.2)*%
%TF.CreationDate,2022-04-19T11:47:42+01:00*%
%TF.ProjectId,1u-mult,31752d6d-756c-4742-9e6b-696361645f70,rev?*%
%TF.SameCoordinates,Original*%
%TF.FileFunction,Legend,Bot*%
%TF.FilePolarity,Positive*%
%FSLAX46Y46*%
G04 Gerber Fmt 4.6, Leading zero omitted, Abs format (unit mm)*
G04 Created by KiCad (PCBNEW (6.0.2)) date 2022-04-19 11:47:42*
%MOMM*%
%LPD*%
G01*
G04 APERTURE LIST*
%ADD10C,0.150000*%
%ADD11C,0.120000*%
G04 APERTURE END LIST*
D10*
%TO.C,J4*%
X6633333Y-17252380D02*
X6633333Y-17966666D01*
X6680952Y-18109523D01*
X6776190Y-18204761D01*
X6919047Y-18252380D01*
X7014285Y-18252380D01*
X5728571Y-17585714D02*
X5728571Y-18252380D01*
X5966666Y-17204761D02*
X6204761Y-17919047D01*
X5585714Y-17919047D01*
%TO.C,J3*%
X21633333Y-17252380D02*
X21633333Y-17966666D01*
X21680952Y-18109523D01*
X21776190Y-18204761D01*
X21919047Y-18252380D01*
X22014285Y-18252380D01*
X21252380Y-17252380D02*
X20633333Y-17252380D01*
X20966666Y-17633333D01*
X20823809Y-17633333D01*
X20728571Y-17680952D01*
X20680952Y-17728571D01*
X20633333Y-17823809D01*
X20633333Y-18061904D01*
X20680952Y-18157142D01*
X20728571Y-18204761D01*
X20823809Y-18252380D01*
X21109523Y-18252380D01*
X21204761Y-18204761D01*
X21252380Y-18157142D01*
%TO.C,J2*%
X6633333Y-4152380D02*
X6633333Y-4866666D01*
X6680952Y-5009523D01*
X6776190Y-5104761D01*
X6919047Y-5152380D01*
X7014285Y-5152380D01*
X6204761Y-4247619D02*
X6157142Y-4200000D01*
X6061904Y-4152380D01*
X5823809Y-4152380D01*
X5728571Y-4200000D01*
X5680952Y-4247619D01*
X5633333Y-4342857D01*
X5633333Y-4438095D01*
X5680952Y-4580952D01*
X6252380Y-5152380D01*
X5633333Y-5152380D01*
%TO.C,J1*%
X21633333Y-4152380D02*
X21633333Y-4866666D01*
X21680952Y-5009523D01*
X21776190Y-5104761D01*
X21919047Y-5152380D01*
X22014285Y-5152380D01*
X20633333Y-5152380D02*
X21204761Y-5152380D01*
X20919047Y-5152380D02*
X20919047Y-4152380D01*
X21014285Y-4295238D01*
X21109523Y-4390476D01*
X21204761Y-4438095D01*
D11*
%TO.C,J4*%
X12000000Y-22300000D02*
X1500000Y-22300000D01*
X1500000Y-22300000D02*
X1500000Y-13300000D01*
X1500000Y-13300000D02*
X12000000Y-13300000D01*
X12000000Y-13300000D02*
X12000000Y-22300000D01*
%TO.C,J3*%
X27000000Y-22300000D02*
X16500000Y-22300000D01*
X16500000Y-22300000D02*
X16500000Y-13300000D01*
X16500000Y-13300000D02*
X27000000Y-13300000D01*
X27000000Y-13300000D02*
X27000000Y-22300000D01*
%TO.C,J2*%
X12000000Y-9200000D02*
X1500000Y-9200000D01*
X1500000Y-9200000D02*
X1500000Y-200000D01*
X1500000Y-200000D02*
X12000000Y-200000D01*
X12000000Y-200000D02*
X12000000Y-9200000D01*
%TO.C,J1*%
X27000000Y-9200000D02*
X16500000Y-9200000D01*
X16500000Y-9200000D02*
X16500000Y-200000D01*
X16500000Y-200000D02*
X27000000Y-200000D01*
X27000000Y-200000D02*
X27000000Y-9200000D01*
%TD*%
M02*
